<svg xmlns="http://www.w3.org/2000/svg" width="815" height="730" viewBox="0 0 611 547"><g fill="#fff"><path d="M0 0h611v296.54c-200.88.04-401.76-.04-602.64.04l-.1 65.35c6.24.34 12.48.33 18.73.28h584V547H0V0m175.43 84.7c-7.44 1.54-8.5 13.4-1.85 16.65 4.12 1.9 9.12 1.74 13.4.46 6.8-2.4 7.07-13.46.67-16.46-3.84-1.57-8.22-1.52-12.22-.65m-153 6.68l.08 79.15c17.7.28 35.44.2 53.15.06.14-5.6.12-11.2.05-16.8-10.43-.4-20.87.02-31.3-.2l-.25-62.2a1748.88 1748.88 0 0 0-21.73 0m194.44 20.4c-10.4 4.95-11.24 20.95-2.63 27.96 6.24 5.67 15.22 6.35 21.9 11.2 2.25 1.26 1.7 4.67-.8 5.18-9.02 2.16-17.96-1.43-26.53-3.9-.38 5.54-.42 11.12.23 16.64 12.47 3.7 26.58 5.27 38.82 0 10.68-4.48 13-19.6 6.7-28.48-6.5-7.54-17.17-8.53-25.23-13.76a67.86 67.86 0 0 1 .12-4.04c7.56-1.22 14.88 1.17 21.84 3.84 2.55-4.25 4.56-8.83 5.68-13.67-12.6-4.96-27.57-7.25-40.1-.98m-126.45-2.4l-.03 40.7c-.07 6.86 2.43 14.23 8.34 18.2 6.67 4.3 15.4 4.92 22.82 2.3 4.24-1.52 7.56-4.68 10.98-7.48l3.2 7.38c5.34.37 10.7.38 16.05.22l-.06-61.33a693.89 693.89 0 0 0-21.4-.02c-.3 10.58.22 21.16-.2 31.73-.42 4.2-.72 9-3.92 12.1-3.2 2.62-8.57 3.3-11.73.3-2.33-2.9-2.3-6.9-2.62-10.44l-.1-33.66a446.53 446.53 0 0 0-21.34-.01m79.1.03l.08 61.1c7.16.42 14.33.3 21.5.14.44-10.2.07-20.43.18-30.64-.12-10.23.25-20.45-.18-30.67-7.2-.1-14.4-.14-21.58.07m296.84 62.08c-.2 14.1-.34 28.2.7 42.27-4.5-3.4-7.82-8.37-13.1-10.64-9.04-3.53-20.12-2.15-27.5 4.35-6.87 6-10.6 14.9-11.88 23.8-1.46 10.18-1.35 20.75 1.47 30.7 2.28 7.7 6.3 15.4 13.35 19.7 7.94 5.02 18.63 5.17 26.73.4 3.57-2.12 5.9-5.7 9.14-8.24l1.55-.03c2.52 3.1 4.32 6.7 6.46 10.08 6.95.53 13.93.4 20.9.16l.1-56.02-.26-56.5c-9.22.03-18.44.01-27.66-.03M51.4 184.62c-12.93 1.32-26.32 6.9-33.6 18.17-8.66 13.03-9.22 29.5-7.35 44.55C12.3 261.46 21 274.94 34.3 280.7c12.32 5.16 26.3 6.08 39.27 2.9 12.02-2.5 23.2-10.5 28.13-21.9 5.55-11.33 5.63-24.28 4.76-36.6-1.3-10.98-5.28-22.32-13.94-29.66-11.1-9.8-26.85-11.98-41.13-10.84M224 208.18c2.08 5.93 4.7 11.66 7.72 17.17 8.92-2.78 18.4-7.22 27.87-4.82 5.24 1.32 6.13 7.24 6.14 11.8-8.82.9-17.74.58-26.5 2.22-7.5 1.36-15.3 4.32-20.1 10.56-8.26 11.5-5.13 30.17 7.54 37.2 8.13 4.5 18.15 3.86 26.74 1.08 6.15-1.85 10.03-7.25 15.1-10.8 2 3.7 3.93 7.45 5.82 11.22 6.38.57 12.8.53 19.2.08l-.1-53.9c.01-7.94-2.92-16.1-9.23-21.18-6.45-5.3-14.9-7.6-23.16-7.55-12.63-.2-25.55 1.48-37.07 6.92m129.65-4.57c-5.58 1.9-9.02 7.03-14.1 9.73-1.52-3.57-2.82-7.23-4.05-10.9-6.87-.22-13.75-.17-20.62-.06-.34 5.87-.28 11.75-.25 17.62l.24 63.9c9.27.43 18.56.35 27.84.05v-39.98c.1-5.22.64-10.62 2.93-15.38 2.82-6.13 11.2-7.95 16.98-5.28 4.82 3.05 5.2 9.5 5.5 14.63l.05 46.1c9.03.23 18.07.14 27.1.1 1.46-9.65.62-19.42.82-29.13-.16-10.35.53-20.76-.82-31.05-1.13-8.43-6.27-16.57-14.26-19.97-8.57-3.7-18.66-3.52-27.37-.37m191.8-1.87c-11.04 1.5-21.7 7.5-27.5 17.2-4.8 8.47-6.58 18.47-5.92 28.12.83 10.68 4.83 21.67 13.22 28.72 12.93 10.98 32.16 12.35 47.5 5.98 10.94-4.65 18.9-15.15 21.22-26.73 1.9-9.63 1.73-19.9-1.9-29.13-3.2-7.75-8.45-14.97-15.98-18.97-9.17-5.45-20.25-6.5-30.65-5.18m-429.25.58l32.03 81.57c9.16.48 18.35.4 27.52.03l31.98-81.57c-9.5-.06-19.03-.08-28.54.02-4.52 12.77-7.93 25.9-12.1 38.76-2.02 6.1-3.58 12.3-5.28 18.5-1.65-4.08-2.65-8.38-3.8-12.6l-12.88-44.45c-9.63-.5-19.28-.13-28.92-.24M53.57 382c1.8.47 3.56 1.1 5.4 1.32 1.96-.46 3.33-2.2 4.92-3.32-1.34-2.57-3.54-5.08-6.78-4.27-3.3.06-3.03 3.95-3.55 6.27m92.87-5.72c-1.95 1.58-.85 4.37-1.2 6.5 3 .5 6.05.23 8.9-.88l-1.28-5.98c-2.13.03-4.3-.07-6.4.35m-129.25 2.8c-.2 11.06-1.1 22.26.55 33.24 7.2.1 15.13 1.02 21.52-3.02 9.35-6.02 9.95-21.88.44-28-6.84-3.8-15.04-2.52-22.5-2.22m211.86-.34c2.85 5.6 7.6 10.26 9.56 16.3-1.9 6.46-7.56 11.1-9.7 17.53 2.78-.18 5.93.45 8.42-1.04 2.97-2.93 5.1-6.6 8.03-9.56 2.26 3.35 3.98 7.17 7 9.94 2.82.9 5.85.56 8.77.56-2.74-5.95-7.24-10.8-10.5-16.46 2.9-5.9 6.94-11.16 9.7-17.13-2.95.01-6.04-.48-8.88.55-2.73 2.7-4.25 6.33-6.24 9.57-2.66-3.12-4.58-6.85-7.56-9.68-2.8-.8-5.74-.53-8.6-.57m38.33.16v33.27l8.78.13a434.88 434.88 0 0 0 0-33.49l-8.78.1m14.78-.02c3.32 11.24 7 22.4 10.9 33.45 3.5.13 7.03.02 10.52-.4 4-10.9 7.6-21.97 10.66-33.18-3.27.35-8.56-1.48-9.72 2.86-2.23 5.82-3.3 12-5.04 17.98l-2.02.04c-1.83-6.9-3.46-13.87-5.74-20.65-3.2-.12-6.38-.16-9.57-.1m-185 10.18c-.65 1.58.48 3.2.76 4.75 1.8 4.93-.01 10.46 2.02 15.3 2.65 3.96 8.5 4 12.58 2.6 2.38-.54 2.27-3.16 2.6-5.06-2.5-.6-5.03-1.03-7.53-1.6-.32-4.1-.37-8.22-.23-12.33l6.84-1.1-.2-4.8-5.65-1.23-1.52-5.33c-4.54 1.04-7.6 4.85-9.67 8.78m62.67 1.82c5.8 5.1.2 14.32 5.57 19.73 3.72 3.1 8.87 1.65 13.1.68l-.33-4.95-6.07-1.05a58.69 58.69 0 0 1 0-12.57l6.7-1.2-.3-4.56-5.8-1.36-1.65-4.62c-5.8.01-8.14 5.98-11.22 9.9m-105.72-4.6c-.6 8.7-.42 17.4-.13 26.1l8.74-.23c.5-8.57.57-17.17-.1-25.74l-8.5-.14m19.68 1.56c-3.44 2.02-4.48 7.05-1.8 10.1 2.73 2.74 6.63 3.75 10.1 5.22a108.83 108.83 0 0 1 .8 3.58c-4.3-.23-8.6-.73-12.87-1.34l.6 6.15c5.6 1.2 11.8 1.92 17.03-.94 3.37-1.88 4.2-6.57 2.65-9.88-2.78-3.15-7-4.44-10.6-6.4l-.7-2.95c3 .3 6 .68 8.98 1.1l2.58-3.75c-4.97-3-11.6-3.93-16.76-.9m47.66-1.88c-.25 8.76-.14 17.53-.1 26.3 2.8.03 5.58 0 8.37-.05.34-5.38-.48-11 1.18-16.2 2.42-1.56 5.3-2.22 7.77-3.64.96-2.05.98-4.37 1.3-6.56-3.72.7-7.28 1.97-10.72 3.52-2.05-2.23-4.83-3.25-7.8-3.36m23.48.33c-.57 8.67-.43 17.37-.04 26.04l8.16-.06c.35-8.65.44-17.32-.1-25.96l-8.03-.02m47.5.36c-7.85 2.15-9.98 12.3-7.07 19.03 3.47 7.44 14.2 9 20.37 4.1 5.18-3.77 5.6-11.34 3.38-16.87-2.73-6.17-10.67-7.88-16.68-6.25zm-142-180.22c6.7-1.83 14.88-2 20.57 2.56 5.82 4.88 7.48 12.84 8.12 20.04.42 8.6.43 17.74-3.44 25.65-4.8 9.87-18.5 11.85-27.62 7.24-6.95-3.53-9.44-11.64-10.37-18.83-1-8.27-.77-16.87 1.77-24.85 1.75-5.24 5.74-9.85 10.97-11.8zm497.93 15.85C553.3 220.48 560 221.2 563 226c3.34 5.33 3.35 11.9 3.36 18-.14 5.95-.3 12.45-3.94 17.46-4.04 5.42-12.96 5.36-17.45.56-2.8-3.34-3.6-7.8-4.16-12-.6-6.13-.43-12.4.9-18.43.83-3.82 2.85-7.78 6.67-9.33zm-96.95 1.2c5.1-1.12 11.35.24 14 5.15 3.1 5.92 3.23 12.9 2.85 19.43-.56 4.9-1.27 10.55-5.34 13.86-4.7 3.13-11.82 3.3-15.96-.9-3.24-3.16-4.23-7.8-4.85-12.1-.73-6.25-.2-12.77 2.18-18.63 1.24-3.14 3.66-6.12 7.12-6.8zm-202.86 26.12c5.17-2.74 11.23-1.86 16.84-2.53-.1 3.9.5 7.97-.7 11.77-3 6.92-12.9 10-19.12 5.6-4.25-4.34-2.1-12.12 3-14.85zM53.53 309.6c1.86-.4 3.87-.4 5.68.23 1.94 1.05 1.65 3.64 1.1 5.43-2.38 1.62-6.2 2.07-8.15-.44-1.67-1.53-.3-4.3 1.38-5.22zm197.84-.17c2.28.01 4.6-.16 6.84.4 1.03 1.53 1.5 3.34 2.12 5.07-2.97 1.48-6.25 1.75-9.48 1.13l.52-6.6zm-58.04.42l8.28-.01-.04 33.6-7.4-1.14c-3.55-.72-6.95 2.12-10.44.98-4.66-2.05-6.04-7.66-6.1-12.3.06-4.42 1.33-9.8 5.75-11.8 3.3-1.55 6.8.38 10 1.34l-.03-10.7m-4.08 15.4c-3.53 1.38-3.2 6.12-2.6 9.18.6 3.62 6.5 3.6 6.9-.03.76-3.33.57-9.72-4.3-9.15zm122.5-15.4l8.5-.03c.28 11.26.33 22.55-.06 33.82-2.63-.48-5.22-1.1-7.87-1.44-3.53-.3-7.02 2.57-10.46.9-4.1-1.94-5.48-6.85-5.53-11.03-.24-4.62.94-10 5.2-12.52 3.26-2.16 7.06.01 10.3 1.06-.13-3.58-.14-7.17-.08-10.75m-5.38 15.7c-.88 2.9-2.2 6.02-1 9.03.5 2.4 4.1 3.8 5.72 1.68 2.68-3.18 1.17-7.55-.17-10.96l-4.55.25zm153.76-15.7l8.44.06-.05 33.6-8.67-1.34c-3.33.05-6.7 2.55-9.95.9-4.22-2.33-5.4-7.6-5.4-12.04.05-4.22 1.14-9.2 5.1-11.45 3.34-2.14 7.16-.03 10.48 1.04-.06-3.6-.03-7.17.04-10.76m-4.7 15.55c-2.74 1.76-2.34 5.53-2.06 8.34-.01 2.4 3.03 4.7 5.1 3.05 3.13-1.75 2.36-6.17 1.74-9.1-.44-2.23-2.9-2.7-4.8-2.3zm19.96-15.43a55.21 55.21 0 0 1 8.91-.18c-.5 2.18.5 5.98-2.5 6.48-2.13.44-4.3-.15-6.4-.38v-5.92zM18.7 312.2c6.3.2 12.87-.95 18.93 1.17 11.5 4.7 10.68 24.04-.7 28.4-5.82 2.2-12.17 1.57-18.25 1.56-.2-10.37-.3-20.75.03-31.12m8.62 6.28c-.18 6-.2 12.03 0 18.04 2.87-.33 6.56-.25 8.07-3.26 1.8-3.57 1.94-8.17.13-11.76-1.67-2.9-5.32-2.73-8.2-3.02zm99.6 4.64c2-3.1 4.2-6.08 6.45-9.02l3.67.33c1 3.28 3.87 4.7 7.06 5.24l.1 4.83-5.96.97.16 11.14 6.3.13-.14 6c-4.44.8-10.3 2.34-13.62-1.72-3.07-5.57.7-12.9-4.04-17.9zm428.87-8.5c1.72-1.1 3.87-.36 4.8 1.4 1.33 2.18 3.75 3.02 6.06 3.76l.1 4.7-5.97.94c-.14 3.76-.13 7.53.1 11.3l6.64.03c-.23 1.9-.4 3.83-.92 5.7-3.85 1.77-9 2.06-12.52-.57-2.77-3.3-1.44-8-1.9-11.93.2-2.7-1.56-4.82-3.05-6.84 2.1-2.9 3.9-6.1 6.64-8.46zm-480.18 5.4c3.3.14 6.4-2.18 9.7-1.28 4.07 1.57 5.66 6.2 6.1 10.2.47 4.87-.5 10.72-4.9 13.6-3.3 2.07-7.27.35-10.72-.34l-.17 11.57-8-.33c-.2-11.66-.34-23.34.1-35 2.6.57 5.25 1.06 7.88 1.58m1.67 4.88c-1.6 3.86-1.6 8.03-.18 11.94l4.7-.2c.65-3.23 1.57-6.7.33-9.92-.9-1.76-3.24-1.3-4.86-1.82zm-25.02-6.03l8.03-.12a396.27 396.27 0 0 1-.01 24.62l-8.06-.08.04-24.42z"/><path d="M97.3 318.83l8.3.05c-.03 5.97-.26 12 .76 17.9l5.26-.03c1.5-5.77 1.24-11.75 1-17.65 2.87-.2 5.74-.33 8.62-.43a571.85 571.85 0 0 1-.04 24.85c-2.73-.44-5.4-1.22-8.18-1.33-2.73.16-5.33 1.2-8.06 1.36-3.7.08-7.33-2.85-7.5-6.65-.58-6-.18-12.06-.15-18.08zm53.8 1.45c5.5-1.34 11.72-3.2 17.04-.34 2.6 1.32 3.65 4.3 3.92 7.03.57 5.53.2 11.1.01 16.64-2.72-.53-5.4-1.33-8.13-1.66-3.68.25-7.35 2.76-11.03 1.2-2.93-1.05-4.5-4.2-4.43-7.17-.18-2.8 1.9-4.9 3.48-6.96 4.25-.57 8.48-1.33 12.6-2.58-3.6-1.8-7.64-1.5-11.47-.76l-1.98-5.4m7.24 13.1c-1.5 1.2-.47 3.27-.54 4.86 1.63-.47 3.32-.86 4.84-1.64.53-1.4.94-2.83 1.2-4.3-1.85.3-3.73.48-5.5 1.08zm56.12-13.9c5.8-2.38 13.94-.75 16.65 5.4 1.9 4.5 2.03 10.25-.93 14.34-3.77 4.9-11.15 5.68-16.48 3.07-8.53-4.34-8.14-19.1.76-22.8m2.8 6.07c-.72 3.34-1.78 7.05-.05 10.27 1.15 2.48 5 1.83 6.06-.38.96-3.95.95-8.82-2.88-11.25l-3.13 1.36zm33.53-6.7l8.43-.1c.26 8.2.23 16.4.01 24.6l-8.5.01c-.2-8.17-.14-16.34.05-24.5zm15.6-.35c2.86.4 5.58 1.44 8.4 2.02 3.33-.5 6.55-2.9 10-1.63 2.84.7 5.2 3.1 5.45 6.1.7 6.12.25 12.3.08 18.44l-8.08-.1c-.12-5.1.3-10.2-.33-15.27.26-3.14-5.06-4.12-5.9-1.07-1.94 5.26-.94 11.05-1.3 16.55h-8.32v-25zm61.47 5.4c3.7-6.4 13.48-7.12 19-2.73 3.5 2.96 3.28 8 3.64 12.16l-16.05.33c1.1 1.36 1.72 3.74 3.83 3.76 3.4.4 6.83-.08 10.24-.3l-.52 5.52c-5.48 1-11.67 2.16-16.74-.9-5.9-3.6-6.2-12.2-3.4-17.85m6.5 4.22a133.23 133.23 0 0 0 8.48-.03c-1.24-1.3-1.8-4-4-3.85-2.4-.3-3.25 2.38-4.48 3.88zm21.93-9.5l8.68 1.44c3.4-.2 7.1-2.65 10.28-.42 4.03 2.56 4.74 7.84 4.66 12.23-.03 4.3-1.47 9.34-5.68 11.28-3.32 1.47-6.77-.45-9.9-1.57a205.43 205.43 0 0 1-.09 12.16l-8-.01.04-35.1m9.68 6.54c-1.82 3.63-1.67 7.66-.55 11.48l5.15.06c1.03-3.83 1.13-7.86-.58-11.53l-4.02-.01zm20.3-.93c3.42-6.65 13.2-7.37 18.86-3.3 3.9 2.96 3.6 8.3 3.83 12.67-5.34-.02-10.7-.17-16.02.3 1.04 1.2 2.05 2.43 3.3 3.45 3.65.7 7.35-.22 10.95-.83l-.02 5.52c-5.65 1.98-12.4 2.84-17.68-.58-5.4-3.75-6-11.7-3.2-17.22m8.68.07l-1.33 3.9a263.12 263.12 0 0 0 7.94-.09c-.8-1.17-1.5-2.4-2.45-3.43-1.37-.3-2.78-.3-4.16-.4zm19.82-5.94l7.75 2.13c3.5-.2 6.76-2.82 10.35-1.74 3.2.87 5.6 3.93 5.7 7.25.4 5.83.07 11.68.04 17.5h-8.33c-.27-5.72.55-11.56-.7-17.2-1.66-1.92-5.3-1.25-5.82 1.34-1.08 5.15-.4 10.47-.63 15.7l-8.47.04c-.2-8.34-.33-16.7.1-25zm60.88.37l8.44.18c.24 8.16.24 16.32.04 24.48l-8.47-.04c-.22-8.2-.17-16.42-.01-24.62zm15.14 6.94c2.52-7.75 13.35-9.22 19.4-4.86 3.9 2.96 3.88 8.26 3.94 12.7-5.33 0-10.66-.1-15.96.36 1.25 1.27 2.04 3.56 4.12 3.62 3.32.34 6.66-.16 9.98-.42l-.08 5.06c-5.92 1.94-12.97 2.73-18.3-1.13-4.5-3.6-4.38-10.24-3.1-15.33m7.5 2.4c2.8.13 5.6.17 8.42.1-1.2-1.33-1.75-3.92-3.9-3.9-2.4-.35-3.28 2.3-4.52 3.82zm21.54-9.7l8.15 2.07c2.72-.32 5.2-1.85 8-1.9 3.63.01 7.45 2.7 7.63 6.55.47 6.13.07 12.3.06 18.43-2.76-.03-5.52-.02-8.27.02.01-6.18.27-12.4-.83-18.5-1.8.58-4.8-.26-5.45 2.07-1.6 5.23-.6 10.83-.96 16.22l-8.43.01c-.26-8.32-.36-16.65.1-24.96zm51.58 10.6c.25-4.47 3.35-8.75 7.76-9.87 4.8-1.4 10.87-.6 14.07 3.6 2.36 3.02 2 7.06 2.2 10.66-5.3.2-10.6.1-15.9.32 1.13 1.36 1.78 3.62 3.83 3.83 3.53.5 7.06-.4 10.53-1.03l-.48 6.03c-5.8 1.32-12.5 2.35-17.75-1.2-3.96-2.67-4.68-7.96-4.25-12.36m8.04-.86c2.8.18 5.63.1 8.45.07-.84-1.6-1.73-4.22-3.98-3.94-2.23 0-3.13 2.5-4.47 3.87zm-553.05 57c3.2.4 7.4-.08 9.25 3.2 2.1 4.2 2 9.45.26 13.75-1.8 3.44-6.3 2.6-9.5 3.06a333.41 333.41 0 0 1 0-20zm169 7.3c1.66-.18 4.1-.6 4.8 1.4 1.72 3.25 1.82 7.38.25 10.72-1 2.18-4.3 2.94-5.9 1.02-1.92-2.35-1.58-5.7-1.5-8.52.23-1.63.4-4.25 2.36-4.63z"/></g><g fill="#881079"><path d="M175.43 84.7c4-.87 8.38-.92 12.22.65 6.4 3 6.14 14.06-.67 16.46-4.28 1.28-9.28 1.45-13.4-.46-6.65-3.25-5.6-15.1 1.85-16.65zM24 97.17c.32-1.76 1.27-3.68 3.2-4.07 5.1-1.33 10.42-.48 15.58-.1 1.34 12.96.3 26 .7 39 .35 6.94-1.12 13.8-.96 20.72.04 2.1 2.6 2.43 4.2 2.43 8.3-.12 16.75-1.7 24.97.06 1.58.06 1.82 1.7 2.1 2.93.58 3.6.22 7.27.08 10.9-7.93.77-15.9.3-23.86.37-8.6 0-17.24.36-25.77-.88-1.23-7.8-.5-15.7-.62-23.53l-.06-35c-.01-4.28-.34-8.6.46-12.83zm192.87 14.6c12.53-6.27 27.5-3.98 40.1.98-1.12 4.84-3.13 9.42-5.68 13.67-6.96-2.67-14.28-5.06-21.84-3.84a67.86 67.86 0 0 0-.12 4.04c8.06 5.23 18.72 6.22 25.23 13.76 6.3 8.9 3.98 24-6.7 28.48-12.24 5.27-26.35 3.7-38.82 0-.65-5.52-.6-11.1-.23-16.64 8.57 2.46 17.5 6.05 26.53 3.9 2.52-.5 3.06-3.92.8-5.18-6.7-4.85-15.67-5.53-21.9-11.2-8.6-7-7.78-23 2.63-27.96zm-126.45-2.4a446.53 446.53 0 0 1 21.34.01c.22 11.22-.1 22.44.1 33.66.3 3.54.3 7.53 2.62 10.44 3.16 2.98 8.54 2.3 11.73-.3 3.2-3.12 3.5-7.92 3.92-12.1.43-10.57-.1-21.15.2-31.73a693.95 693.95 0 0 1 21.4.02l.06 61.33c-5.35.16-10.7.15-16.05-.22l-3.2-7.38c-3.42 2.8-6.74 5.96-10.98 7.48-7.42 2.63-16.15 2-22.82-2.3-5.9-3.97-8.4-11.34-8.34-18.2l.03-40.7zm79.08.03c7.2-.2 14.4-.17 21.58-.07.43 10.22.06 20.44.18 30.67-.1 10.2.26 20.43-.18 30.64-7.17.16-14.34.28-21.5-.14l-.08-61.1zM8.36 296.58l602.64-.04v65.66c-194.67.03-389.33-.01-584 .01-6.25.05-12.5.06-18.73-.28l.1-65.35m45.17 13.02c-1.68.93-3.05 3.7-1.38 5.22 1.96 2.5 5.77 2.06 8.15.44.56-1.8.85-4.38-1.1-5.43-1.8-.64-3.82-.64-5.68-.23m197.84-.17l-.52 6.6c3.23.62 6.5.35 9.48-1.13-.62-1.73-1.1-3.54-2.12-5.07-2.24-.57-4.56-.4-6.84-.4m-58.04.42l.03 10.7c-3.18-.96-6.68-2.9-10-1.34-4.42 2-5.7 7.38-5.75 11.8.07 4.63 1.45 10.24 6.1 12.3 3.5 1.14 6.9-1.7 10.44-.98 2.46.4 4.9.88 7.4 1.14l.04-33.6a571.33 571.33 0 0 0-8.28.01m118.44-.03c-.06 3.58-.05 7.17.08 10.75-3.25-1.05-7.05-3.22-10.3-1.06-4.25 2.53-5.43 7.9-5.2 12.52.05 4.18 1.43 9.1 5.53 11.03 3.44 1.68 6.93-1.2 10.46-.9 2.65.33 5.24.96 7.87 1.44.4-11.27.34-22.56.06-33.82a601.57 601.57 0 0 0-8.5.03m148.38 0c-.07 3.6-.1 7.17-.04 10.76-3.32-1.07-7.14-3.18-10.48-1.04-3.96 2.26-5.05 7.23-5.1 11.45 0 4.45 1.17 9.7 5.4 12.04 3.24 1.65 6.62-.85 9.95-.9 2.92.25 5.76.97 8.67 1.34l.05-33.6-8.44-.06m15.26.13l.02 5.92c2.1.23 4.27.82 6.4.38 3-.5 2-4.3 2.5-6.48a55.21 55.21 0 0 0-8.91.18M18.7 312.2c-.33 10.37-.22 20.75-.03 31.12 6.08.01 12.43.64 18.25-1.56 11.4-4.35 12.2-23.7.7-28.4-6.06-2.12-12.64-.96-18.93-1.17m108.24 10.92c4.75 4.98.97 12.32 4.04 17.9 3.32 4.06 9.18 2.5 13.62 1.72l.14-6-6.3-.13c-.14-3.72-.16-7.43-.16-11.14l5.96-.97-.1-4.83c-3.2-.54-6.06-1.96-7.06-5.24l-3.67-.33c-2.24 2.94-4.45 5.9-6.45 9.02m428.87-8.5c-2.73 2.36-4.55 5.56-6.64 8.46 1.5 2.02 3.24 4.14 3.05 6.84.47 3.93-.86 8.62 1.9 11.93 3.5 2.63 8.67 2.34 12.52.57.5-1.86.7-3.8.92-5.7-2.22-.02-4.43 0-6.64-.03-.24-3.76-.25-7.53-.1-11.3l5.97-.94-.1-4.7c-2.3-.74-4.73-1.58-6.06-3.76-.94-1.75-3.1-2.5-4.8-1.4m-480.18 5.4l-7.88-1.58c-.44 11.66-.3 23.34-.1 35l8 .33.17-11.57c3.45.7 7.4 2.4 10.72.34 4.4-2.88 5.37-8.73 4.9-13.6-.43-4-2.02-8.63-6.1-10.2-3.3-.9-6.42 1.42-9.7 1.28m-23.36-1.15c-.14 8.13-.1 16.28-.04 24.42l8.06.08c.26-8.2.26-16.4.01-24.62l-8.03.12m45.04-.07c-.03 6.02-.43 12.07.15 18.08.18 3.8 3.82 6.73 7.5 6.65 2.73-.16 5.33-1.2 8.06-1.36 2.77.1 5.45.9 8.18 1.33a571.85 571.85 0 0 0 .04-24.85c-2.88.1-5.75.24-8.62.43.25 5.9.5 11.88-1 17.65l-5.26.03c-1.02-5.92-.8-11.94-.76-17.9l-8.3-.05m53.8 1.45l1.98 5.4-1.92 3.45.8-.1c-1.57 2.05-3.66 4.16-3.48 6.96-.07 2.98 1.5 6.12 4.43 7.17 3.68 1.55 7.35-.96 11.03-1.2 2.74.33 5.4 1.13 8.13 1.66.2-5.54.56-11.1-.01-16.64-.27-2.74-1.3-5.7-3.92-7.03-5.32-2.86-11.55-1-17.04.34m63.37-.8c-8.9 3.7-9.3 18.47-.76 22.8 5.33 2.6 12.7 1.82 16.48-3.07 2.96-4.1 2.82-9.83.93-14.34-2.7-6.15-10.86-7.78-16.65-5.4m36.33-.62c-.2 8.16-.24 16.33-.05 24.5h8.5c.22-8.2.25-16.4-.01-24.6l-8.43.1m15.6-.36c-.15 8.33-.1 16.67 0 25h8.32c.36-5.5-.64-11.3 1.3-16.55.85-3.05 6.17-2.07 5.9 1.07.62 5.06.2 10.18.33 15.27l8.08.1c.17-6.14.6-12.32-.08-18.44-.25-3-2.6-5.38-5.45-6.1-3.46-1.28-6.68 1.12-10 1.63-2.82-.58-5.54-1.62-8.4-2.02m61.47 5.42c-2.8 5.66-2.5 14.24 3.4 17.85 5.07 3.06 11.26 1.9 16.74.9l.52-5.52c-3.4.2-6.83.7-10.24.3-2.1-.02-2.72-2.4-3.83-3.76 5.35-.2 10.7-.15 16.05-.33-.36-4.17-.13-9.2-3.64-12.16-5.5-4.4-15.3-3.67-19 2.73m28.44-5.3l-.04 35.1 8 .01a205.43 205.43 0 0 0 .09-12.16c3.12 1.12 6.57 3.04 9.9 1.57 4.2-1.94 5.65-7 5.68-11.28.08-4.4-.63-9.67-4.66-12.23-3.18-2.23-6.87.22-10.28.42-2.93-.25-5.78-1.03-8.68-1.44m29.97 5.6c-2.78 5.53-2.2 13.47 3.2 17.22 5.28 3.42 12.03 2.56 17.68.58l.02-5.52c-3.6.6-7.3 1.53-10.95.83-1.24-1.02-2.25-2.26-3.3-3.45 5.33-.47 10.68-.32 16.02-.3-.24-4.38.06-9.7-3.83-12.67-5.65-4.06-15.44-3.34-18.86 3.3m28.52-5.86c-.44 8.32-.32 16.67-.1 25l8.47-.04c.24-5.22-.45-10.54.63-15.7.52-2.6 4.16-3.26 5.82-1.34 1.24 5.64.42 11.48.7 17.2h8.33c.03-5.83.35-11.68-.04-17.5-.1-3.32-2.48-6.38-5.7-7.25-3.6-1.08-6.86 1.53-10.35 1.74-2.6-.65-5.17-1.44-7.75-2.13m60.88.37c-.16 8.2-.2 16.4.01 24.62l8.47.04c.2-8.16.2-16.32-.04-24.48l-8.44-.18m15.14 6.94c-1.3 5.1-1.4 11.73 3.1 15.33 5.34 3.86 12.4 3.07 18.3 1.13l.08-5.06c-3.32.26-6.66.76-9.98.42-2.08-.06-2.87-2.35-4.12-3.62 5.3-.47 10.63-.36 15.96-.36-.06-4.44-.03-9.74-3.94-12.7-6.05-4.36-16.88-2.9-19.4 4.86m29.04-7.3c-.46 8.3-.36 16.64-.1 24.96l8.43-.01c.35-5.4-.63-11 .96-16.22.66-2.33 3.64-1.5 5.45-2.07 1.1 6.1.84 12.33.83 18.5l8.27-.02c.01-6.14.4-12.3-.06-18.43-.18-3.85-4-6.54-7.63-6.55-2.8.05-5.28 1.58-8 1.9-2.76-.5-5.42-1.5-8.15-2.07m51.58 10.6c-.43 4.4.3 9.7 4.25 12.36 5.26 3.54 11.94 2.5 17.75 1.2l.48-6.03c-3.47.62-7 1.54-10.53 1.03-2.05-.2-2.7-2.47-3.83-3.83 5.3-.23 10.6-.13 15.9-.32-.18-3.6.17-7.64-2.2-10.66-3.2-4.2-9.26-5-14.07-3.6-4.4 1.12-7.5 5.4-7.76 9.87zM27.3 318.5c2.88.3 6.53.13 8.2 3.02 1.8 3.6 1.68 8.2-.13 11.76-1.5 3-5.2 2.93-8.07 3.26-.2-6-.18-12.03 0-18.04zm307.08 9.63c1.23-1.5 2.07-4.18 4.48-3.88 2.2-.14 2.76 2.54 4 3.85l-8.48.03z"/><path d="M394.96 324.3c1.38.08 2.8.08 4.16.4.95 1.04 1.66 2.26 2.45 3.43l-7.94.1 1.33-3.9zm103.36 3.76c1.24-1.5 2.1-4.17 4.52-3.82 2.15-.01 2.7 2.58 3.9 3.9-2.8.08-5.62.04-8.42-.1zm81.16.04c1.34-1.38 2.24-3.87 4.47-3.87 2.25-.28 3.14 2.34 3.98 3.94-2.82.03-5.64.1-8.45-.07zM77.3 324.93c1.62.5 3.95.06 4.86 1.82 1.24 3.2.32 6.7-.33 9.92l-4.7.2c-1.43-3.9-1.42-8.08.18-11.94zm111.95.33c4.86-.57 5.05 5.82 4.3 9.15-.4 3.63-6.3 3.65-6.9.03-.6-3.06-.93-7.8 2.6-9.18zm28 .28l3.13-1.36c3.83 2.43 3.84 7.3 2.88 11.25-1.07 2.2-4.9 2.86-6.06.38-1.73-3.22-.67-6.93.05-10.27zm89.14-.02l4.55-.25c1.34 3.4 2.85 7.78.17 10.96-1.62 2.13-5.22.72-5.72-1.68-1.2-3 .12-6.14 1-9.03zm59.6-.37l4.02.01c1.7 3.67 1.6 7.7.58 11.53l-5.15-.06c-1.12-3.82-1.27-7.85.55-11.48zm89.45.22c1.9-.4 4.35.07 4.8 2.3.62 2.92 1.4 7.34-1.74 9.1-2.08 1.65-5.12-.66-5.1-3.05-.28-2.8-.68-6.58 2.06-8.34zm-297.1 8c1.78-.6 3.66-.8 5.5-1.08-.27 1.47-.68 2.9-1.2 4.3-1.52.78-3.2 1.17-4.84 1.64.07-1.6-.95-3.66.54-4.86z"/></g><path d="M22.43 91.38h21.73c.5 20.73 0 41.46.25 62.2 10.43.23 20.87-.18 31.3.2.07 5.6.1 11.2-.05 16.8-17.7.14-35.44.22-53.15-.06l-.08-79.15m1.58 5.8c-.8 4.22-.47 8.55-.46 12.83l.06 35c.12 7.84-.6 15.73.62 23.53 8.53 1.24 17.18.88 25.77.88 7.96-.08 15.93.4 23.86-.37.14-3.63.5-7.3-.08-10.9-.27-1.22-.5-2.87-2.1-2.93-8.22-1.75-16.66-.18-24.97-.06-1.6 0-4.17-.34-4.2-2.43-.16-6.92 1.3-13.78.96-20.72-.4-13 .65-26.04-.7-39-5.16-.38-10.5-1.23-15.58.1-1.92.4-2.87 2.3-3.2 4.07zm442.34 74.3l27.66.03c.6 18.82.1 37.66.26 56.5l-.1 56.02c-6.97.24-13.95.37-20.9-.16-2.14-3.37-3.94-6.97-6.46-10.08l-1.55.03c-3.23 2.54-5.57 6.12-9.14 8.24-8.1 4.76-18.8 4.6-26.73-.4-7.05-4.3-11.07-12-13.35-19.7-2.82-9.95-2.93-20.52-1.47-30.7 1.3-8.9 5-17.78 11.88-23.8 7.4-6.5 18.47-7.88 27.5-4.35 5.28 2.27 8.6 7.25 13.1 10.64-1.04-14.07-.9-28.18-.7-42.27m-14.93 51.98c-3.46.68-5.88 3.66-7.12 6.8-2.38 5.86-2.9 12.38-2.18 18.63.62 4.3 1.6 8.95 4.85 12.1 4.14 4.2 11.25 4.03 15.96.9 4.07-3.3 4.78-8.97 5.34-13.86.38-6.52.24-13.5-2.85-19.43-2.65-4.9-8.9-6.27-14-5.15zM51.4 184.62c14.28-1.14 30.02 1.04 41.13 10.84 8.66 7.34 12.65 18.68 13.94 29.66.87 12.3.8 25.26-4.76 36.6-4.94 11.4-16.1 19.42-28.13 21.9-12.96 3.17-26.95 2.25-39.27-2.9-13.3-5.76-22-19.25-23.86-33.37-1.87-15.04-1.3-31.52 7.35-44.55 7.28-11.26 20.67-16.85 33.6-18.17m-.97 21.8c-5.23 1.96-9.22 6.57-10.97 11.8-2.54 7.98-2.78 16.58-1.77 24.85.93 7.2 3.42 15.3 10.37 18.83 9.12 4.6 22.82 2.63 27.62-7.24 3.87-7.9 3.86-17.04 3.44-25.65-.64-7.2-2.3-15.16-8.12-20.04-5.7-4.55-13.88-4.4-20.57-2.56zM224 208.18c11.52-5.44 24.44-7.12 37.07-6.92 8.25-.06 16.7 2.25 23.16 7.55 6.3 5.08 9.24 13.24 9.23 21.18l.1 53.9c-6.4.45-12.8.5-19.2-.08l-5.82-11.22c-5.08 3.55-8.96 8.95-15.1 10.8-8.6 2.78-18.6 3.43-26.74-1.08-12.67-7.02-15.8-25.7-7.54-37.2 4.78-6.24 12.6-9.2 20.1-10.56 8.75-1.64 17.67-1.33 26.5-2.22-.01-4.56-.9-10.48-6.14-11.8-9.47-2.4-18.95 2.04-27.87 4.82-3.03-5.5-5.64-11.24-7.72-17.17m24.57 41.4c-5.1 2.73-7.24 10.5-3 14.85 6.23 4.38 16.13 1.3 19.12-5.6 1.2-3.8.62-7.86.7-11.77-5.6.67-11.67-.2-16.84 2.53zm105.04-45.98c8.7-3.15 18.8-3.34 27.37.37 8 3.4 13.13 11.54 14.26 19.97 1.35 10.3.66 20.7.82 31.05-.2 9.7.64 19.48-.82 29.13-9.04.05-18.08.14-27.1-.1l-.05-46.1c-.3-5.14-.67-11.58-5.5-14.63-5.8-2.67-14.16-.85-16.98 5.28-2.3 4.76-2.84 10.16-2.93 15.38v39.98c-9.28.3-18.57.38-27.84-.05-.5-21.3-.1-42.6-.24-63.9-.03-5.87-.1-11.75.25-17.62 6.87-.1 13.75-.16 20.62.06 1.23 3.67 2.53 7.33 4.05 10.9 5.1-2.7 8.53-7.84 14.1-9.73zm191.8-1.86c10.4-1.32 21.48-.27 30.65 5.18 7.53 4 12.8 11.22 15.98 18.97 3.62 9.22 3.8 19.5 1.9 29.13-2.32 11.58-10.28 22.08-21.22 26.73-15.34 6.37-34.57 5-47.5-5.98-8.4-7.05-12.4-18.04-13.22-28.72-.66-9.65 1.12-19.65 5.92-28.12 5.8-9.7 16.46-15.7 27.5-17.2m2.94 20.5c-3.82 1.55-5.84 5.5-6.67 9.33-1.32 6.04-1.48 12.3-.9 18.43.57 4.2 1.37 8.66 4.16 12 4.5 4.8 13.4 4.86 17.45-.56 3.64-5 3.8-11.5 3.94-17.46-.01-6.1-.02-12.67-3.36-18-3-4.8-9.7-5.5-14.63-3.74zm-432.2-19.9c9.64.1 19.3-.25 28.92.24 4.05 14.9 8.62 29.62 12.88 44.45 1.15 4.23 2.15 8.53 3.8 12.6 1.7-6.18 3.26-12.4 5.28-18.5 4.18-12.87 7.6-26 12.1-38.76l28.54-.02-31.98 81.57c-9.17.38-18.36.45-27.52-.03l-32.03-81.57zm36.9 123.38c3.83-.74 7.86-1.04 11.47.76-4.1 1.25-8.34 2-12.6 2.58l-.8.1 1.92-3.45z" fill="#434544"/><path d="M53.57 382c.52-2.32.24-6.2 3.55-6.27 3.24-.8 5.44 1.7 6.78 4.27-1.6 1.13-2.96 2.86-4.92 3.32-1.85-.22-3.62-.85-5.4-1.32zm92.87-5.72c2.1-.42 4.28-.32 6.4-.35l1.28 5.98c-2.85 1.1-5.9 1.37-8.9.88.36-2.14-.74-4.93 1.2-6.5zM17.2 379.06c7.47-.3 15.67-1.57 22.5 2.22 9.5 6.12 8.9 21.98-.44 28-6.4 4.04-14.33 3.13-21.52 3.02-1.66-10.98-.75-22.18-.55-33.24m9.25 6a333.41 333.41 0 0 0 0 20c3.2-.46 7.7.38 9.5-3.06 1.74-4.3 1.83-9.55-.26-13.75-1.84-3.28-6.06-2.8-9.25-3.2zm202.6-6.34c2.86.04 5.8-.23 8.6.57 2.98 2.83 4.9 6.56 7.56 9.68 2-3.24 3.5-6.87 6.24-9.57 2.84-1.03 5.93-.54 8.88-.55-2.77 5.97-6.8 11.23-9.7 17.13 3.26 5.65 7.76 10.5 10.5 16.46-2.92 0-5.95.35-8.77-.56-3.02-2.77-4.74-6.6-7-9.94-2.93 2.97-5.06 6.63-8.03 9.56-2.5 1.5-5.64.86-8.42 1.04 2.15-6.44 7.8-11.07 9.7-17.53-1.97-6.03-6.7-10.68-9.56-16.3zm38.33.16l8.78-.1a434.88 434.88 0 0 1 0 33.49l-8.78-.13v-33.27zm14.78-.02l9.57.1c2.28 6.78 3.9 13.74 5.74 20.65l2.02-.04c1.74-5.98 2.8-12.16 5.04-17.98 1.16-4.34 6.45-2.5 9.72-2.86-3.06 11.2-6.65 22.28-10.66 33.18-3.5.4-7 .52-10.52.4-3.92-11.05-7.6-22.2-10.9-33.45zm-185 10.18c2.08-3.93 5.13-7.74 9.67-8.78l1.52 5.33 5.65 1.23.2 4.8-6.84 1.1c-.14 4.1-.1 8.22.23 12.33l7.53 1.6c-.34 1.9-.23 4.52-2.6 5.06-4.08 1.4-9.93 1.37-12.58-2.6-2.03-4.84-.23-10.37-2.02-15.3-.28-1.56-1.4-3.17-.76-4.75zm62.67 1.82c3.08-3.9 5.4-9.88 11.22-9.9l1.65 4.62 5.8 1.36.3 4.56-6.7 1.2a58.69 58.69 0 0 0 0 12.57l6.07 1.05.33 4.95c-4.24.97-9.4 2.43-13.1-.68-5.36-5.4.24-14.64-5.57-19.73zm-105.73-4.6l8.5.14c.68 8.57.6 17.17.1 25.74l-8.74.23c-.3-8.7-.47-17.42.13-26.1zm19.7 1.55c5.16-3.04 11.8-2.1 16.76.9l-2.58 3.75-8.98-1.1.7 2.95c3.6 1.96 7.82 3.25 10.6 6.4 1.56 3.3.72 8-2.65 9.88-5.22 2.86-11.44 2.15-17.03.94l-.6-6.15c4.27.6 8.56 1.1 12.87 1.34l-.8-3.58c-3.47-1.47-7.37-2.48-10.1-5.22-2.68-3.06-1.64-8.1 1.8-10.1zm47.65-1.87c2.98.1 5.76 1.13 7.8 3.36 3.44-1.55 7-2.82 10.72-3.52-.33 2.2-.35 4.5-1.3 6.56-2.48 1.42-5.35 2.08-7.77 3.64-1.66 5.2-.84 10.82-1.18 16.2l-8.37.05.1-26.3zm23.48.33l8.03.02c.53 8.64.44 17.3.1 25.96l-8.16.06c-.4-8.67-.53-17.37.04-26.04zm47.5.36c6-1.63 13.95.08 16.68 6.25 2.2 5.53 1.8 13.1-3.38 16.87-6.18 4.9-16.9 3.35-20.37-4.1-2.9-6.73-.78-16.88 7.07-19.03m3 5.75c-1.97.38-2.13 3-2.36 4.63-.08 2.83-.42 6.17 1.5 8.52 1.6 1.92 4.92 1.16 5.9-1.02 1.57-3.34 1.47-7.47-.25-10.72-.7-2-3.14-1.6-4.8-1.4z" fill="#9a999a"/></svg>