<?xml version="1.0" encoding="utf-8"?>
<!-- Generator: Adobe Illustrator 21.0.0, SVG Export Plug-In . SVG Version: 6.00 Build 0)  -->
<svg version="1.2" baseProfile="tiny" id="Capa_1" xmlns="http://www.w3.org/2000/svg" xmlns:xlink="http://www.w3.org/1999/xlink"
	 x="0px" y="0px" width="473.3px" height="473.3px" viewBox="0 0 473.3 473.3" xml:space="preserve">
<g transform="matrix(3.543307 0 0 3.543307 -1028.1561 -818.64151)">
	<path fill="#333333" d="M357,355.2c31.7,0,57.4-25.7,57.4-57.4s-25.7-57.4-57.4-57.4s-57.4,25.7-57.4,57.4S325.3,355.2,357,355.2z"
		/>
	<path fill="#FFFFFF" d="M357,347.5c27.4,0,49.7-22.2,49.7-49.7c0-27.4-22.2-49.7-49.7-49.7c-27.4,0-49.7,22.2-49.7,49.7
		S329.5,347.5,357,347.5z"/>
	<g>
		<path d="M362.4,304.6l6,1.5c-1.3,4.9-3.5,8.7-6.8,11.2c-3.3,2.6-7.2,3.9-11.9,3.9c-4.9,0-8.8-1-11.9-3c-3-2-5.4-4.9-7-8.6
			c-1.6-3.8-2.4-7.8-2.4-12.1c0-4.7,0.9-8.8,2.7-12.3c1.8-3.5,4.4-6.2,7.7-8c3.3-1.8,7-2.7,11-2.7c4.5,0,8.3,1.2,11.4,3.4
			c3.1,2.3,5.2,5.5,6.4,9.7l-5.9,1.4c-1-3.3-2.6-5.7-4.6-7.2s-4.5-2.2-7.5-2.2c-3.5,0-6.4,0.8-8.7,2.5c-2.3,1.7-4,3.9-4.9,6.7
			c-0.9,2.8-1.4,5.7-1.4,8.7c0,3.8,0.6,7.2,1.7,10.1s2.9,5,5.2,6.4c2.4,1.4,4.9,2.1,7.7,2.1c3.3,0,6.2-1,8.5-2.9
			C360,311.2,361.5,308.4,362.4,304.6z"/>
		<path d="M376.7,320.4v-45.2h6v45.2H376.7z"/>
	</g>
</g>
</svg>
