<svg xmlns="http://www.w3.org/2000/svg" width="378" height="330" viewBox="0 0 283 247"><g fill="#fbfbfb"><path d="M264.43 47.38c1.65-.07 1.7 2.7 0 2.58-1.68.08-1.7-2.7 0-2.58zm-5.53.44c2.24-1.66 3.64 1.64 1.1 2.45l-1.1-2.45zM59.38 75.96c.9-1.34 3.3.1 2.07 1.44-.92 1.35-3.3-.1-2.07-1.44zm20.08 2.27c2.23.32 4.94.16 6.1 2.54l-5.94.17c1.9 1.18 4.9 1.34 5.88 3.62 1.12 1.7-.87 3.6-2.5 3.86-1.66-.06-3.25-.62-4.84-1l.94-2.02c1.6.47 3.27.98 4.94.38-1.94-1.1-4.23-1.66-5.85-3.24-.86-1.6.72-2.93 1.3-4.3zm57.06.3c3.83-1 7.2 3.8 5.24 7.15-.97 2.9-4.9 3.6-7.12 1.7-2.74-2.45-1.82-7.87 1.88-8.85m.07 8.27l3.13-1.17c.06-2.46-.16-5-2.87-5.94-1.35 2.25-1.68 4.8-.26 7.1zM18.3 78.67l2.24-.07c-.06 2.78.1 5.6-.4 8.35-1.14 2.12-3.73 1.04-5.6.95L14 84.36l2.03-.01 1.94 2.5.32-8.18zm5.12.67c3.14-2.6 7.8.87 7.03 4.6.1 2.85-2.8 5.14-5.55 4.42-3.9-.92-4.8-6.9-1.48-9.02m1.46 1.38l-1.5 2.35c.67 1.4 1.14 3.05 2.68 3.76 2.74-1.33 1.77-4.37 1.04-6.6l-2.22.5zm5.44 7.6l3.58-10.17c4.35 1.23 3.93 6.82 5.63 10.23-2.97-1.72-6.2-1.78-9.2-.06M34 82.94c-.46 1.65.1 2.2 1.7 1.67.45-1.66-.12-2.22-1.7-1.67zm7.44-3.5c2.64-2.44 7.3.05 7.2 3.5-.14 2.1-.82 4.1-1.3 6.12-2.77-.45-5.55-1.1-7.78-2.92.37-2.27-.4-5.25 1.9-6.7m1.25 7.3l4.07-2.78c-.72-1.48-1.28-3.17-2.93-3.86-2.4 1.56-1.56 4.33-1.14 6.64zm6.86-8.2l2.18.18.15 7.84 2.82-.82c.52-2.32.47-4.72.6-7.08l2.1-.07c-.2 2.94.6 6.24-.94 8.92-2.08 1.67-4.62.45-6.85-.13l-.04-8.84zm9.27-.24l2.16.83c.36 3 .18 6.04.2 9.06l-2.43-.06.06-9.83zm3.47-.13c3.32.6 4.3 4.07 5.83 6.6l-.02-6.1 2.3.03v9.63l-3.3-.3-2.45-4.87-.13 5.07-2.23-.07.03-10zm12.62.03l2.12.97c.42 3 .18 6.02.18 9.03-.6 0-1.8-.01-2.4-.01l.1-10zm11.58.04c3.6-.36 3.88 3.25 4.82 5.72l1.6-5.27 3.35-.07-.02 10.08c-2.84-.52-2.37-3.57-2.86-5.72l-1.28 5.85c-2.3-1.24-2.8-3.84-3.5-6.1-.34 2.1.77 5.24-2 6.13-.22-3.53-.2-7.07-.1-10.6z"/><path d="M96.52 88.53c1.7-3.47 1.36-8.98 5.63-10.4l3.53 9.54c.14-3.03.2-6.06.23-9.08 2.73.06 5.46.15 8.2.4-1.6 1.5-3.8 1.62-5.85 1.87l-.01 1.22c1.72.35 3.67.32 4.98 1.7-1.97.5-4.47.17-5.66 2.2 1.78.45 3.8.14 5.42 1.07-2 2.2-6.25.73-9.14 1.12l-1.7-1.85-5.63 2.18m3.85-5.55c-.53 1.64.01 2.2 1.62 1.7.53-1.65-.01-2.2-1.62-1.7zm13.43 5.33c-.01-3.55 0-7.12.8-10.6 2.7 2.06 1.5 5.7 1.82 8.57 1.63.2 3.25.42 4.88.68-2.2 1.57-4.95 1.27-7.5 1.34zm10.4-10.18c3.23.77 4.07 4.17 5.47 6.7l.07-6.05 2.34-.2v9.6c-.78 0-2.34-.01-3.12-.01l-2.65-5.06.1 5.08-2.46-.04c.01-3.36.07-6.7.26-10.05zm18.62.63l2.37-.07.34 3.7 2.84-.2c.6-1.65 1-3.57 2.94-4.13.14 3.37.13 6.74.12 10.1l-2.22.01-.37-3.87-3.42-.08-.2 4.03-2.4-.08v-9.4zm13.28-.13l3.14.08 1.62 5.26 1.78-5.3 3.17.04.04 9.63-2.18-.2-.08-5.14c-1.07 1.75-.67 5.7-3.54 5.23-.66-1.68-1.13-3.43-1.6-5.17l-.35 5.14-2.05.01.06-9.57z"/><path d="M166.1 88.4l3.67-10.3c4.12 1.58 3.97 6.8 5.6 10.26-3-1.78-6.26-1.68-9.27.05m3.8-5.37c-.5 1.66.04 2.22 1.64 1.7.5-1.66-.05-2.23-1.64-1.7zm4.9-4.94c1.58.73 2.83 1.9 3.88 3.28 1.13-1.3 2.36-2.54 3.93-3.32-1.44 3.22-2.86 6.5-3.05 10.1-.45.02-1.33.04-1.77.05.05-3.63-1.6-6.87-3-10.1zm9.64 1.38c3-2.87 8.26.6 7.3 4.5.22 3.6-4.6 5.82-7.28 3.58-2.64-1.86-2.6-6.18-.03-8.1m.63 4.5c-.03 1.32 1.4 3.45 2.88 2.25 2.77-1.57.73-4.65-.26-6.67-1.15 1.26-3.16 2.4-2.62 4.42zM18.1 160.05c1.84-1.6 4.4-.54 6.54-.35l-.64 2.2-4.18-1.08c-.66 1.96-1.8 4.42.25 6l3.2-.36 1.56.2 2.58-7.38 2.65.15c1.07 3.22 2.12 6.46 2.96 9.76l-3.34-1.8-2.4-.26-1.16 1.6c-2.47-.1-5.07.43-7.45-.4-2.9-1.64-3.17-6.18-.58-8.25m9.85 3.46c-1.13.82.15 2.92 1.35 2 1.12-.83-.16-2.93-1.35-2zm5.66-4.46l2.64.34 2.96 6.1c.43-2.4-.8-5.85 2.13-7.08.36 3.37.4 6.76.43 10.15l-3.18.17-2.67-4.95-.1 4.87-2.33.2.13-9.8zm9.1.12c2.5.22 5.77-.62 7.52 1.7 1.2 2.33 1.14 5.88-1.25 7.47-2.04.5-4.17.33-6.25.4v-9.55m2.5 1.92l-.01 5.72 2.94.02a21.45 21.45 0 0 0 .01-5.66l-2.94-.08zm6.74-1.9l2.37.08-.03 9.3-2.28.2-.06-9.6zm3.58-.22c2.52.38 5.84-.32 7.58 2.04.8 1.82.63 3.96.07 5.83-1.72 2.5-5.1 1.7-7.66 2l.01-9.88m2.2 2.08l.05 6.2c3.58.01 3.78-3.43 3.03-6.1l-3.08-.1zm9.16-1.84l2.66.1 3.3 9.7c-1.6-.66-3.14-1.5-4.84-1.85-1.45.5-2.8 1.24-4.2 1.9.85-3.33 1.9-6.6 3.06-9.85m1.33 4.03c-1.43-.02-1.5 2.42-.05 2.43 1.44.02 1.5-2.42.05-2.43zm3.32-2.92c2.5-2.3 6.1-1.12 9.03-.62l-3.45 1.86.02 7.27-2.43-.44.16-6.9-3.33-1.18zm7.87 1.3c1.9-1.13 3.88-3.57 6.3-2.36 4.87 1.47 3.67 10.1-1.66 9.6-4.02.26-4.52-4.28-4.64-7.25m3.4-.92c-.4 2.05-1.35 4.42.27 6.2l3.23-.63-.1-4.45-3.4-1.13zm9.93-1.38l2.22-.27.02 9.72-2.23-.08-.01-9.37zm3.7-.45c3.37.2 4.27 3.7 5.74 6.1l.2-5.94 2.16.34.06 9.22-3.16.13-2.6-5.1-.16 5.1-2.25-.05.02-9.8zm9.23.17c2.3.3 4.98-.2 7 1.26 1.7 2.3 1.75 6.58-1.04 8.08-1.97.43-4 .32-6.02.38l.07-9.72m2.26 2.03l-.03 5.8 3.22-.17.06-5.4-3.25-.23zm6.84-1.95c2.12.43 4.8-.53 6.6.83-1.08 1.56-3.35 1.15-4.92 1.8l5.72 2.17c-2.03.6-4.2 1-5.8 2.48l5.52.96c-1.08 2.5-4.9.93-7.08 1.4l-.04-9.64z"/><path d="M122.86 159.86c1.22-1.45 6.65-.88 6.25 2.14.34 2.52-2.6 2.74-4.23 3.63l-.01 3.1-2.06-.6c-.5-2.73-.37-5.53.05-8.26m2.16 1.56c-.5 1.63.04 2.17 1.67 1.63.5-1.63-.05-2.17-1.67-1.63zm4.72-2.23l10.6.2 3.04 5.9.27-6.7 1.93 1.17c.52 3.05.13 6.16.13 9.24-3.26.36-4.3-2.67-5.56-4.98l-.26 4.6-10.3.07.14-9.5m2.28 2.25v1.35l4.2.16v1.9l-4.1-.03-.14 1.84 5.72.9.04-7.22-5.72 1.1zm14.77-2.32c2.14.18 4.43-.1 6.46.77 2.9 1.85 2.62 6.84-.32 8.55-2.02.34-4.08.3-6.12.36l-.02-9.68m2.54 1.53l-.03 6.68c2.07-.25 4.08-1.84 3.33-4.15-.05-1.8-2.06-1.88-3.3-2.53zm6.76-1.38l2.3.07-.02 9.38-2.3.04.01-9.5zm3.37.12c3.5-.13 7-.1 10.48-.1l3.35 6.25v-6.2c3.3 0 6.6-.2 9.85-.94l-.1 3.5-1.5-1.5c-.76 2.73-.9 5.57-.87 8.4l-2.17-.17.14-7.22-3.05-.33.05 7.7-3.3-.07-2.62-5.1-.2 5.1c-3.28-.03-6.57.05-9.85.12l-.2-9.4m2.38 2.02l-.01 1.06c1.73.4 3.8.4 4.76 2.2l-4.74.3-.02 1.73 5.54.85.02-7.15-5.55 1.02zm32.76-2.4c2.63.34 6.43-.5 7.82 2.5.74 2.36.66 5.78-2 6.9-1.9.4-3.88.3-5.8.4v-9.77m2.64 1.4l-.1 6.8 3.34-1.1c-.1-1.37-.1-2.76-.36-4.1l-2.9-1.58zm6.5-1.25l2.53-.03-.02 9.54-2.54-.03.03-9.48zm2.9 2.85c.5-1.02.87-2.97 2.37-2.8 5.54.01 11.1-.38 16.63.02 2.37-.3 2.57 2.7 3.8 3.97l-.12-4.02c3.67-.17 7.37-.28 11.02.36l-3.6 2.1.03 7.04-2.27-.03.08-7.47-3-.1.01 7.5-5.18.04-1.93-3.42-.58 4.06c-3.38-1.17-1.6-5.44-2.04-8.1l-2.7-.05c0 2.77-.02 5.53-.17 8.3-3.34-1.38-1.67-5.52-2.1-8.28-2.8.1-5.6.23-8.4.47 2.3 1.3 7.16 1.47 5.92 5.28-1 3.14-5.12 1.6-7.48 1.1l.9-2.07c1.66.4 3.33.75 5.02 1.05-1.8-2-5.05-2.37-6.24-4.9m17.63-.77c-.4 1.66.17 2.18 1.76 1.53.4-1.66-.18-2.17-1.76-1.53m4.16 2.03c-1.73.56-1.48 3.58.1 4.2 1.42-.58 1.3-3.6-.1-4.2zm13.86-4.04c3.76-1.73 7.37 2.6 6.1 6.2-.6 3.8-6.55 4.62-8.3 1.3-1.7-2.5-.72-6.4 2.18-7.5m.86 1.84c-2.35 1.4-1.4 7.07 1.8 5.67 2.33-1.56 1.1-7.07-1.8-5.67zm8.83-1.96l2.38.1 1.14 2.04c1.5-1.96 3.74-2.4 6.08-2.24l1.96 5.95 1.75-5.82 2.5.03c-1.03 3.18-2.1 6.34-3.27 9.47l-2.07-.05-3.05-8.54-2.28 3.83c.93 1.68 1.84 3.37 2.72 5.1-1.74-.3-3.08-1.37-4.2-2.66l-1.34 2.2-2.8.15 3.08-4.8-2.58-4.76zm-68.27 9.45l.23-9.65c2.46.44 5.77-.63 7.4 1.92l-5.2.26.01 1.64 4.2.05-.04 1.97c-1.4 0-2.8-.01-4.18-.01l.1 2.08 4.52-.1-.01 1.96-7.03-.1z"/></g><path d="M259.74 31.95c1.92-.2 3.87-.27 5.8-.13.52 3.6.78 7.26.85 10.9l-3.08-.33a42.61 42.61 0 0 0 .03 1.13l3.04.01c-.13 5.83.7 11.63.76 17.46.22 10.9.35 21.83 1.28 32.7-4.48-.35-8.93-1.2-13.43-1.23-17.5-.06-34.98.07-52.47-.06.55-1.17-.03-4.25 2.2-3.65h47.72l.13-1.4c.15-1.68.34-3.36.6-5.02l.48-3.1c-16.7-.9-33.48.73-50.2-.46l.07-3.4 50.77-.01c.6-4.55 1.35-9.1 1.56-13.68l4.36 1 1.4-8.88-4.38-.5c.9-1.02 1.8-2.05 2.78-3.03 2.53-.8 1.13-4.1-1.1-2.45l-.48-2.73-.32-1.95 3.32.5.37-1.35-3.36.65c.6-3.65 1.12-7.3 1.32-11m4.7 15.43c-1.7-.12-1.68 2.66 0 2.58 1.7.13 1.65-2.65 0-2.58m-.96 6.28c.54 5.52-1.62 10.83-1.4 16.36-.74 6.9.54 13.98-1.4 20.73l1.44 1.88c-.1-10.06.34-20.14.74-30.2l4 1.46c-.12-2.87.45-6-1.04-8.63l-2.32-1.6zM49.7 98.37l15.05-.02.04 29.8c-.1 1.7 1 3.1 1.77 4.53l3.7-1.57c.2-10.9.06-21.8.1-32.7 4.98-.07 9.97-.06 14.95.03L85.24 130c-.15 7.23-5.07 14.13-12.05 16.24-7.33 2.7-16.3-.4-20.4-7.04-2.5-3.52-2.95-8-3.03-12.18l-.04-28.65zm200.76.37c6.23-1.07 12.84.07 18.12 3.6 6.82 4.44 11.22 12.48 10.96 20.65.34 8.95-5.42 17.28-13.1 21.5-4.66 2.6-10.18 2.7-15.36 2.27-7.47-.8-13.86-5.93-17.56-12.28-3.88-7.03-3.9-16-.18-23.1 3.54-6.4 9.84-11.37 17.1-12.64m.88 15.34c-3.68 1.68-6.38 5.77-5.7 9.88.54 4.9 5.5 8.96 10.42 8.3 5.32-.48 9.5-6.03 8.43-11.28-1-5.76-7.82-9.38-13.14-6.9zM5.42 98.37l15.08-.01.06 16.94h8.68l-.05-16.9c5.08-.08 10.16-.05 15.24-.01l-.03 48.9-15.13.04-.04-16.94c-2.92-.04-5.84-.04-8.76 0l.04 16.92H5.43l-.01-48.9zm94.98.03c6.27-.1 12.53-.1 18.8.01l12.62 48.84c-4.94.01-9.87.05-14.8-.01-.6-1.1-.8-2.48-1.8-3.32-3.92-.4-7.87-.1-11.8-.12l-3.1 2.93-11.28-.03c.2-11.25 5.62-21.5 7.17-32.53 1.14-5.32 2.85-10.5 4.2-15.77m9.5 19.9l-2.84 10.3 4.9.12c-.77-3.45-1.57-6.9-2.06-10.4zm21.63 3.77c.1-12.07 10.48-22.96 22.54-23.58 9.25-.9 18.65 4.2 23.17 12.27 1.96 3.32 2.54 7.2 3.33 10.9l-14.94.01c-1.18-2.9-2.1-6.72-5.54-7.64-5.1-2.13-11.57.54-13.16 5.94-2.47 6.58 4.5 14.04 11.23 12.14 4.06-.9 6.3-4.7 7.55-8.33h14.8c-.7 6.3-3.1 12.6-7.95 16.86-6.3 6.15-16.2 8.12-24.44 5.25-9.94-3.2-17.1-13.37-16.6-23.82zm54.8 25.23l-.06-48.96 15.02.07.05 16.9h8.35c.14-5.64.12-11.28.04-16.92l15.43.03c-.17 16.3.4 32.63-.32 48.92-4.7-.17-9.4.12-14.1-.12l-.82-1c-.4-5.28.03-10.58-.18-15.87-2.83 0-5.65 0-8.47-.01l.01 16.96c-4.98 0-9.96-.03-14.94.02z" fill="#ed2392"/><path d="M255.84 61.68c.66-5.55 1-11.2 2.57-16.6l.48 2.73 1.1 2.45c-.97.98-1.87 2-2.78 3.03l4.38.5-1.4 8.88-4.36-1zm7.63-8.02l2.32 1.6c1.5 2.62.92 5.76 1.04 8.63l-4-1.46c-.4 10.06-.83 20.14-.74 30.2-.5-.62-.97-1.25-1.44-1.88 1.95-6.75.67-13.83 1.4-20.73-.2-5.53 1.95-10.84 1.4-16.36zM86.56 147.4c3.46-11 5.63-22.4 9.63-33.2-1.55 11.04-6.96 21.28-7.17 32.53l11.28.03 3.1-2.93-1.2 3.65-15.66-.07z" fill="#df77b3"/><g fill="#8da0b0"><path d="M4.5 75.37l192.9.02-.04 16.4c-64.27.01-128.56.2-192.83-.1V75.37m54.9.6c-1.24 1.33 1.15 2.8 2.07 1.44 1.23-1.34-1.16-2.78-2.07-1.44m20.08 2.27c-.57 1.37-2.15 2.7-1.3 4.3 1.62 1.58 3.9 2.15 5.85 3.24-1.67.6-3.33.1-4.94-.38l-.94 2.02c1.6.4 3.18.95 4.84 1 1.64-.27 3.63-2.15 2.5-3.86-1-2.28-3.97-2.44-5.88-3.62l5.94-.17c-1.15-2.38-3.86-2.22-6.1-2.54m57.06.3c-3.7.98-4.62 6.4-1.88 8.85 2.2 1.9 6.15 1.2 7.12-1.7 1.96-3.35-1.4-8.14-5.24-7.15m-118.22.13L18 86.84l-1.94-2.5-2.03.01.52 3.54c1.87.1 4.46 1.17 5.6-.95.5-2.75.35-5.57.4-8.35l-2.24.07m5.12.67c-3.3 2.13-2.42 8.1 1.48 9.02 2.75.72 5.65-1.57 5.55-4.42.77-3.73-3.9-7.2-7.03-4.6m6.9 8.98c3-1.72 6.24-1.66 9.2.06-1.7-3.4-1.28-9-5.63-10.23L30.32 88.3m11.1-8.9c-2.28 1.46-1.52 4.44-1.9 6.7 2.23 1.8 5 2.47 7.78 2.92.48-2.03 1.16-4.03 1.3-6.12.1-3.46-4.55-5.95-7.2-3.5m8.13-.9l.04 8.84c2.23.58 4.77 1.8 6.85.13 1.55-2.68.74-5.98.94-8.92l-2.1.07c-.12 2.36-.07 4.76-.6 7.08l-2.82.82-.15-7.84-2.18-.18m9.27-.24l-.06 9.83 2.43.06c-.03-3.02.15-6.06-.2-9.06l-2.16-.83m3.47-.13c-.1 3.33-.07 6.66-.03 10l2.23.07.13-5.07L67.04 88l3.3.3.02-9.63-2.3-.03.02 6.1c-1.52-2.52-2.5-5.98-5.83-6.6m12.62.03c-.1 3.33-.1 6.66-.1 10h2.4c0-3 .24-6.04-.18-9.03l-2.12-.97m11.6.04c-.08 3.54-.1 7.08.1 10.6 2.76-.9 1.65-4.03 2-6.13.72 2.27 1.22 4.87 3.5 6.1.48-1.94.9-3.9 1.28-5.85.5 2.15.02 5.2 2.86 5.72l.02-10.08-3.35.07-1.6 5.27c-.94-2.47-1.23-6.08-4.82-5.72m10 10.3l5.63-2.18 1.7 1.85c2.9-.4 7.15 1.08 9.14-1.12-1.62-.93-3.64-.62-5.42-1.07 1.2-2.04 3.7-1.7 5.66-2.2-1.3-1.38-3.26-1.35-4.98-1.7v-1.22c2.06-.25 4.24-.38 5.85-1.87-2.73-.26-5.46-.35-8.2-.4l-.23 9.08-3.53-9.54c-4.27 1.4-3.93 6.92-5.63 10.4m17.3-.25c2.54-.07 5.28.23 7.5-1.34-1.63-.26-3.25-.48-4.88-.68-.3-2.88.88-6.5-1.82-8.57-.8 3.47-.8 7.04-.8 10.6m10.44-10.2c-.2 3.34-.25 6.7-.26 10.05l2.46.04-.1-5.08 2.65 5.06 3.12.01a256.02 256.02 0 0 0 0-9.6l-2.34.2-.07 6.05c-1.4-2.54-2.24-5.94-5.47-6.7m18.63.62v9.4l2.4.08.2-4.03 3.42.08.37 3.87 2.22-.01-.12-10.1c-1.94.56-2.35 2.48-2.94 4.13l-2.84.2-.34-3.7-2.37.07m13.27-.14l-.06 9.57 2.05-.01.35-5.14c.48 1.74.95 3.5 1.6 5.17 2.87.48 2.47-3.48 3.54-5.23l.08 5.14c.54.06 1.64.16 2.18.2l-.04-9.63-3.17-.04-1.78 5.3-1.62-5.26-3.14-.08m10.02 9.8c3-1.73 6.27-1.83 9.27-.05-1.63-3.47-1.48-8.68-5.6-10.26l-3.67 10.3m8.7-10.3c1.4 3.23 3.04 6.47 3 10.1l1.77-.05c.2-3.58 1.6-6.87 3.05-10.1-1.57.78-2.8 2.02-3.93 3.32-1.05-1.37-2.3-2.55-3.88-3.28m9.63 1.38c-2.56 1.9-2.6 6.23.03 8.1 2.68 2.24 7.5.01 7.28-3.58.95-3.9-4.3-7.38-7.3-4.5zM24.88 80.72l2.22-.5c.73 2.24 1.7 5.28-1.04 6.6-1.54-.7-2-2.36-2.68-3.76l1.5-2.35zM185.07 84c-.54-2.03 1.47-3.16 2.62-4.42 1 2.02 3.03 5.1.26 6.67-1.47 1.2-2.9-.93-2.88-2.25zm-142.4 2.73c-.42-2.3-1.25-5.08 1.14-6.64 1.65.7 2.2 2.38 2.93 3.86l-4.07 2.78zm93.92.07c-1.42-2.3-1.1-4.86.26-7.1 2.7.95 2.93 3.48 2.87 5.94l-3.13 1.17zm67.12-4.7l49.44.23-.6 5.02a3445.72 3445.72 0 0 1-48.76-.01l-.1-5.24zm-169.74.84c1.6-.55 2.16.01 1.7 1.67-1.6.54-2.17-.02-1.7-1.67zm66.4.04c1.6-.5 2.15.05 1.62 1.7-1.6.5-2.15-.06-1.62-1.7zm69.55.05c1.6-.54 2.14.03 1.64 1.7-1.6.53-2.14-.03-1.64-1.7zM4.46 156.15l9.52-.35 265.26.05-.01 16.5-274.67.03-.1-16.23m13.65 3.9c-2.6 2.07-2.33 6.6.58 8.25 2.38.84 4.98.3 7.45.4l1.16-1.6 2.4.26 3.34 1.8c-.84-3.3-1.9-6.54-2.96-9.76l-2.65-.15-2.58 7.38-1.56-.2a42.89 42.89 0 0 1-3.2.36c-2.06-1.57-.9-4.03-.25-6l4.16 1.1.64-2.2c-2.13-.2-4.7-1.26-6.54.35m15.5-.97l-.13 9.8 2.33-.2.1-4.87 2.67 4.95 3.18-.17c-.02-3.4-.07-6.78-.43-10.15-2.92 1.23-1.7 4.68-2.13 7.08l-2.96-6.1-2.64-.34m9.08.13v9.55c2.08-.06 4.2.12 6.25-.4 2.4-1.6 2.44-5.14 1.25-7.47-1.75-2.3-5.02-1.47-7.52-1.7m9.27.04c-.1 3.2-.1 6.4.06 9.6l2.28-.2.03-9.3-2.37-.08m3.58-.22a180.8 180.8 0 0 0-.01 9.88c2.57-.32 5.94.5 7.66-2 .56-1.87.72-4-.07-5.83-1.74-2.36-5.06-1.66-7.58-2.04m11.35.23c-1.15 3.24-2.2 6.52-3.06 9.85 1.4-.66 2.74-1.4 4.2-1.9 1.7.36 3.25 1.2 4.84 1.85a335.64 335.64 0 0 0-3.31-9.7l-2.66-.1m4.64 1.1l3.33 1.18-.16 6.9 2.43.44-.02-7.27 3.45-1.86c-2.94-.5-6.54-1.67-9.03.62m7.87 1.3c.12 2.97.62 7.5 4.64 7.25 5.33.5 6.53-8.14 1.66-9.6-2.42-1.2-4.4 1.23-6.3 2.36m13.33-2.3v9.37l2.23.08c.08-3.24.08-6.48-.02-9.72l-2.22.27m3.7-.44l-.02 9.8 2.25.05.16-5.1 2.6 5.1 3.16-.13-.06-9.22-2.16-.34-.2 5.94c-1.47-2.4-2.37-5.9-5.74-6.1m9.23.16l-.07 9.72c2-.06 4.05.05 6.02-.38 2.8-1.5 2.75-5.77 1.04-8.08-2-1.46-4.68-.97-7-1.26m9.1.08l.04 9.64c2.2-.46 6 1.12 7.08-1.4-1.82-.46-3.7-.6-5.52-.96 1.6-1.47 3.77-1.9 5.8-2.48-1.93-.67-3.85-1.36-5.72-2.17 1.57-.66 3.84-.25 4.92-1.8-1.8-1.36-4.48-.4-6.6-.83m8.1.7c-.42 2.73-.55 5.53-.05 8.26l2.06.6.01-3.1c1.64-.9 4.57-1.1 4.23-3.63.4-3.02-5.03-3.6-6.25-2.14m6.88-.65c.22 3.17.05 6.34-.14 9.5l10.3-.07.26-4.6c1.26 2.3 2.3 5.34 5.56 4.98 0-3.08.4-6.2-.13-9.24l-1.93-1.17c-.13 2.23-.2 4.47-.27 6.7l-3.04-5.9-10.6-.2m17.04-.08l.02 9.68c2.04-.06 4.1-.02 6.12-.36 2.94-1.7 3.23-6.7.32-8.55-2.03-.88-4.32-.6-6.46-.77m9.3.15l-.01 9.5 2.3-.04.02-9.38-2.3-.07m3.37.12l.2 9.4 9.85-.12.2-5.1 2.62 5.1 3.3.07-.05-7.7 3.05.33-.14 7.22 2.17.17c-.03-2.82.1-5.66.87-8.4l1.5 1.5.1-3.5c-3.24.73-6.54.94-9.85.94v6.2l-3.35-6.25c-3.5.01-7-.03-10.48.1m35.14-.33v9.77c1.93-.1 3.9.01 5.8-.4 2.65-1.1 2.73-4.53 2-6.9-1.4-2.98-5.2-2.15-7.82-2.5m9.18.18l-.03 9.48 2.54.03.02-9.54-2.53.03m2.9 2.84c1.2 2.53 4.43 2.9 6.24 4.9-1.7-.3-3.36-.66-5.02-1.05L207 168c2.36.52 6.48 2.05 7.48-1.1 1.24-3.8-3.62-3.98-5.92-5.28 2.8-.24 5.6-.36 8.4-.47.44 2.76-1.23 6.9 2.1 8.28.15-2.76.17-5.52.17-8.3l2.7.05c.45 2.67-1.34 6.94 2.04 8.1l.58-4.06 1.93 3.42 5.18-.04-.01-7.5 3 .1-.08 7.47 2.27.03-.03-7.04 3.6-2.1c-3.65-.64-7.35-.53-11.02-.36l.12 4.02c-1.23-1.28-1.43-4.28-3.8-3.97-5.53-.4-11.1-.01-16.63-.02-1.5-.17-1.88 1.78-2.37 2.8m35.63-2.72c-2.9 1.1-3.87 5-2.18 7.5 1.74 3.32 7.7 2.5 8.3-1.3 1.26-3.6-2.35-7.92-6.1-6.2m9.66-.12l2.58 4.76-3.08 4.8 2.8-.15 1.34-2.2c1.13 1.3 2.47 2.36 4.2 2.66-.88-1.72-1.8-3.4-2.72-5.1l2.28-3.83 3.05 8.54 2.07.05c1.16-3.13 2.24-6.3 3.27-9.47l-2.5-.03-1.75 5.82-1.96-5.95c-2.34-.17-4.57.28-6.08 2.24l-1.14-2.04-2.38-.1m-68.27 9.44l7.03.1.01-1.96-4.52.1-.1-2.08h4.18l.04-1.97-4.2-.05-.01-1.64 5.2-.26c-1.62-2.55-4.93-1.48-7.4-1.92l-.23 9.65zm-138.53-7.5l2.94.08a21.45 21.45 0 0 1-.01 5.66l-2.94-.02v-5.72zm12.55-.03l3.08.1c.75 2.67.55 6.1-3.03 6.1l-.05-6.2z"/><path d="M82.8 160.74l3.4 1.13.1 4.45-3.23.63c-1.62-1.8-.66-4.16-.27-6.2zm25.12.36l3.25.23-.06 5.4-3.22.17.03-5.8zm17.1.32c1.62-.54 2.18 0 1.67 1.63-1.63.54-2.18 0-1.67-1.63zm7 .04l5.72-1.1-.04 7.22-5.72-.9.14-1.84 4.1.03v-1.9l-4.2-.16.01-1.35zm17.3-.8c1.24.65 3.25.72 3.3 2.53.75 2.3-1.26 3.9-3.33 4.15l.03-6.68zm12.5.76l5.55-1.02-.02 7.15-5.54-.85.02-1.73 4.74-.3c-.95-1.8-3.03-1.8-4.76-2.2l.01-1.06zm35.4-.95l2.9 1.58c.26 1.35.27 2.74.36 4.1l-3.34 1.1.1-6.8zm27.07.85c1.58-.64 2.17-.13 1.76 1.53-1.6.65-2.17.13-1.76-1.53zm18.87-.12c2.9-1.4 4.14 4.1 1.8 5.67-3.22 1.4-4.16-4.28-1.8-5.67zm-215.2 2.3c1.2-.94 2.47 1.16 1.35 2-1.2.93-2.48-1.17-1.35-2zm40.26-.2c1.46.01 1.4 2.45-.05 2.43-1.45-.01-1.38-2.45.05-2.43zm160.25.05c1.4.6 1.5 3.62.1 4.2-1.57-.62-1.82-3.64-.1-4.2z"/></g></svg>