<?xml version="1.0" encoding="UTF-8" ?>
<!DOCTYPE svg PUBLIC "-//W3C//DTD SVG 1.1//EN" "http://www.w3.org/Graphics/SVG/1.1/DTD/svg11.dtd">
<svg width="827pt" height="830pt" viewBox="0 0 827 830" version="1.1" xmlns="http://www.w3.org/2000/svg">
<g id="#ffffffff">
</g>
<g id="#1d4288ff">
<path fill="#1d4288" opacity="1.00" d=" M 373.75 53.73 C 392.65 35.31 426.29 35.31 445.05 53.96 C 450.60 59.21 453.83 66.34 456.08 73.53 C 461.42 73.44 466.77 73.50 472.11 73.53 C 472.03 77.79 472.04 82.06 472.12 86.33 C 467.24 86.36 462.36 86.43 457.48 86.42 C 457.52 98.81 457.55 111.20 457.47 123.58 C 462.36 123.61 467.26 123.67 472.16 123.71 C 472.06 127.97 472.06 132.22 472.16 136.47 C 467.12 136.49 462.08 136.48 457.04 136.46 C 460.25 158.91 464.16 181.25 467.75 203.64 C 472.94 236.24 478.19 268.84 483.58 301.41 C 466.46 294.37 448.79 288.49 430.63 284.76 C 418.50 282.21 405.93 283.25 393.96 286.17 C 375.14 290.47 356.59 296.04 338.43 302.59 C 343.22 268.00 347.32 233.31 351.94 198.69 C 354.47 177.95 357.37 157.27 359.82 136.53 C 355.20 136.48 350.58 136.49 345.97 136.52 C 345.98 132.23 345.84 127.94 345.59 123.65 C 350.57 123.63 355.55 123.65 360.54 123.63 C 360.59 111.21 360.50 98.79 360.59 86.37 C 355.64 86.36 350.68 86.40 345.73 86.39 C 345.84 82.11 345.87 77.82 345.83 73.53 C 351.39 73.52 356.95 73.44 362.51 73.50 C 364.72 66.19 368.12 59.04 373.75 53.73 M 373.15 86.33 C 373.36 98.78 372.53 111.22 373.18 123.65 C 397.03 123.64 420.89 123.65 444.74 123.64 C 444.72 111.22 444.77 98.80 444.71 86.38 C 420.86 86.29 397.00 86.38 373.15 86.33 Z" />
<path fill="#1d4288" opacity="1.00" d=" M 336.38 319.75 C 355.26 321.32 374.08 323.71 393.00 324.82 C 424.23 327.63 455.46 323.19 486.40 319.32 C 487.92 329.51 490.01 339.62 491.01 349.89 C 471.18 349.63 450.99 350.10 431.84 355.87 C 413.70 361.30 397.07 370.66 379.25 377.00 C 362.68 382.88 345.33 386.86 327.75 387.87 C 330.43 365.14 333.55 342.46 336.38 319.75 Z" />
<path fill="#1d4288" opacity="1.00" d=" M 292.66 733.72 C 299.87 727.81 310.32 727.13 318.91 730.08 C 327.08 733.17 332.17 741.33 333.32 749.75 C 328.85 750.39 324.37 750.98 319.90 751.65 C 318.44 747.93 317.22 743.53 313.50 741.43 C 309.64 739.49 304.34 740.13 301.55 743.61 C 297.23 748.68 297.03 755.74 297.14 762.07 C 297.15 767.57 298.24 773.61 302.41 777.55 C 305.65 780.70 310.96 781.16 314.77 778.77 C 318.16 777.16 318.79 773.15 319.89 769.98 C 315.80 769.74 311.71 769.65 307.62 769.59 C 307.84 765.79 307.84 761.99 307.63 758.20 C 316.22 757.62 324.84 757.64 333.42 758.25 C 333.42 769.28 333.48 780.31 333.42 791.33 C 331.21 791.34 329.00 791.35 326.80 791.38 C 326.14 789.10 325.49 786.83 324.88 784.55 C 321.49 787.41 317.89 790.28 313.52 791.44 C 304.41 793.83 293.57 790.80 288.22 782.74 C 282.03 774.30 281.57 763.28 282.65 753.26 C 283.81 745.95 286.98 738.64 292.66 733.72 Z" />
<path fill="#1d4288" opacity="1.00" d=" M 404.54 729.42 C 409.48 729.48 414.43 729.51 419.37 729.21 C 419.41 749.90 419.31 770.60 419.43 791.29 C 414.46 791.24 409.50 791.23 404.54 791.26 C 404.68 770.65 404.68 750.03 404.54 729.42 Z" />
<path fill="#1d4288" opacity="1.00" d=" M 243.86 729.53 C 249.70 729.44 255.53 729.42 261.37 729.46 C 267.42 750.16 274.46 770.56 280.44 791.29 C 275.24 791.27 270.04 791.25 264.84 791.33 C 263.56 787.11 262.19 782.92 260.82 778.73 C 254.57 778.76 248.27 778.06 242.05 778.85 C 239.34 782.44 238.70 787.06 237.46 791.29 C 233.20 791.22 228.93 791.23 224.68 791.34 C 230.49 770.56 238.24 750.36 243.86 729.53 M 251.05 745.95 C 249.09 752.91 246.83 759.78 245.01 766.78 C 249.11 766.73 253.20 766.75 257.30 766.80 C 255.65 759.72 253.36 752.83 251.05 745.95 Z" />
<path fill="#1d4288" opacity="1.00" d=" M 343.92 729.38 C 349.22 729.47 354.52 729.47 359.82 729.36 C 359.68 741.92 359.78 754.48 359.71 767.04 C 359.87 770.83 359.62 775.44 362.88 778.09 C 367.01 781.21 373.13 780.94 377.47 778.36 C 380.82 776.13 380.53 771.61 380.71 768.07 C 380.64 755.18 380.69 742.29 380.69 729.40 C 384.91 729.50 389.14 729.50 393.37 729.43 C 393.33 742.97 393.43 756.50 393.36 770.04 C 393.16 775.66 392.57 782.11 388.05 786.06 C 382.16 791.52 373.63 792.49 365.94 792.17 C 359.93 791.85 353.37 790.53 349.20 785.81 C 344.44 780.84 343.92 773.56 343.85 767.05 C 343.87 754.49 343.79 741.94 343.92 729.38 Z" />
<path fill="#1d4288" opacity="1.00" d=" M 431.44 729.37 C 441.65 729.49 451.87 729.23 462.08 729.46 C 466.96 729.58 472.20 730.65 475.80 734.20 C 481.27 739.70 483.15 748.78 479.67 755.82 C 477.83 759.60 474.28 762.04 470.99 764.46 C 474.48 773.45 478.65 782.16 481.89 791.25 C 476.57 791.26 471.25 791.29 465.93 791.39 C 462.60 783.45 460.21 775.09 456.33 767.42 C 453.13 766.32 449.66 766.79 446.34 766.64 C 446.50 774.88 446.30 783.11 446.39 791.35 C 441.43 791.26 436.48 791.23 431.53 791.38 C 431.37 770.71 431.54 750.04 431.44 729.37 M 446.25 740.56 C 446.45 745.73 446.42 750.91 446.26 756.09 C 451.56 756.06 457.12 756.92 462.20 754.99 C 467.52 752.73 467.80 743.73 462.26 741.54 C 457.12 739.78 451.57 740.73 446.25 740.56 Z" />
<path fill="#1d4288" opacity="1.00" d=" M 492.30 729.39 C 502.52 729.49 512.75 729.17 522.97 729.49 C 528.31 729.67 534.13 731.05 537.67 735.38 C 541.86 740.48 543.68 747.86 541.28 754.15 C 539.78 758.11 536.24 760.65 533.37 763.56 C 531.55 764.79 533.05 767.04 533.46 768.66 C 536.58 776.19 540.02 783.60 542.74 791.30 C 537.44 791.30 532.15 791.24 526.86 791.37 C 523.65 783.11 520.46 774.86 517.09 766.68 C 513.81 766.88 510.53 766.89 507.26 766.71 C 507.37 774.94 507.20 783.18 507.30 791.43 C 502.31 791.22 497.31 791.19 492.32 791.37 C 492.38 770.71 492.42 750.05 492.30 729.39 M 507.28 740.44 C 507.35 745.65 507.34 750.86 507.26 756.07 C 512.29 756.11 517.48 756.74 522.37 755.25 C 528.25 753.43 528.65 743.40 522.73 741.37 C 517.74 739.82 512.41 740.77 507.28 740.44 Z" />
<path fill="#1d4288" opacity="1.00" d=" M 553.27 729.37 C 568.02 729.37 582.77 729.42 597.51 729.38 C 597.40 733.38 597.40 737.39 597.52 741.40 C 587.71 741.27 577.90 741.48 568.09 741.35 C 568.26 745.49 568.27 749.63 568.11 753.77 C 575.87 753.58 583.63 753.81 591.39 753.70 C 591.22 757.67 591.20 761.65 591.35 765.62 C 583.59 765.48 575.83 765.73 568.08 765.61 C 568.23 769.99 568.24 774.37 568.09 778.75 C 577.89 778.62 587.69 778.82 597.49 778.73 C 597.41 782.95 597.43 787.18 597.55 791.41 C 582.79 791.18 568.02 791.29 553.26 791.35 C 553.27 770.69 553.25 750.03 553.27 729.37 Z" />
</g>
<g id="#f25d40ff">
<path fill="#f25d40" opacity="1.00" d=" M 479.14 134.85 C 495.64 138.86 511.47 145.46 526.42 153.47 C 558.05 169.76 585.47 193.79 606.98 222.05 C 638.13 263.14 655.51 314.42 655.57 366.00 C 655.75 373.31 655.35 380.61 654.29 387.85 C 641.76 387.77 629.46 385.25 617.20 382.99 C 611.93 381.95 606.80 380.34 601.60 379.02 C 601.64 367.15 601.97 355.22 600.32 343.43 C 598.63 331.16 596.42 318.82 591.80 307.26 C 587.53 296.99 584.15 286.29 578.36 276.72 C 569.54 261.98 559.83 247.55 547.30 235.66 C 540.06 228.94 533.41 221.49 525.29 215.77 C 516.59 209.56 507.58 203.69 497.84 199.22 C 495.34 197.82 492.19 196.77 490.87 194.02 C 489.20 189.86 488.78 185.34 487.89 180.97 C 485.19 165.56 481.27 150.36 479.14 134.85 Z" />
<path fill="#f25d40" opacity="1.00" d=" M 312.96 147.83 C 321.73 143.97 330.49 139.89 339.86 137.66 C 339.15 147.60 336.54 157.26 335.24 167.12 C 333.47 176.46 332.35 185.92 330.48 195.23 C 329.97 199.63 325.66 201.54 322.26 203.45 C 265.67 234.25 227.81 296.53 226.51 360.95 C 226.44 365.73 226.45 370.51 226.35 375.29 C 214.10 371.84 202.95 365.55 191.13 360.98 C 185.22 358.74 179.25 356.68 173.27 354.62 C 173.34 347.67 173.46 340.68 174.82 333.83 C 178.94 304.21 188.66 275.40 203.23 249.29 C 211.40 235.48 220.31 222.04 230.92 209.96 C 243.99 194.99 258.53 181.18 274.89 169.85 C 286.98 161.54 299.56 153.86 312.96 147.83 Z" />
<path fill="#f25d40" opacity="1.00" d=" M 503.12 254.85 C 514.24 263.00 523.57 273.38 531.49 284.61 C 547.42 307.31 556.97 334.68 557.42 362.49 C 551.54 360.93 545.75 359.05 539.92 357.31 C 536.02 356.11 531.88 355.64 528.19 353.86 C 526.66 353.20 526.36 351.42 525.90 350.02 C 524.56 344.86 523.97 339.52 522.40 334.42 C 519.91 325.60 514.90 317.67 513.14 308.62 C 510.35 294.74 507.72 280.83 504.91 266.96 C 504.14 262.95 503.58 258.91 503.12 254.85 Z" />
<path fill="#f25d40" opacity="1.00" d=" M 296.99 284.06 C 303.23 275.33 310.14 266.91 318.64 260.27 C 318.56 270.69 315.72 280.78 314.30 291.04 C 312.05 302.65 310.64 314.41 308.08 325.96 C 305.37 336.17 301.71 346.29 301.47 356.97 C 301.24 367.63 299.91 378.23 297.69 388.65 C 289.12 388.80 280.60 388.07 272.09 387.13 C 266.31 351.29 276.05 313.55 296.99 284.06 Z" />
<path fill="#f25d40" opacity="1.00" d=" M 398.43 652.44 C 400.33 652.43 402.24 652.41 404.15 652.41 C 403.07 658.14 401.37 663.72 399.27 669.16 C 395.35 680.89 391.13 692.52 387.54 704.35 C 386.47 707.58 385.51 710.95 383.47 713.73 C 381.17 714.27 378.78 714.13 376.44 714.16 C 372.82 702.90 369.10 691.67 365.30 680.47 C 362.31 671.20 358.63 662.15 356.58 652.60 C 358.84 652.49 361.11 652.40 363.38 652.31 C 368.93 665.70 373.09 679.62 377.79 693.33 C 378.88 696.06 380.16 698.71 381.33 701.41 C 387.68 685.32 391.88 668.46 398.43 652.44 Z" />
<path fill="#f25d40" opacity="1.00" d=" M 559.31 652.33 C 568.13 652.52 576.96 652.15 585.78 652.43 C 590.65 652.50 595.60 654.48 598.68 658.35 C 602.69 663.05 603.76 669.85 601.88 675.66 C 600.10 680.38 595.86 683.45 592.01 686.40 C 595.29 695.68 599.69 704.51 603.22 713.69 C 600.94 713.83 598.64 714.37 596.37 713.95 C 594.71 712.76 593.86 710.82 593.03 709.04 C 590.50 703.11 588.68 696.89 585.69 691.17 C 584.83 689.71 583.89 687.86 581.97 687.76 C 576.87 687.10 571.72 687.63 566.61 687.67 C 566.56 696.36 566.40 705.04 566.51 713.73 C 564.12 713.74 561.73 713.78 559.35 713.84 C 559.14 704.22 559.46 694.60 558.85 685.00 C 558.31 674.10 559.52 663.23 559.31 652.33 M 566.48 659.49 C 566.48 666.55 566.50 673.61 566.47 680.68 C 573.44 680.49 580.51 681.45 587.42 680.17 C 594.50 678.72 596.58 669.33 593.32 663.67 C 591.70 660.68 588.16 659.65 584.99 659.47 C 578.82 659.12 572.65 659.53 566.48 659.49 Z" />
<path fill="#f25d40" opacity="1.00" d=" M 248.48 652.49 C 251.01 652.47 253.55 652.47 256.09 652.48 C 256.36 666.66 256.20 680.86 256.23 695.05 C 256.26 701.13 255.24 708.13 249.96 711.97 C 243.77 716.47 235.70 715.67 228.59 714.52 C 228.51 712.49 228.43 710.46 228.34 708.44 C 233.69 708.36 239.56 709.26 244.42 706.47 C 248.01 704.32 248.30 699.75 248.39 696.02 C 248.47 681.51 248.24 667.00 248.48 652.49 Z" />
<path fill="#f25d40" opacity="1.00" d=" M 290.16 701.42 C 295.91 685.06 300.47 668.29 306.64 652.07 C 309.29 652.37 312.02 652.27 314.57 653.14 C 317.74 658.09 318.73 664.03 320.62 669.52 C 325.07 684.62 331.38 699.16 334.69 714.59 C 332.33 714.26 329.91 714.15 327.62 713.44 C 324.48 708.15 323.23 701.97 320.95 696.29 C 313.38 696.31 305.81 696.28 298.25 696.38 C 296.69 701.36 295.41 706.46 293.32 711.26 C 292.45 713.99 289.15 713.90 286.90 714.74 C 287.58 710.21 288.57 705.72 290.16 701.42 M 300.31 689.76 C 306.51 690.49 312.78 690.45 318.98 689.64 C 316.35 680.16 313.29 670.80 309.92 661.56 C 306.56 670.90 304.03 680.54 300.31 689.76 Z" />
<path fill="#f25d40" opacity="1.00" d=" M 436.64 652.29 C 438.77 652.37 440.93 652.39 443.05 652.72 C 445.00 654.57 444.50 657.52 444.72 659.95 C 444.54 677.85 444.76 695.74 444.56 713.64 C 442.16 713.64 439.76 713.63 437.37 713.63 C 437.03 693.18 437.79 672.72 436.64 652.29 Z" />
<path fill="#f25d40" opacity="1.00" d=" M 484.77 654.08 C 486.31 651.69 489.56 652.60 491.96 652.29 C 501.32 652.51 510.70 652.05 520.05 652.50 C 523.75 652.19 523.25 656.75 523.75 659.19 C 513.29 659.60 502.83 659.33 492.37 659.43 C 492.28 665.82 492.33 672.21 492.40 678.60 C 500.39 678.51 508.37 678.74 516.36 678.59 C 516.51 680.60 516.66 682.62 516.82 684.64 C 508.71 685.53 500.54 685.43 492.39 685.34 C 492.26 692.71 492.29 700.08 492.39 707.45 C 502.81 707.27 513.24 707.35 523.66 707.41 C 523.65 709.45 523.65 711.49 523.66 713.55 C 510.67 714.76 497.60 714.40 484.58 714.07 C 484.06 698.05 484.52 682.03 484.32 666.01 C 484.35 662.03 484.02 658.00 484.77 654.08 Z" />
</g>
<g id="#01a39aff">
<path fill="#01a39a" opacity="1.00" d=" M 437.95 376.83 C 450.73 373.85 463.87 372.36 477.00 372.52 C 500.52 372.21 524.35 374.50 546.76 381.98 C 562.96 387.03 578.34 394.36 594.52 399.49 C 613.32 405.64 632.92 408.97 652.59 410.76 C 649.39 427.89 645.06 445.03 637.42 460.78 C 617.78 458.20 598.56 453.03 580.04 446.06 C 564.07 440.17 548.42 433.11 531.71 429.48 C 509.52 424.25 486.51 423.56 463.83 424.66 C 445.23 425.64 427.07 430.66 410.11 438.21 C 393.05 445.89 375.86 453.71 357.48 457.68 C 333.72 462.98 309.15 464.45 284.90 462.60 C 261.23 461.25 237.83 455.61 216.12 446.10 C 206.71 442.24 197.63 437.56 188.02 434.20 C 185.60 433.26 183.06 432.48 180.90 431.00 C 179.13 428.99 178.74 426.18 178.02 423.69 C 174.57 408.40 172.06 392.84 171.61 377.14 C 189.76 381.50 206.16 390.71 223.46 397.43 C 249.88 408.08 278.64 411.97 307.00 411.57 C 333.68 411.49 360.60 407.34 385.40 397.23 C 402.91 390.42 419.56 381.19 437.95 376.83 Z" />
<path fill="#01a39a" opacity="1.00" d=" M 432.06 446.87 C 451.16 441.29 471.28 440.50 491.04 441.29 C 511.13 441.66 531.28 444.82 550.24 451.58 C 566.83 457.13 582.72 464.66 599.59 469.41 C 609.62 472.60 620.00 474.38 630.23 476.76 C 622.53 492.86 612.39 507.74 600.98 521.42 C 582.02 516.25 564.27 507.59 545.57 501.64 C 522.20 494.11 497.42 492.20 473.00 492.61 C 456.39 493.08 439.69 495.40 424.04 501.14 C 406.67 507.35 390.44 516.39 372.79 521.88 C 350.67 529.16 327.22 531.82 304.00 531.62 C 279.75 531.93 255.31 528.70 232.30 520.88 C 228.33 519.56 224.13 518.05 221.47 514.62 C 210.64 500.81 201.73 485.57 194.17 469.75 C 191.26 463.63 188.64 457.35 186.90 450.78 C 200.81 455.32 213.64 462.55 227.44 467.37 C 241.93 472.77 257.06 476.39 272.41 478.24 C 287.76 480.36 303.29 479.91 318.74 479.69 C 338.13 478.72 357.56 475.58 375.90 469.05 C 395.01 462.66 412.54 452.16 432.06 446.87 Z" />
<path fill="#01a39a" opacity="1.00" d=" M 435.27 517.04 C 455.69 511.48 477.05 511.66 498.03 512.49 C 515.74 513.64 533.44 516.64 550.21 522.58 C 562.62 526.95 574.81 531.92 587.13 536.54 C 576.47 548.22 563.82 557.85 551.14 567.20 C 548.42 568.91 545.74 571.51 542.34 571.43 C 536.94 570.64 531.80 568.61 526.41 567.74 C 502.27 563.23 477.42 562.37 453.02 565.19 C 435.94 567.19 419.68 573.21 404.15 580.37 C 386.73 588.40 368.65 595.37 349.72 598.86 C 344.33 599.96 339.05 597.85 334.05 596.10 C 318.71 590.46 303.73 583.71 289.69 575.32 C 275.97 566.64 262.26 557.60 250.83 545.97 C 264.48 548.03 278.13 550.64 291.98 550.68 C 302.95 550.72 313.92 550.91 324.88 550.41 C 345.92 548.77 366.85 544.41 386.40 536.36 C 402.67 529.88 418.20 521.36 435.27 517.04 Z" />
</g>
</svg>
