<?xml version="1.0" encoding="utf-8"?>
<!-- Generator: Adobe Illustrator 21.0.0, SVG Export Plug-In . SVG Version: 6.00 Build 0)  -->
<svg version="1.2" baseProfile="tiny" id="Capa_1" xmlns="http://www.w3.org/2000/svg" xmlns:xlink="http://www.w3.org/1999/xlink"
	 x="0px" y="0px" width="436.8px" height="505.1px" viewBox="0 0 436.8 505.1" xml:space="preserve">
<path fill="#FBFAFB" d="M384.8,483.5c0.5,0.3,0.8,0.1,1-0.3c2.8-0.9,5-2.6,6.4-5.2c1.5-1.6,2.1-3.5,2-5.7c0.3-0.7,0.3-1.6,0-2.3
	c0.2-1.8-0.3-3.4-1.4-4.8c-1.1-2.4-2.7-4.4-5.1-5.5c-0.4-0.7-1-1.1-1.9-0.9l-1.2-0.3c-2.8-1-5.3-0.5-7.7,1.2
	c-2.8,1.6-4.8,3.8-5.6,6.9c-0.4,0.2-0.7,0.5-0.4,1c-0.3,0.5-0.4,1.1-0.3,1.8c-0.5,1-0.5,2,0,3.1l0.3,1.8c-0.1,1,0.2,1.8,0.9,2.4
	c1.2,3.4,3.7,5.4,7,6.5c0.2,0.4,0.5,0.6,1,0.3C381.4,483.9,383.1,484,384.8,483.5L384.8,483.5z M262.9,171.4l2.3-2.2l34.5-30.9
	c1.3-1.2,1.5-2,0.5-3.5c-16.7-25.8-39.6-42.6-70-48.1c-28.5-5.2-54.9,0.7-78,18c-32.3,24.2-46.8,57.2-44.6,97.4
	c1.3,24,10,45.5,25.5,63.8c19.5,23,44.3,35.8,74.5,37.2c24.9,1.2,47.3-6.2,67-21.4c14.1-10.9,24.8-24.6,32.2-40.8
	c0.5-1.1,1-2-0.6-2.9l-40.3-24.1c-1.2-0.7-1.7-0.6-2.2,0.7c-1.7,4.3-4.1,8.1-6.9,11.7c-17.6,23.2-52.9,26.5-74.6,7.1
	c-21.3-19.1-24.3-49.9-6.3-72.1c13.4-16.4,31.1-22.4,51.9-17.9C243.9,146.9,255.4,156.8,262.9,171.4L262.9,171.4z M308.8,422.2
	v-22.6c0-2.2-0.7-3.3-3-3.2c-2.2,0.1-4.3,0-6.5,0c-2.8,0-3.3,0.5-3.2,3.4l0.3,15.1c0,1.3,0.7,3.4-0.7,3.6c-1.7,0.3-1.6-2-2.1-3.3
	l-6-16.4c-0.5-1.5-1.4-2.5-3.1-2.5h-8.2c-1.6,0-2.5,0.8-2.5,2.5c0.1,1.3,0.1,2.6,0.1,3.8v41.5c0,2.9,0.4,3.2,3.2,3.2
	c2.4,0,4.8-0.1,7.2,0c1.8,0.1,2.4-0.7,2.4-2.4c-0.1-3.6-0.1-7.2-0.1-10.8c0-1.1-0.7-3,0.5-3.2c1.5-0.3,1.8,1.7,2.4,2.8l5.6,11.4
	c0.7,1.5,1.7,2.3,3.6,2.2c2.5-0.1,5-0.2,7.4,0c2.2,0.1,2.8-0.8,2.7-2.8L308.8,422.2L308.8,422.2z M170.8,422.1v-22.3
	c0-2.8-0.7-3.6-3.6-3.3c-2,0.2-4,0.3-6,0c-2.6-0.4-3.5,0.8-3.4,3.5c0.2,5.8,0.2,11.7,0.3,17.5c0,0.5,0,1-0.5,1.2
	c-0.6,0.2-0.9-0.2-1.2-0.6c-0.3-0.5-0.7-1.1-0.9-1.7c-1.8-5.9-4.2-11.6-6.2-17.4c-0.7-2.1-2-2.8-4-2.5c-2.2,0.3-4.4,0.3-6.7,0
	c-2.1-0.2-3.2,0.9-2.9,3s0.2,4.2,0.2,6.2v38.9c0,2.1,0.6,3.1,2.9,2.9c1.9-0.2,3.8,0,5.8,0c4,0,4.2-0.1,4.1-4.2l-0.3-9.8
	c0-0.8-0.3-2,0.9-2.1c1-0.2,1.2,0.9,1.5,1.6l6,12.3c0.8,1.7,2,2.5,4,2.4c2.2-0.2,4.5-0.1,6.7,0c2.8,0,3.3-0.4,3.3-3.3L170.8,422.1
	L170.8,422.1z M82.9,422.2c-0.9,12.5,11.1,24.9,24.6,24.9c14.6,0,25.6-12.6,25.4-25.1c-0.3-14.1-11-24.8-25-25.1
	C93.4,396.7,82,409.5,82.9,422.2L82.9,422.2z M332.9,447.6H349c2,0,3-0.7,2.9-2.8c-0.1-2.8-0.1-5.6,0-8.4c0.1-2-0.7-2.7-2.7-2.6
	l-14.6,0.1c-0.6,0-1.4,0.2-1.7-0.5c-0.4-0.8,0.2-1.3,0.7-1.9c4.6-5.2,9-10.6,13.8-15.6c3.4-3.6,5.4-7.3,4.6-12.4
	c-0.2-1.3-0.1-2.7,0-4.1c0.1-2.1-0.7-3-2.9-3h-31.7c-2.3,0-3.3,0.9-3,3.2c0.3,2.6,0.4,5.1,0,7.6c-0.3,2.1,0.9,3.3,2.9,3.1
	c4.6-0.5,9.3-0.1,13.9-0.3c0.8,0,1.9-0.4,2.4,0.6c0.5,1.1-0.5,1.7-1.1,2.4l-16.8,19.3c-0.8,0.9-1.5,2-1.3,3.3c0.4,3,0.2,5.9,0,8.8
	c-0.2,2.1,0.8,3,3,3L332.9,447.6L332.9,447.6z M264.7,447.8h4.3c1.5,0,2.2-0.7,1.7-2.3l-4.4-14.4l-9.2-29.7
	c-1.4-4.5-1.6-4.9-6.4-4.9c-0.8,0-1.6,0.1-2.4,0c-1.9-0.3-2.9,0.7-3.4,2.3l-3.6,11.6l-10.8,34.5c-0.6,2,0.1,2.8,2.2,2.9
	c2.2,0,4.5-0.2,6.7,0c2.5,0.2,3.5-0.9,4.3-3.1c0.7-2.1,0-4.9,2.2-6.1c1.9-1.1,4.4-0.3,6.6-0.4c3.6-0.1,3.8,0,4.5,3.5
	C258.4,449.2,258.8,447.6,264.7,447.8z M178.4,422.2v22.3c0,2.9,0.3,3.3,3.3,3.3h5.3c4.3,0,4.4-0.1,4.3-4.2l-0.1-12.2
	c0-2,0.7-2.7,2.7-2.7c3.6,0.1,7.2,0,10.8,0.1c1.7,0,2.5-0.7,2.5-2.4c-0.1-2.6-0.1-5.3,0-7.9c0.1-2-0.8-2.7-2.7-2.7
	c-3.1,0.1-6.2,0-9.4,0c-3.6,0-3.9-0.2-3.9-2.9c0-3.1,0.2-3.3,3.7-3.3h12.5c2.5,0,3.2-0.7,2.9-3.2c-0.2-2.2-0.3-4.5,0-6.7
	c0.3-2.4-0.4-3.2-2.9-3.2h-26.2c-2.1,0-3,0.7-3,2.9C178.5,407,178.4,414.6,178.4,422.2L178.4,422.2z M67.2,396.9h-2.9
	c-0.3,0-0.6,0.1-1,0.1c-10.6,1.8-17.7,7.9-20.7,18c-3.2,10.9,0.1,20.2,9,27.3c9,7.2,22.8,6.9,31.3-0.4c1.4-1.2,1.7-2.2,0.3-3.5
	c-1.9-1.8-3.8-3.7-5.6-5.6c-1.2-1.2-2.2-1.1-3.5-0.1c-4,2.9-8.3,3.1-12.7,0.9c-4.2-2.2-6.9-5.7-7.1-10.6c-0.3-5.5,2.4-9.4,7-11.9
	c4.4-2.5,8.9-2.1,13,0.9c1.1,0.8,2.1,1.1,3.1,0c2-2.1,4.1-4.1,6.1-6.1c1-1.1,1-2.1-0.2-3.1C78.6,398.9,73.3,396.6,67.2,396.9
	L67.2,396.9z M360.9,447.3c1,0,2.1-0.1,3.1,0c2.2,0.3,3.3-0.7,3.7-2.8c0.3-1.5,0.7-3,1-4.4c0.3-1.6,1.3-2.5,3-2.4
	c2.2,0.1,4.5,0.1,6.7,0c1.7-0.1,2.7,0.7,3.1,2.4c0.3,1.5,0.8,2.9,1.1,4.4c0.4,2,1.5,3,3.7,2.9c2.1-0.2,4.2-0.1,6.2,0
	c2.5,0,2.9-0.6,2.2-3.1l-13-40.9c-2-6.3-2-6.2-8.4-6.4c-2.1-0.1-3,0.7-3.6,2.6l-6.9,22.7l-7.1,22.4c-0.6,1.9-0.1,2.7,1.9,2.7
	C358.7,447.3,359.8,447.3,360.9,447.3L360.9,447.3z M214.5,421.7v22.8c0,2.8,0.5,3.3,3.4,3.3h6c3.2,0,3.8-0.4,3.8-3.7l0.1-45.1
	c0-1.8-0.8-2.6-2.7-2.6c-2.6,0.1-5.1,0.1-7.7,0c-2.2-0.1-3,0.7-3,2.9C214.6,406.8,214.5,414.3,214.5,421.7L214.5,421.7z
	 M192.9,470.9v10.5c0,1.8,0.8,2.4,2.5,2.4s2.8-0.3,2.8-2.3c-0.1-3.1-0.1-6.2-0.1-9.3c0-0.9-0.6-2.1,0.6-2.5c1.1-0.4,1.5,0.9,2.1,1.6
	l8.6,10.9c1.2,1.6,2.8,2.2,4.6,1.6c1.7-0.6,1.2-2.2,1.2-3.5l-0.2-18.9c0-2-0.5-3.2-2.7-3.2c-2.4,0-2.6,1.5-2.5,3.4l0.2,9.8
	c0,0.6,0.2,1.3-0.6,1.6c-0.7,0.3-1.2-0.3-1.6-0.7c-0.3-0.3-0.5-0.6-0.7-0.9l-9-11.5c-1-1.3-2.2-1.9-3.8-1.5
	c-1.6,0.5-1.4,1.9-1.4,3.2L192.9,470.9L192.9,470.9z M285.6,471c0.1-3.2,0-6.4,0.1-9.6c0.1-2.4-0.5-3.3-2.6-3.4
	c-2.2,0-2.9,1-2.8,3.2c0.2,3.3,0.2,6.7,0.2,10.1c0,0.6,0.1,1.3-0.7,1.6s-1.2-0.3-1.6-0.8c-0.3-0.4-0.5-0.8-0.8-1.2l-9-11.5
	c-0.9-1.2-2.2-1.6-3.6-1.3c-1,0.2-1.3,1.1-1.3,2v21.6c0,1.9,1.2,2.1,2.8,2.1c1.5,0,2.5-0.5,2.4-2.2l-0.2-10.1c0-0.8-0.3-1.7,0.6-2.1
	s1.4,0.5,1.9,1.1l6,7.8c1.2,1.5,2.4,3,3.7,4.4c1,1.2,2.3,1.4,3.7,0.9c1.3-0.5,1.2-1.8,1.2-2.9L285.6,471L285.6,471z M321.6,470.9
	c0,3.3,0.1,6.5,0,9.8c-0.1,2,0.4,3.2,2.7,3.2s3-1.1,2.8-3.1c-0.1-1,0-2.1-0.1-3.1c-0.1-2,1.1-2.5,2.8-2.4c1.5,0.1,2.4,1.1,3.2,2.3
	c0.8,1.4,1.8,2.7,2.5,4.1c1.1,2,2.8,2.4,4.9,2.2c1.7-0.1,2.2-0.9,1.2-2.4c-1.1-1.7-2.2-3.5-3.5-5.1c-1-1.3-0.8-2.2,0.3-3.3
	c2.7-2.5,3.8-5.5,2.4-9.1c-1.5-3.8-4.6-5.9-8.7-5.9c-2.6,0-5.1,0.1-7.7-0.1c-2.2-0.1-3,0.9-2.9,3
	C321.7,464.3,321.6,467.6,321.6,470.9L321.6,470.9z M155.6,467.2h0.3c0,2-0.1,4,0,6c0.1,3.8,1.7,7,4.9,9.1c3.5,2.3,7.3,2.3,11,0.7
	c4.5-1.9,6.1-5.9,6.4-10.5c0.2-3.7,0-7.5,0.1-11.3c0.1-2-0.5-3.3-2.8-3.3c-2.2,0-2.8,1.3-2.8,3.3c0.1,3.9,0.1,7.8,0,11.8
	s-2.8,6.4-6.4,6.2c-3-0.2-5.2-2.6-5.3-6.4c-0.1-4-0.1-8,0-12c0-1.9-0.8-2.8-2.7-2.9c-2.1-0.1-2.9,1-2.9,3
	C155.6,463,155.6,465.1,155.6,467.2L155.6,467.2z M97.6,471.1v10.1c0,1.7,0.7,2.5,2.3,2.6c1.8,0.1,2.7-0.7,2.6-2.6
	c-0.1-1.3-0.1-2.6-0.1-3.8c0-1.5,0.8-2.1,2.2-2.3c1.7-0.1,2.9,0.4,3.8,1.9c1,1.6,2.1,3.2,3,4.9c1,1.8,2.6,2,4.3,1.9
	c1.5-0.2,2-1,1.1-2.3c-1-1.5-1.9-3-3-4.3c-1.4-1.7-1.5-2.9,0.4-4.6c2.4-2.2,3.3-5.1,2-8.3s-3.5-5.6-7.2-5.8c-3-0.2-6.1-0.1-9.1-0.1
	c-1.8,0-2.7,0.9-2.5,2.7C98,464.4,97.6,467.7,97.6,471.1L97.6,471.1z M308.9,483.9c2.7,0,3-0.6,2.1-2.9l-7-17.8
	c-0.8-1.9-0.7-5-3.9-5s-3.2,3-4,5c-2.4,5.7-4.6,11.6-6.8,17.4c-0.4,1-1.7,2.3-0.2,3.1c1.4,0.7,3.1,0.8,4.4-0.6
	c0.7-0.8,1-1.8,1.3-2.8c0.3-0.9,0.5-2,1.5-2.3c2.3-0.6,4.8-0.6,7.1-0.1c1.7,0.3,1.9,2.3,2.3,3.7
	C306.2,483.1,307.3,483.9,308.9,483.9L308.9,483.9z M93.9,471.2c0-7-5.3-12.9-11.8-12.9c-6.8,0-11.9,5.6-12,13.2
	c-0.1,6.6,5.5,12.3,11.9,12.3S93.9,478,93.9,471.2z M49.3,471h0.2v9.8c0,1.8,0.2,3,2.4,3c2.1,0,2.7-1.1,2.6-3.1
	c-0.3-6,0-5.7,5.3-5.5c4.9,0.1,8.2-3.3,8.5-8.5c0.2-4-3.6-8.2-7.9-8.4c-2.8-0.2-5.6-0.1-8.4-0.1c-1.8,0-2.6,0.9-2.6,2.7
	C49.3,464.2,49.3,467.6,49.3,471z M228.6,458.1h-8.4c-1.7,0-2.6,0.8-2.5,2.5c0,1.6,0.8,2.6,2.5,2.5c0.8,0,1.6-0.1,2.4-0.1
	c2.6-0.2,3.2,0.3,3.2,2.8l-0.1,15.3c-0.1,2.2,0.9,2.8,2.9,2.8c1.9,0,2.7-0.8,2.7-2.8c-0.1-4.3,0-8.6-0.1-12.9c0-5.1,0-5.1,5.2-5.2
	c1.7,0,3-0.6,3-2.6c0-2.1-1.4-2.4-3.1-2.4C233.7,458.1,231.1,458.1,228.6,458.1L228.6,458.1z M356.2,483.8c6.4,0,11.8-5.8,11.8-12.6
	c0-7.1-5.3-12.9-11.8-12.8c-6.7,0-11.9,5.7-11.9,13C344.2,478,349.7,483.8,356.2,483.8z M182.7,470.9v10.3c-0.1,2,0.9,2.7,2.8,2.6
	c1.8,0,2.6-0.8,2.5-2.6c-0.1-6.8,0-13.6,0-20.4c0-1.9-0.7-2.8-2.7-2.8c-1.9,0-2.7,0.9-2.7,2.8C182.8,464.2,182.7,467.6,182.7,470.9
	L182.7,470.9z M152.7,471.3c-0.1-1.4,0-3-0.5-4.3c-1.7-4.4-4.5-8.1-9.4-9c-5.4-1-9.4,1.4-12.4,5.8c-5.4,8.2-0.2,19.6,9.5,20.3
	c3.4,0.3,6.8-2,10.3-0.2c0.6,0.3,1.7,0.2,2.1-0.7c0.3-0.8-0.3-1.3-0.9-1.8c-1.3-1.1-1.5-2.3-0.4-3.7
	C152.5,475.8,152.7,473.6,152.7,471.3L152.7,471.3z M239.9,484c1.5,0,2.8,0,3.5-1.8c1.7-4.5,1.8-4.5,6.6-4.5h1.2
	c1.5-0.1,2.4,0.6,2.8,2.1c0.3,1.1,0.7,2.3,1.4,3.3c1.2,1.6,3.1,1.3,4.6,0.7c1.4-0.6,0.7-2,0.2-3.2l-1.2-2.9l-6.8-17.4
	c-0.6-1.4-1.5-2.5-3.2-2.4s-2.5,1.1-3.1,2.6l-8.1,20.5C236.8,483.5,237.1,484,239.9,484L239.9,484z"/>
<path fill="#31859C" d="M330.3,336.2c-2.6,0.9-4.5,3-6.6,4.6c-7.9,6.1-16.4,11.3-25.2,16.1c-13.8,7.6-28.5,12.9-43.8,16.5
	c-7,1.7-14.1,2.6-21.3,3.6c-10.2,1.3-20.5,1.1-30.7,0.8c-6.2-0.2-12.3-1.1-18.5-2.1c-7-1.2-13.9-2.6-20.7-4.6
	c-7.2-2.1-14.2-4.6-21.1-7.5c-8.9-3.8-17.4-8.3-25.6-13.4c-7-4.4-13.7-9.2-19.9-14.5c-5.8-5-11.6-10.1-16.6-16
	c-4-4.7-8.1-9.4-11.9-14.3c-9.5-12.5-17-26.1-22.9-40.6c-3.9-9.5-7-19.2-9.1-29.2c-3.3-15.6-4.6-31.4-3.8-47.3
	c1-21.4,5.6-42.1,13.9-61.9c10.9-25.8,26.9-48,48.1-66.5c18.4-16.1,39.4-28,62.8-35.7c10.3-3.4,20.8-5.7,31.5-7.2
	c6.1-0.9,12.2-0.9,18.3-1.5c6.4-0.6,12.8-0.1,19.1,0.3c13.6,0.7,26.9,3.2,39.9,7.2c20.4,6.2,39.3,15.7,56.4,28.5
	c13.2,9.9,24.8,21.4,34.9,34.5c13.1,17,22.9,35.7,29.4,56.1c3,9.6,5.2,19.4,6.6,29.4c1.4,10.2,2.1,20.4,1.8,30.7
	c-0.5,15.4-2.9,30.6-7.2,45.4c-2.3,7.7-4.6,14.3-7.9,21.7c0.4-1,0,0,0,0s-1.4,0-4.4,0.5l-31.6,6l-27.9,5.5
	c-4.1,0.9-8.3,1.9-12.7,2.1c17.5-18.4,29.1-39.9,33.1-64.8c7.2-44.4-5.4-82.6-37.9-113.7c-17.7-17.1-39.1-27.8-63.4-31.5
	c-47.1-7.2-86.5,7.4-117.5,43.5c-16.1,18.7-25.3,40.8-27.8,65.4c-4.3,41.8,9,77.4,39.5,106.2c19.3,18.3,42.6,28.9,69,32
	c32.6,3.9,62.3-3.9,89-23.1c3.9-2.8,7.6-5.9,11.1-9.2c0.5,0.6,1,1.2,1.4,1.9l24.8,37.2C326.7,330.3,328.9,333,330.3,336.2
	L330.3,336.2z"/>
<path fill="#4A206A" d="M262.9,171.4c-7.6-14.6-19-24.5-35-28c-20.7-4.5-38.5,1.5-51.9,17.9c-18,22.1-15,53,6.3,72.1
	c21.7,19.4,57,16,74.6-7.1c2.8-3.6,5.2-7.5,6.9-11.7c0.5-1.3,1-1.4,2.2-0.7l40.3,24.1c1.5,0.9,1.1,1.8,0.6,2.9
	c-7.4,16.2-18.1,29.9-32.2,40.8c-19.7,15.2-42.1,22.6-67,21.4c-30.2-1.4-55-14.3-74.5-37.2C117.6,247.4,109,226,107.7,202
	c-2.2-40.2,12.3-73.2,44.6-97.4c23.1-17.3,49.5-23.2,78-18c30.4,5.6,53.3,22.4,70,48.1c1,1.5,0.8,2.3-0.5,3.5l-34.5,30.9
	C264.5,169.9,263.7,170.6,262.9,171.4L262.9,171.4z M330.3,336.2c-1.4-3.2-3.7-5.9-5.6-8.8l-24.8-37.2c-0.4-0.7-0.9-1.3-1.4-1.9
	c-0.5-2.1,0.7-1.9,2.1-1.5l22.1,5.5l35.9,9c1.2,0.3,2,0.8,2.7,1.8l28.9,43.4c0.3,0.5,1.2,1,0.5,1.9c-0.5,0.6-1.1,0.5-1.7,0.5h-48.7
	c-1.1,0-1.6-0.3-2.2-1.3L330.3,336.2z"/>
<path fill="#31859C" d="M308.8,422.2v22.6c0,2-0.6,2.9-2.7,2.8c-2.5-0.1-5-0.1-7.4,0c-1.8,0.1-2.8-0.7-3.6-2.2l-5.6-11.4
	c-0.6-1.1-0.9-3.1-2.4-2.8c-1.2,0.3-0.5,2.1-0.5,3.2l0.1,10.8c0,1.7-0.6,2.5-2.4,2.4c-2.4-0.1-4.8,0-7.2,0c-2.8,0-3.2-0.3-3.2-3.2
	v-41.5l-0.1-3.8c-0.1-1.7,0.9-2.5,2.5-2.5h8.2c1.7,0,2.6,1,3.1,2.5l6,16.4c0.5,1.2,0.4,3.5,2.1,3.3c1.5-0.2,0.7-2.3,0.7-3.6
	c0-5-0.2-10.1-0.3-15.1c-0.1-2.9,0.4-3.4,3.2-3.4c2.2,0,4.3,0.1,6.5,0c2.4-0.1,3,0.9,3,3.2L308.8,422.2L308.8,422.2z M170.8,422.1
	v22.1c0,2.9-0.5,3.4-3.3,3.3c-2.2,0-4.5-0.1-6.7,0c-2,0.1-3.2-0.7-4-2.4l-6-12.3c-0.3-0.7-0.5-1.7-1.5-1.6c-1.2,0.2-1,1.3-0.9,2.1
	l0.3,9.8c0.1,4.1-0.1,4.3-4.1,4.2c-1.9,0-3.8-0.1-5.8,0c-2.3,0.2-2.9-0.8-2.9-2.9v-38.9c0-2.1,0.1-4.1-0.2-6.2s0.8-3.2,2.9-3
	c2.2,0.2,4.5,0.2,6.7,0c2-0.2,3.3,0.5,4,2.5c2,5.8,4.4,11.5,6.2,17.4c0.2,0.6,0.5,1.2,0.9,1.7c0.3,0.4,0.6,0.8,1.2,0.6
	s0.5-0.7,0.5-1.2l-0.3-17.5c-0.1-2.7,0.7-3.8,3.4-3.5c2,0.3,4,0.2,6,0c2.9-0.3,3.6,0.5,3.6,3.3L170.8,422.1L170.8,422.1z
	 M82.9,422.2c-0.9-12.7,10.5-25.6,25-25.3c14,0.3,24.6,11,25,25.1c0.3,12.5-10.7,25.2-25.4,25.1C94,447.1,82,434.7,82.9,422.2
	L82.9,422.2z M95.4,422.1c-0.6,7.4,6.3,12.5,12.2,12.6c6.9,0.1,12.8-5.7,12.8-12.5c0-6.9-5.7-12.5-12.5-12.8
	C102.3,409.2,94.7,415,95.4,422.1L95.4,422.1z M332.9,447.6c-5.2,0-10.4-0.1-15.6,0c-2.2,0-3.2-0.9-3-3c0.2-3,0.4-5.9,0-8.8
	c-0.2-1.2,0.5-2.3,1.3-3.3l16.8-19.3c0.6-0.7,1.6-1.4,1.1-2.4s-1.5-0.7-2.4-0.6c-4.6,0.2-9.3-0.2-13.9,0.3c-2.1,0.2-3.2-1-2.9-3.1
	c0.3-2.6,0.3-5.1,0-7.6c-0.3-2.3,0.7-3.2,3-3.2H349c2.2,0,3.1,0.9,2.9,3c-0.1,1.4-0.2,2.8,0,4.1c0.8,5-1.2,8.8-4.6,12.4
	c-4.8,5-9.2,10.4-13.8,15.6c-0.5,0.5-1.1,1-0.7,1.9c0.4,0.7,1.1,0.5,1.7,0.5l14.6-0.1c2,0,2.8,0.6,2.7,2.6c-0.1,2.8-0.1,5.6,0,8.4
	c0,2.1-0.9,2.8-2.9,2.8C343.6,447.5,338.3,447.6,332.9,447.6L332.9,447.6z M264.7,447.8c-5.9-0.2-6.4,1.4-7.8-6.1
	c-0.7-3.5-0.9-3.6-4.5-3.5c-2.2,0.1-4.7-0.7-6.6,0.4c-2.1,1.2-1.5,4-2.2,6.1c-0.8,2.2-1.8,3.4-4.3,3.1c-2.2-0.2-4.5,0-6.7,0
	c-2.1,0-2.8-0.9-2.2-2.9l10.8-34.5l3.6-11.6c0.5-1.6,1.5-2.6,3.4-2.3c0.8,0.1,1.6,0,2.4,0c4.8,0,5,0.3,6.4,4.9l9.2,29.7l4.4,14.4
	c0.5,1.6-0.2,2.3-1.7,2.3H264.7z M250.7,428.8c1-0.4,3.4,0.9,3-1.8s-1.3-5.4-2-8.1c-0.2-0.6-0.5-1.3-1.3-1.2c-0.8,0-0.9,0.7-1.1,1.4
	l-1.5,6.2C247.1,428.2,247.4,428.8,250.7,428.8L250.7,428.8z M178.4,422.2v-22.8c0-2.2,0.9-2.9,3-2.9h26.2c2.4,0,3.2,0.7,2.9,3.2
	c-0.3,2.2-0.2,4.5,0,6.7c0.3,2.5-0.4,3.2-2.9,3.2h-12.5c-3.5,0-3.8,0.2-3.7,3.3c0,2.7,0.3,2.9,3.9,2.9h9.4c2-0.1,2.8,0.7,2.7,2.7
	v7.9c0,1.7-0.7,2.5-2.5,2.4c-3.6-0.1-7.2,0-10.8-0.1c-2-0.1-2.7,0.7-2.7,2.7c0.1,4.1,0,8.2,0.1,12.2c0,4.2-0.1,4.2-4.3,4.2h-5.3
	c-3,0-3.3-0.3-3.3-3.3L178.4,422.2L178.4,422.2z M67.2,396.9c6.1-0.3,11.4,2,16.1,5.8c1.2,1,1.3,2,0.2,3.1c-2,2.1-4.1,4.1-6.1,6.1
	c-1.1,1.1-2,0.8-3.1,0c-4.1-3-8.6-3.5-13-0.9c-4.5,2.6-7.2,6.5-7,11.9c0.3,4.9,2.9,8.4,7.1,10.6c4.3,2.2,8.7,2,12.7-0.9
	c1.4-1,2.4-1,3.5,0.1c1.8,1.9,3.7,3.8,5.6,5.6c1.4,1.3,1.1,2.3-0.3,3.5c-8.4,7.3-22.2,7.6-31.3,0.4c-8.9-7.1-12.2-16.4-9-27.3
	c3-10.1,10.1-16.2,20.7-18c0.3-0.1,0.6-0.1,1-0.1C65.3,396.8,66.2,396.9,67.2,396.9L67.2,396.9z M360.9,447.3h-3.4
	c-2,0.1-2.6-0.7-1.9-2.7l7.1-22.4l6.9-22.7c0.6-1.9,1.5-2.7,3.6-2.6c6.4,0.2,6.4,0.1,8.4,6.4l13,40.9c0.8,2.4,0.3,3.1-2.2,3.1
	c-2.1,0-4.2-0.1-6.2,0c-2.2,0.2-3.3-0.8-3.7-2.9c-0.3-1.5-0.7-3-1.1-4.4c-0.4-1.6-1.3-2.4-3.1-2.4c-2.2,0.1-4.5,0.1-6.7,0
	c-1.8-0.1-2.7,0.8-3,2.4c-0.3,1.5-0.7,3-1,4.4c-0.4,2-1.5,3.1-3.7,2.8C363,447.2,361.9,447.3,360.9,447.3L360.9,447.3z M375.1,428.8
	c2.6,0,3.5-0.6,2.9-2.4c-0.8-2.4-1.2-4.8-1.6-7.2c-0.1-0.6-0.2-1.4-0.9-1.5c-1-0.2-1.2,0.7-1.4,1.3c-0.6,2-1,4.1-1.6,6.2
	C371.7,428.2,372.1,428.8,375.1,428.8z M214.5,421.7v-22.3c0-2.2,0.8-3,3-2.9h7.7c1.8-0.1,2.7,0.8,2.7,2.6l-0.1,45.1
	c0,3.3-0.6,3.7-3.8,3.7h-6c-2.9,0-3.4-0.5-3.4-3.3L214.5,421.7L214.5,421.7z"/>
<path fill="#4A206A" d="M192.9,470.9v-9.6c0-1.3-0.3-2.7,1.4-3.2c1.5-0.4,2.8,0.2,3.8,1.5l9,11.5c0.2,0.3,0.5,0.7,0.7,0.9
	c0.4,0.4,0.9,1,1.6,0.7c0.8-0.3,0.6-1,0.6-1.6l-0.2-9.8c-0.1-1.9,0.1-3.4,2.5-3.4c2.3,0,2.8,1.2,2.7,3.2l0.2,18.9
	c0,1.3,0.5,2.9-1.2,3.5c-1.8,0.6-3.4,0-4.6-1.6c-2.8-3.7-5.7-7.3-8.6-10.9c-0.6-0.7-1-2-2.1-1.6c-1.2,0.4-0.6,1.7-0.6,2.5l0.1,9.3
	c0.1,2-1.1,2.3-2.8,2.3s-2.5-0.6-2.5-2.4L192.9,470.9L192.9,470.9z M285.6,471v9.8c0,1.1,0.2,2.4-1.2,2.9s-2.7,0.3-3.7-0.9l-3.7-4.4
	l-6-7.8c-0.5-0.6-0.9-1.5-1.9-1.1c-0.9,0.4-0.6,1.3-0.6,2.1l0.2,10.1c0,1.7-0.9,2.2-2.4,2.2s-2.8-0.2-2.8-2.1v-21.6
	c0-0.9,0.3-1.8,1.3-2c1.4-0.4,2.7,0.1,3.6,1.3l9,11.5c0.3,0.4,0.5,0.8,0.8,1.2c0.4,0.5,0.8,1.1,1.6,0.8s0.7-1,0.7-1.6
	c-0.1-3.4,0-6.7-0.2-10.1c-0.1-2.1,0.7-3.2,2.8-3.2c2,0,2.6,1,2.6,3.4C285.5,464.6,285.6,467.8,285.6,471L285.6,471z M321.6,470.9
	v-9.8c-0.1-2.1,0.7-3.1,2.9-3l7.7,0.1c4.1,0,7.2,2.1,8.7,5.9c1.4,3.6,0.3,6.6-2.4,9.1c-1.2,1.1-1.3,2-0.3,3.3l3.5,5.1
	c1,1.5,0.5,2.2-1.2,2.4c-2,0.2-3.8-0.2-4.9-2.2c-0.8-1.4-1.7-2.7-2.5-4.1c-0.7-1.2-1.7-2.2-3.2-2.3c-1.7-0.1-2.9,0.4-2.8,2.4
	c0,1,0,2.1,0.1,3.1c0.2,2.1-0.5,3.1-2.8,3.1s-2.8-1.2-2.7-3.2L321.6,470.9L321.6,470.9z M330.5,470.8h0.9c2.3,0.2,4-0.7,4.6-2.9
	c0.6-2-0.3-3.6-2-4.7c-1.5-0.9-6-0.9-6.7,0.1c-1.3,1.9-0.7,4.2-0.4,6.2C327.3,471.5,329.4,470.6,330.5,470.8z M155.6,467.2V461
	c0-2,0.8-3,2.9-3c1.9,0.1,2.7,0.9,2.7,2.9c-0.1,4-0.1,8,0,12c0.1,3.7,2.2,6.1,5.3,6.4c3.6,0.3,6.3-2.2,6.4-6.2
	c0.1-3.9,0.1-7.8,0-11.8c0-2,0.5-3.3,2.8-3.3s2.8,1.2,2.8,3.3c-0.1,3.8,0.1,7.5-0.1,11.3c-0.3,4.6-1.9,8.6-6.4,10.5
	c-3.7,1.6-7.5,1.6-11-0.7c-3.3-2.1-4.8-5.3-4.9-9.1c-0.1-2,0-4,0-6C155.8,467.2,155.7,467.2,155.6,467.2L155.6,467.2z M97.6,471.1
	c0-3.3,0.3-6.7-0.1-10.1c-0.2-1.8,0.7-2.7,2.5-2.7c3,0,6.1-0.1,9.1,0.1c3.7,0.2,5.9,2.5,7.2,5.8c1.3,3.2,0.5,6.1-2,8.3
	c-1.8,1.6-1.8,2.8-0.4,4.6c1.1,1.4,2,2.9,3,4.3c0.9,1.3,0.4,2.2-1.1,2.3c-1.7,0.2-3.3-0.1-4.3-1.9c-0.9-1.7-2.1-3.2-3-4.9
	c-0.9-1.5-2.1-2-3.8-1.9c-1.4,0.1-2.2,0.8-2.2,2.3c0,1.3,0,2.6,0.1,3.8c0.1,1.9-0.8,2.6-2.6,2.6c-1.7-0.1-2.4-0.9-2.3-2.6
	L97.6,471.1L97.6,471.1z M102.5,466.7c0,4.1,0.2,4.3,3.5,4.2c4,0,6-1.5,6-4.2c-0.1-2.7-2.2-4.2-6-4.1
	C102.6,462.7,102.5,462.8,102.5,466.7z M308.9,483.9c-1.7,0.1-2.7-0.7-3.2-2.4c-0.4-1.4-0.6-3.4-2.3-3.7c-2.3-0.4-4.8-0.5-7.1,0.1
	c-1,0.3-1.3,1.4-1.5,2.3c-0.3,1-0.5,2-1.3,2.8c-1.3,1.4-3.1,1.3-4.4,0.6c-1.5-0.8-0.2-2.1,0.2-3.1l6.8-17.4c0.8-2,0.8-5,4-5
	s3.1,3.1,3.9,5c2.5,5.9,4.6,11.9,7,17.8C311.9,483.3,311.6,483.9,308.9,483.9L308.9,483.9z M299.7,473.9c3.5,0.1,3.8-0.4,2.6-3.7
	c-0.5-1.3-0.9-2.6-1.3-3.9c-0.2-0.5-0.3-1-0.8-1.1c-0.7-0.1-1,0.5-1.2,1l-1.5,4.3C296.4,473.6,296.6,473.9,299.7,473.9L299.7,473.9z
	 M93.9,471.2c0,6.7-5.5,12.5-11.9,12.6c-6.4,0-11.9-5.7-11.9-12.3c0.1-7.6,5.2-13.2,12-13.2C88.6,458.3,93.9,464.2,93.9,471.2z
	 M75,471.1c0,3.5,1.9,6.7,4.6,7.8c4,1.6,7.7-0.7,9.1-5.6c1.2-4.1-1.3-9.2-5.1-10.4c-3.4-1.1-6.8,1.1-8.2,5.1
	C75,469,75,470.1,75,471.1z M49.3,471v-10.1c0-1.8,0.8-2.7,2.6-2.7l8.4,0.1c4.3,0.2,8.1,4.4,7.9,8.4c-0.3,5.1-3.6,8.6-8.5,8.5
	c-5.3-0.1-5.6-0.4-5.3,5.5c0.1,1.9-0.5,3.1-2.6,3.1s-2.4-1.2-2.4-3C49.5,477.5,49.4,474.2,49.3,471L49.3,471z M54.3,466.8
	c0,3.9,0.1,4.1,4,4c3.1,0,4.9-1.5,4.9-3.9c-0.1-2.8-1.8-4.1-5.5-4.1C54.6,462.8,54.3,463.1,54.3,466.8z M392.2,478
	c-1.4,2.6-3.6,4.2-6.4,5.2c-0.5-0.4-0.9-0.5-1,0.3c-1.7,0.5-3.4,0.5-5.1,0c-0.1-0.8-0.5-0.7-1-0.3c-3.3-1.2-5.8-3.2-7-6.5
	c0.3-1,0.3-1.9-0.9-2.4l-0.3-1.8c0.8-1,0.8-2,0-3.1c-0.1-0.6,0-1.2,0.3-1.7c0.8-0.1,0.7-0.5,0.4-1c0.8-3.2,2.8-5.3,5.6-6.9
	c2.5-0.7,5.2-0.4,7.7-1.2l1.2,0.3c0.3,1,1,1.2,1.9,0.9c2.4,1.2,4.1,3.1,5.1,5.5c0,1.7,0.1,3.4,1.4,4.8c0.3,0.7,0.3,1.6,0,2.3
	C392.8,474,392.6,476,392.2,478L392.2,478z M389.4,470.6c0.1-1.5-0.5-3.2-1.6-4.8c-2.6-3.9-7.4-4.4-10.4-0.9
	c-2.8,3.3-3.1,8-0.6,11.6c2.6,3.7,6.9,4.1,10.1,0.9C388.7,475.6,389.4,473.4,389.4,470.6L389.4,470.6z M228.6,458.1h7.7
	c1.7,0,3.1,0.3,3.1,2.4c0,2-1.3,2.6-3,2.6c-5.2,0-5.2,0-5.2,5.2l0.1,12.9c0,2-0.8,2.8-2.7,2.8s-2.9-0.6-2.9-2.8l0.1-15.3
	c0-2.5-0.6-3-3.2-2.8c-0.8,0.1-1.6,0.1-2.4,0.1c-1.7,0-2.5-0.9-2.5-2.5s0.8-2.5,2.5-2.5L228.6,458.1L228.6,458.1z M356.2,483.8
	c-6.4,0-12-5.8-12-12.5c0-7.3,5.2-13,11.9-13c6.5,0,11.8,5.7,11.8,12.8C368,478,362.6,483.8,356.2,483.8L356.2,483.8z M348.6,471
	c0,5,3.2,8.8,7.4,8.8c5.5,0.1,9-6.1,6.9-12.2c-1-3-3.1-5-6.3-5.5c-2.6-0.4-5.5,1.7-6.9,4.6C349,468.1,348.5,469.6,348.6,471
	L348.6,471z M182.7,470.9v-10.1c0-1.9,0.8-2.8,2.7-2.8s2.7,0.9,2.7,2.8c-0.1,6.8-0.1,13.6,0,20.4c0,1.8-0.7,2.6-2.5,2.6
	c-1.9,0-2.8-0.6-2.8-2.6L182.7,470.9L182.7,470.9z"/>
<path fill="#31859C" d="M152.7,471.3c0,2.3-0.2,4.5-1.6,6.4c-1.1,1.4-0.8,2.6,0.4,3.7c0.5,0.5,1.2,1,0.9,1.8c-0.4,0.9-1.5,1-2.1,0.7
	c-3.5-1.8-6.9,0.5-10.3,0.2c-9.7-0.7-15-12.1-9.5-20.3c3-4.5,7-6.8,12.4-5.8c5,0.9,7.7,4.6,9.4,9
	C152.7,468.3,152.6,469.9,152.7,471.3L152.7,471.3z M151.5,471c0.4-2.3-0.6-4.4-1.6-6.5c-2.7-5.3-9.8-7.1-14.8-3.9
	c-4.8,3-5.9,7.6-5.3,12.7c0.9,7,8.3,11.7,14.1,9.1c1.9-0.8,3.4-1.3,4.9,0.4c0.5,0.5,1.4,0.7,1.9,0s-0.3-1.1-0.8-1.6
	c-1.1-1.1-1.3-2.4-0.3-3.6C151.2,475.8,151.6,473.6,151.5,471L151.5,471z M239.9,484c-2.8,0-3.1-0.5-2.1-3.1l8.1-20.5
	c0.6-1.5,1.4-2.5,3.1-2.6c1.8-0.1,2.7,1,3.2,2.4l6.8,17.4l1.2,2.9c0.5,1.1,1.2,2.6-0.2,3.2s-3.4,1-4.6-0.7c-0.7-0.9-1.1-2.1-1.4-3.3
	c-0.4-1.5-1.3-2.1-2.8-2.1H250c-4.8,0-4.9,0-6.6,4.5C242.6,483.9,241.3,484,239.9,484L239.9,484z M257.7,483.2
	c1.7,0.1,2.3-0.5,1.7-1.9c-3-6.6-5.3-13.5-8-20.2c-0.4-1.1-1-2.4-2.4-2.3s-2.2,1.2-2.6,2.5c-2.4,6.6-4.8,13.1-7.7,19.5
	c-0.8,1.8-0.3,2.5,1.6,2.4c1.5-0.1,1.9-1,2.3-2.3c1.1-3.7,1.5-4,5.3-4h3.8c1.4,0,2.3,0.5,2.7,1.9c0.3,1.1,0.8,2.1,1.2,3.1
	C256.1,482.8,256.8,483.3,257.7,483.2L257.7,483.2z M384.5,458.5c-2.5,0.9-5.2,0.6-7.7,1.2C379.2,458,381.7,457.6,384.5,458.5z
	 M392.2,478c0.4-2,0.6-4,2-5.7C394.2,474.5,393.7,476.4,392.2,478z M394.1,470c-1.3-1.3-1.4-3-1.4-4.8
	C393.8,466.7,394.3,468.2,394.1,470z M370.6,469.4c0.8,1,0.8,2,0,3.1C370.1,471.4,370,470.4,370.6,469.4z M370.8,474.2
	c1.2,0.5,1.2,1.4,0.9,2.4C371,476,370.7,475.2,370.8,474.2z M387.7,459.7c-0.9,0.3-1.6,0.1-1.9-0.9
	C386.6,458.6,387.2,459,387.7,459.7z M371.2,466.7c0.4,0.5,0.4,0.9-0.4,1C370.6,467.2,370.8,466.9,371.2,466.7z M378.7,483.2
	c0.5-0.4,0.9-0.5,1,0.3C379.2,483.8,378.9,483.6,378.7,483.2z M384.8,483.5c0.1-0.8,0.5-0.7,1-0.3
	C385.5,483.6,385.2,483.8,384.8,483.5z"/>
<path fill="#FBFAFB" d="M95.4,422.1c-0.6-7.2,6.9-13,12.5-12.7c6.8,0.4,12.6,5.9,12.5,12.8c0,6.8-5.9,12.6-12.8,12.5
	C101.7,434.7,94.8,429.6,95.4,422.1L95.4,422.1z M250.7,428.8c-3.3,0-3.6-0.5-2.8-3.5l1.5-6.2c0.1-0.6,0.3-1.3,1.1-1.4
	c0.8,0,1.1,0.6,1.3,1.2c0.7,2.7,1.6,5.3,2,8.1C254.1,429.6,251.7,428.4,250.7,428.8z M375.1,428.8c-3,0-3.5-0.6-2.7-3.6l1.6-6.2
	c0.2-0.6,0.4-1.5,1.4-1.3c0.8,0.1,0.8,0.9,0.9,1.5c0.4,2.4,0.9,4.8,1.6,7.2C378.6,428.2,377.8,428.8,375.1,428.8z M330.5,470.8
	c-1.1-0.2-3.2,0.7-3.5-1.2c-0.3-2-0.9-4.3,0.4-6.2c0.7-1,5.2-1.1,6.7-0.1c1.7,1.1,2.6,2.7,2,4.7c-0.7,2.2-2.3,3.1-4.6,2.9
	C331.2,470.8,330.9,470.8,330.5,470.8L330.5,470.8z M102.5,466.7c0-3.9,0.1-4.1,3.4-4.1c3.9,0,6,1.4,6,4.1c0.1,2.7-2,4.2-6,4.2
	C102.7,471,102.5,470.8,102.5,466.7z M299.7,473.9c-3.2-0.1-3.3-0.3-2.1-3.3l1.5-4.3c0.2-0.5,0.4-1.1,1.2-1c0.5,0.1,0.7,0.6,0.8,1.1
	l1.3,3.9C303.6,473.6,303.3,474,299.7,473.9L299.7,473.9z M75,471.1c0-1,0.1-2.1,0.4-3.1c1.5-4.1,4.9-6.2,8.2-5.1
	c3.8,1.2,6.3,6.3,5.1,10.4c-1.4,4.9-5.1,7.1-9.1,5.6C76.9,477.8,75,474.6,75,471.1z M54.3,466.8c0-3.7,0.3-4,3.3-4
	c3.7,0,5.4,1.3,5.5,4.1c0.1,2.4-1.8,3.9-4.9,3.9C54.5,470.8,54.3,470.7,54.3,466.8z M389.4,470.6c0,2.8-0.7,5-2.5,6.7
	c-3.2,3.2-7.4,2.8-10.1-0.9c-2.5-3.6-2.3-8.2,0.6-11.6s7.8-3,10.4,0.9C388.8,467.4,389.4,469.1,389.4,470.6z"/>
<path fill="#31859C" d="M348.6,471c-0.1-1.4,0.3-2.9,1-4.2c1.4-2.9,4.3-5,6.9-4.6c3.2,0.5,5.3,2.5,6.3,5.5
	c2.1,6.1-1.3,12.3-6.9,12.2C351.8,479.8,348.6,476,348.6,471z M362.5,470.6c0-0.3-0.1-1.1-0.3-1.9c-0.6-2.9-3-5.3-5.6-5.5
	c-2.4-0.3-5.2,1.6-6.4,4.2c-1.6,3.3-0.7,7.8,2,10.1c0.8,0.7,1.7,1.1,2.8,1.3C359.6,479.3,362.5,476.3,362.5,470.6z"/>
<path fill="#4A206A" d="M151.5,471c0.2,2.6-0.2,4.8-1.8,6.7c-1,1.2-0.9,2.5,0.3,3.6c0.4,0.4,1.2,0.9,0.8,1.6c-0.5,0.7-1.4,0.5-1.9,0
	c-1.6-1.7-3-1.2-4.9-0.4c-5.9,2.6-13.2-2.1-14.1-9.1c-0.6-5.1,0.5-9.7,5.3-12.7c5-3.2,12.1-1.4,14.8,3.9
	C150.9,466.6,151.9,468.7,151.5,471L151.5,471z M132.8,471.8c0,3.6,2.5,7.2,6.6,8.5c1.6,0.5,3.1,0.1,4.2-1c1.2-1.2,0-2.1-0.8-3
	c-0.3-0.3-0.7-0.7-0.3-1.2c0.4-0.4,0.9-0.2,1.3,0c0.6,0.3,1.1,0.8,1.7,0.9c1.1,0.3,2.2,0.4,2.4-1.1c0.2-1.7,0.7-3.3,0.5-5
	c-0.4-3.6-2.2-6.3-5.4-7.9c-2.6-1.2-5.1-0.4-7,1.5C133.9,465.6,132.7,468,132.8,471.8L132.8,471.8z M257.7,483.2
	c-1,0.1-1.6-0.4-2-1.3c-0.4-1-0.9-2-1.2-3.1c-0.4-1.4-1.3-1.9-2.7-1.9H248c-3.8,0-4.3,0.2-5.3,4c-0.4,1.3-0.8,2.2-2.3,2.3
	c-1.9,0.1-2.4-0.6-1.6-2.4c2.9-6.4,5.3-13,7.7-19.5c0.5-1.3,1.3-2.4,2.6-2.5c1.4-0.1,2,1.2,2.4,2.3c2.6,6.7,5,13.6,8,20.2
	C260.1,482.7,259.5,483.3,257.7,483.2z M249.3,474.1c1.1-0.3,3.2,0.6,2.9-1.8c-0.3-2.1-1.4-4.1-2.1-6.1c-0.2-0.5-0.6-1-1.2-0.9
	c-0.7,0.1-0.8,0.7-1,1.2c-0.4,1.3-0.6,2.6-1.2,3.9C245.1,473.5,245.5,474.1,249.3,474.1L249.3,474.1z"/>
<path fill="#FBFAFB" d="M362.5,470.6c0,5.7-2.9,8.7-7.5,8.2c-1.1-0.1-2-0.5-2.8-1.3c-2.7-2.4-3.5-6.8-2-10.1c1.2-2.7,4-4.5,6.4-4.2
	c2.5,0.3,4.9,2.6,5.6,5.5C362.4,469.5,362.5,470.3,362.5,470.6z"/>
<path fill="#31859C" d="M132.8,471.8c-0.1-3.8,1.1-6.2,3.1-8.2c1.9-1.9,4.4-2.7,7-1.5c3.2,1.6,5,4.3,5.4,7.9c0.2,1.7-0.3,3.3-0.5,5
	c-0.2,1.5-1.3,1.4-2.4,1.1c-0.6-0.2-1.1-0.6-1.7-0.9c-0.4-0.2-0.9-0.4-1.3,0c-0.4,0.5,0,0.9,0.3,1.2c0.8,0.9,2,1.8,0.8,3
	c-1.1,1.1-2.6,1.5-4.2,1C135.3,479,132.7,475.5,132.8,471.8L132.8,471.8z M147.2,470.9c0.3-1.8-0.6-3.7-1.7-5.3
	c-2.1-3.2-6.4-3.6-9.2-1c-2.4,2.3-3.2,6.8-1.8,10.3c1.1,2.7,3.4,4.3,6.1,4.2c0.7,0,1.5,0,1.9-0.8c0.3-0.7-0.4-1.1-0.8-1.6
	c-0.5-0.6-1.6-1.1-1-2.2c0.7-1.1,1.8-0.8,2.8-0.5C146.9,475,147.2,474.8,147.2,470.9z"/>
<path fill="#FBFAFB" d="M249.3,474.1c-3.7,0-4.2-0.6-2.7-3.7c0.6-1.2,0.9-2.6,1.2-3.9c0.1-0.5,0.3-1.2,1-1.2c0.7-0.1,1,0.4,1.2,0.9
	c0.8,2,1.8,4,2.1,6.1C252.5,474.7,250.3,473.8,249.3,474.1L249.3,474.1z M147.2,470.9c0,3.8-0.3,4-3.6,3c-1-0.3-2.1-0.6-2.8,0.5
	c-0.6,1,0.4,1.5,1,2.2c0.4,0.5,1.1,0.9,0.8,1.6c-0.3,0.8-1.1,0.8-1.9,0.8c-2.7,0.1-5-1.4-6.1-4.2c-1.5-3.5-0.7-8,1.8-10.3
	c2.7-2.6,7.1-2.2,9.2,1C146.7,467.3,147.5,469.1,147.2,470.9z"/>
</svg>
