<?xml version="1.0" encoding="utf-8"?>
<!-- Generator: Adobe Illustrator 21.0.0, SVG Export Plug-In . SVG Version: 6.00 Build 0)  -->
<svg version="1.2" baseProfile="tiny" id="Capa_1" xmlns="http://www.w3.org/2000/svg" xmlns:xlink="http://www.w3.org/1999/xlink"
	 x="0px" y="0px" width="330.3px" height="288.4px" viewBox="0 0 330.3 288.4" xml:space="preserve">
<path fill="#0EB5C6" d="M176.8,132.5c-3.7-4.9-6.9-10.2-10.7-15.1c-9.1-11.4-25.3-15.3-37.8-8.7c-6.4,3.3-11.3,8.4-15.4,14.6
	c-2.4,3.5-4.7,7.1-7.3,10.5c-2.3,3.1-4.7,3.1-7.4,0.5c-0.7-0.6-1.2-1.4-1.6-2.1l-7.5-10.9c-6.8-9.5-15.5-15.6-23.5-15.6
	c-14.3,0-22.9,4.9-29.5,13.6C28,130,21,141.8,13.4,152.9L6.8,163c-0.4,0.7-1.4,1.5-0.1,2.2c2,1,6.3-0.1,7.6-2l15.5-22.9
	c4.8-6.9,8.8-14.4,14.7-20.3c7.6-7.3,16.4-9.2,26-5.6c7,2.6,11.6,8.5,15.7,14.7c2.5,3.8,4.9,7.8,8.1,10.9c4.3,4.3,10.2,4.3,14.5,0
	c1.7-1.7,3.3-3.7,4.8-5.8c3.3-4.8,6.3-9.8,10.3-13.9c9-9.2,22.8-10.2,32.7-2.2c4.7,3.7,7.9,8.7,11.2,13.6c2,2.9,3.9,5.8,6.4,8.3
	c2.3,2.3,5.1,3.4,7.8,3.1V136C180.3,136.1,178.8,134.9,176.8,132.5L176.8,132.5z"/>
<path fill="#6D378F" d="M256.9,132.7c-2.7-3.6-5.1-7.6-7.8-11.3c-5-7-10.8-12.8-19.1-14.9c-13.5-3.6-24.8,0.8-34,11.9
	c-3.7,4.4-6.5,9.5-10,14.2c-1.6,2.1-2.9,3.1-4.3,3.4v7.2c2.3-0.1,4.6-1.2,6.6-3c1.5-1.4,2.9-3,4.1-4.8c2.6-3.8,5.1-7.8,7.9-11.4
	c10.8-14.3,27.9-15.3,39.9-2.1c1.8,2,3.4,4.2,4.9,6.4c2.7,4.1,5.2,8.4,8.7,11.8c2.5,2.3,5.3,3.4,8.2,3.1V136
	C260.4,136.2,258.8,135.1,256.9,132.7L256.9,132.7z"/>
<path fill="#D95943" d="M325.3,116.9c-4.9-5.7-10.8-9.5-18-10.9c-13-2.4-23.5,2.3-32,12.9c-3.5,4.3-6.3,9.2-9.5,13.6
	c-1.4,1.9-2.6,2.9-3.9,3.3v7.2c2.2-0.2,4.3-1.3,6.2-3c1.5-1.4,2.9-3,4.1-4.8c2.6-3.8,5.1-7.8,7.9-11.4c10.2-13.5,27.3-15.1,38.4-3.6
	c3.3,3.4,2.5,4.1,6.4-0.2l0.3-0.3C326.3,118.7,326.2,117.9,325.3,116.9L325.3,116.9z"/>
<path fill="#0EB5C6" d="M171.2,142.7c-1.7-1.7-3.1-3.6-4.6-5.7c-3.3-4.8-6.2-9.8-10.3-13.9c-7.7-7.8-19.6-8.4-28-1.3
	c-3.9,3.4-6.7,7.7-9.5,11.9c-2.2,3.1-4.1,6.5-6.8,9.2c-3.5,3.5-7.6,5-12.5,4.2s-8.2-4-11.2-7.9c-2.6-3.6-5-7.5-7.6-11.1
	c-4.8-6.5-10.5-11.5-18.4-11.2c-7.8-0.2-13.5,3.4-18,9.2c-7.3,9.5-13.5,20-20.5,29.8c-1.6,2.3-3.2,4.7-4.8,7.1
	c-0.4,0.6-1.2,1.4,0.1,2c2.3,1,6.7-0.2,8.1-2.3l21.2-31.1c7.4-10.4,18.3-10.4,25.8-0.2c3.4,4.5,6.3,9.3,9.6,13.7
	c9.3,12.3,24.8,12.5,34.4,0.5c3.6-4.5,6.5-9.5,10-14.2c7.4-10,18.3-10.1,25.7-0.1c3.3,4.4,6.3,9.2,9.5,13.6
	c4.9,6.6,11.5,9.9,18.1,9.7v-7.3C178.1,147.4,174.2,145.9,171.2,142.7L171.2,142.7z"/>
<path fill="#6D378F" d="M248.4,139.7c-3.4-4.4-6.2-9.2-9.4-13.6c-8.7-11.5-23.5-12.1-32.5-2.6c-2.3,2.4-4.3,5-6.2,7.8
	c-2.6,4-5,8-8.2,11.4c-2.9,3-6.5,4.5-10.1,4.5v7.3c6.2-0.2,12.4-3.4,17-9.5c3.5-4.5,6.5-9.3,9.9-14c1.8-2.6,4.1-4.8,7-5.9
	c6.6-2.8,13.3-0.5,18.3,6.4c3.1,4.3,6.1,9,9.2,13.3c5.1,7,12,10.2,18.8,9.9v-7.5C256.2,147.5,251.9,144.3,248.4,139.7L248.4,139.7z"
	/>
<path fill="#D95943" d="M317.5,124.6c-7.4-8.6-19.5-10.2-28.4-3.6c-2.6,2-4.8,4.5-6.8,7.2c-3.7,4.8-6.4,10.2-10.5,14.7
	c-2.7,2.8-5.9,4.2-9.5,4.4h-0.1v7.5c6.1-0.3,12-3.5,16.7-9.7c3.5-4.7,6.5-9.5,10-14.2c6.4-8.5,16.2-9.1,23.4-1.3
	c1.7,1.9,2.9,1.9,4.3-0.1l1-1C318.8,127,318.7,125.9,317.5,124.6L317.5,124.6z"/>
<path fill="#0EB5C6" d="M171.5,156.5c-5.5-2.4-9.4-7.2-13-12.2c-2.9-4.1-5.3-8.6-8.8-12.3c-2.3-2.4-5-3.7-8.3-3.6
	c-4.4,0.1-7.4,2.9-9.9,6.3c-2.8,3.8-5.4,7.9-8.2,11.9c-7,9.7-16,14.1-27.4,11.4c-6.7-1.5-11.6-6.3-15.7-11.9
	c-2.8-3.8-5.4-7.9-8.2-11.9c-2.5-3.4-5.3-6.2-9.9-5.9c-3-0.2-5.6,1.2-7.9,3.4c-3.3,3.3-5.6,7.3-8.1,11.2l-13,19.6
	c-0.4,0.7-1.6,1.6-0.1,2.3c2.1,1.2,6.3-0.1,7.7-2.2l10.1-14.8l6.9-10c2.4-3.3,5.1-3.4,7.7-0.5c1.3,1.4,2.4,3,3.6,4.7
	c3.5,5,6.6,10.1,10.8,14.3c10,10.1,25,12.3,37,5.4c6.1-3.6,10.5-9,14.5-14.9c2.1-3.1,4.1-6.3,6.4-9.2c2.3-2.9,4.9-3,7.4-0.3
	c2,2.1,3.5,4.4,5.1,6.9c2.8,4.4,5.9,8.7,9.4,12.3c6.3,6.3,13.9,9.5,22.4,9.3v-7.2C178.3,158.8,174.9,158,171.5,156.5L171.5,156.5z"
	/>
<path fill="#D95943" d="M310.6,133.5c-3.8-5.9-11.4-7-16.6-2.1c-1.8,1.7-3.4,3.7-4.8,5.8c-3.4,4.9-6.5,10-10.6,14.2
	c-4.6,4.7-10.5,7.1-16.5,7.3v7.2c10.2-0.3,18.3-5.5,24.8-13.7c3.8-4.8,6.6-10.4,10.6-14.9c2.3-2.6,4.6-2.4,6.9-0.1
	c2.3,2.3,2.3,2.3,4.6-0.2c0.5-0.6,1-1,1.4-1.6C311.1,134.8,311,134.2,310.6,133.5L310.6,133.5z"/>
<path fill="#6D378F" d="M250.9,156.2c-5.6-2.8-9.5-7.6-13.2-12.8c-2.8-4.1-5.2-8.5-8.8-12c-2.9-2.9-6.3-3.8-10.1-2.8
	c-3.5,0.9-5.7,3.5-7.8,6.4l-8.2,11.9c-6.1,8.3-13.4,11.9-20.9,11.9v7.2h0.5c10.4-0.3,18.5-5.6,25-14.1c3.5-4.7,6.6-9.5,10.1-14.1
	c2.4-3.1,5.2-3,7.7,0c1.4,1.9,2.8,3.8,4.1,5.7c3,4.5,6,9.1,9.9,12.9c6.5,6.5,14.1,9.7,22.9,9.4h0.1v-7.2
	C258.2,158.9,254.4,158.1,250.9,156.2L250.9,156.2z M221.7,144c-3.8,0-6.9,3.3-6.9,7.1c0,3.7,2.9,6.9,6.4,7c3.6,0.1,6.8-3.3,6.8-7.3
	C227.9,146.9,225.3,144,221.7,144z M221.3,153.8c-1.3,0-2.5-1.3-2.5-2.7c0-1.5,1.2-2.8,2.7-2.8c1.4,0,2.5,1.1,2.5,2.6v0.1
	C223.9,152.5,222.7,153.9,221.3,153.8z"/>
</svg>
