<?xml version="1.0" encoding="utf-8"?>
<!-- Generator: Adobe Illustrator 21.0.0, SVG Export Plug-In . SVG Version: 6.00 Build 0)  -->
<svg version="1.2" baseProfile="tiny" id="Capa_1" xmlns="http://www.w3.org/2000/svg" xmlns:xlink="http://www.w3.org/1999/xlink"
	 x="0px" y="0px" width="300px" height="300px" viewBox="0 0 300 300" xml:space="preserve">
<g>
	<path fill="#FF8300" d="M226.1,170.2c0-0.6-0.1-1.1-0.3-1.6s-0.5-1-0.9-1.3c-0.4-0.4-0.8-0.7-1.3-1c-0.5-0.3-1-0.4-1.5-0.4
		s-1.1,0.1-1.5,0.4c-0.4,0.3-1,0.5-1.3,1c-0.4,0.4-0.6,0.8-0.9,1.3c-0.2,0.5-0.3,1-0.3,1.6c0,0.6,0.1,1.1,0.3,1.6
		c0.3,0.5,0.5,1,0.9,1.3c0.4,0.4,0.8,0.7,1.3,1c0.5,0.3,1,0.4,1.5,0.4s1.1-0.1,1.5-0.4c0.4-0.3,1-0.5,1.3-1c0.4-0.4,0.6-0.8,0.9-1.3
		C226.1,171.3,226.1,170.8,226.1,170.2z"/>
	<path fill="#FF8300" d="M101.2,167.3c-0.4-0.4-0.8-0.7-1.3-1c-0.5-0.3-1-0.4-1.5-0.4c-0.5,0-1.1,0.1-1.5,0.4c-0.5,0.3-1,0.5-1.3,1
		c-0.4,0.4-0.6,0.8-0.9,1.3c-0.3,0.5-0.3,1-0.3,1.6c0,0.6,0.1,1.1,0.3,1.6c0.2,0.5,0.5,1,0.9,1.3c0.4,0.4,0.8,0.7,1.3,1
		c0.5,0.3,1,0.4,1.5,0.4c0.5,0,1.1-0.1,1.5-0.4c0.5-0.3,1-0.5,1.3-1c0.4-0.4,0.6-0.8,0.9-1.3c0.2-0.5,0.3-1,0.3-1.6
		c0-0.6-0.1-1.1-0.3-1.6C101.8,168.1,101.5,167.7,101.2,167.3z"/>
	<path fill="#FF8300" d="M123.2,191.3c-0.4-0.4-1-0.6-1.6-0.8c-0.6-0.1-1.2-0.2-1.7-0.2h-2.2c-0.4-0.1-0.7,0.3-0.7,0.6
		c0,0.1,0,0.1,0,0.1v9.5c0,0.2,0.1,0.4,0.2,0.5c0.1,0.1,0.3,0.3,0.5,0.3h2.2c0.6,0,1.2-0.1,1.7-0.2c0.6-0.1,1.2-0.4,1.6-0.8
		c0.5-0.4,0.9-1,1.2-1.7c0.3-0.7,0.4-1.7,0.4-2.8c0-1.2-0.1-2-0.4-2.8C124.1,192.2,123.7,191.7,123.2,191.3z"/>
	<path fill="#FF8300" d="M186.8,196l-0.8-1.9c-0.1-0.2-0.2-0.3-0.3-0.3s-0.2,0.1-0.3,0.3l-1.5,3.7c-0.1,0.2-0.1,0.3,0,0.5
		c0.1,0.1,0.3,0.2,0.5,0.2h2.6c0.2,0,0.3-0.1,0.4-0.2c0.1-0.1,0.1-0.3,0-0.5L186.8,196z"/>
	<path fill="#FF8300" d="M167.5,191.3c-0.4-0.4-1-0.6-1.6-0.8c-0.6-0.1-1.2-0.2-1.7-0.2H162c-0.4-0.1-0.7,0.3-0.7,0.6
		c0,0.1,0,0.1,0,0.1v9.5c0,0.2,0.1,0.4,0.2,0.5c0.1,0.1,0.3,0.3,0.5,0.3h2.2c0.6,0,1.2-0.1,1.7-0.2c0.6-0.1,1.2-0.4,1.6-0.8
		c0.5-0.4,0.9-1,1.2-1.7c0.3-0.7,0.4-1.7,0.4-2.8c0-1.2-0.1-2-0.4-2.8C168.4,192.2,168,191.7,167.5,191.3z"/>
	<path fill="#FF8300" d="M270-0.6H29.4c-16.5,0-30,13.5-30,30V270c0,16.5,13.5,30,30,30H270c16.5,0,30-13.5,30-30V29.4
		C300,12.9,286.5-0.6,270-0.6z M100.1,89.6C110,90,118,93.9,118,93.9c10.6,5.1,5.1,11.1,5.1,11.1c-6.6,10,3.9,14.3,3.9,14.3
		s2.4,1.2,7,2.6c0,0,1.5,0.5,2.9,0.6c0.8-4.8,2.4-8.8,3.7-11.8c0,0,1.7-4.4,4.7-6.7c0,0-1.4-0.4-2.4-2.6c0,0,3.1,0.3,6.3-1.8
		c3.1-2.1,5.3-3.5,6.7-4c1.5-0.3,2.4,0.6,2.8,1.8c0,0,0.4-0.1,1.1-0.3c-0.3-0.8-0.6-1.9-1-2.7c-0.8-2-1.7-3.8-2.8-5
		c-0.2-0.3-0.4-0.4-0.7-0.6c0,0-0.1,0-0.1-0.1l0,0l0,0h0.1h-0.2h-0.1c-0.4,0-1.2,0.3-1.9,0.7c-1.3,0.8-2.5,1.8-3.7,2.7
		c-1.1,1-2.1,1.8-3.1,2.5c-0.1,0.1-0.3,0.1-0.4,0.3c0,0-1.9,1.9-5.6-0.5c-2.3-1.1-4.5-1.9-5.1-2.1c-1.3-0.5-1.6-0.9-2.3-1.5
		c-0.7-0.6-0.4-1.7-0.1-1.5l0.6,0.5c1.1,1.1,2.4,0.1,2.4,0.1c-0.6-0.5-0.8-2.9-1.5-3.1c-0.8-0.1-0.6,1.5-0.8,1.3
		c-0.2-0.2-0.3-0.3-0.3-0.3c-0.8-1.9,1.1-4.4,2.4-4c1.1,0.3,4.5,4.4,6.4,6.9c0.7,0.8,2.1,2,3.6,1c0.1-0.1,0.3-0.3,0.5-0.4
		c0.5-0.5,0.9-0.8,1.2-1.1c0.1-0.1,0.2-0.2,0.3-0.3c1.1-1,2.3-2.1,3.9-3.2c0.8-0.5,1.7-1.1,3.1-1.3c0.1,0,0.4-0.1,0.5-0.1
		c0.1,0-0.1,0,0.3,0h0.3c0.2,0,0.5,0.1,0.8,0.2c0.3,0.1,0.4,0.1,0.6,0.3c0.7,0.4,1.2,0.8,1.7,1.2c1.7,1.8,2.8,3.8,3.8,6
		c0.5,1.1,1,2.2,1.3,3.5c1.5-0.1,2.9-0.1,3.8,0.5c2.4,1.6-1,8.1-1,8.1s-0.4-2-1.4-2.2c-1-0.1-9,4.3-9.6,10c-0.3,3.5,1.2,8.5,1.7,9.9
		l0.2-0.2c0.3-0.3,0.4-0.5,0.6-0.8c0.2-0.3,0.4-0.5,0.6-0.8c0.3-0.5,0.7-1,1-1.6c0.1-0.3,0.3-0.5,0.4-0.8l0.4-0.9l0.2-0.4l0.1-0.4
		l0.3-0.9c0.1-0.6,0.3-1.2,0.4-1.9c0.1-0.6,0.1-1.2,0.2-1.8c0-0.6,0-1.3,0.1-2c0-0.6,0-1.3-0.1-1.9c0-0.6-0.1-1.1-0.2-1.7
		c1.2-0.9,3.1-2.4,3.7-2.2c0.6,0,0.9,0.9,0.9,0.9c0.1,0.8,0.2,1.9,0.3,2.8l0.1,2.1v2.2c0,0.8-0.1,1.6-0.2,2.4
		c-0.1,0.8-0.3,1.5-0.4,2.4c-0.8,3.1-2.3,6.2-4.5,8.8l-0.8,1c-0.3,0.3-0.6,0.6-0.9,0.9c-0.6,0.6-1.3,1.1-1.9,1.6
		c-1.3,1-2.8,1.9-4.2,2.7c-1.4,0.8-2.9,1.5-4.4,2.2l-4.4,1.9c-2.9,1.2-5.8,2.5-8.3,4.2c-2.5,1.6-4.7,3.7-5.9,6.3
		c-0.9,1.6-1.2,3.5-1.2,5.4c-4.1-2.6-3.5-6.7-3.5-6.7c-11.7-2.8-19.6-9.1-19.6-9.1c7.9-2,10.4-5.8,10.4-5.8
		c-4.9,2.4-10.9,3.3-10.9,3.3c-2.8,0.5-5.4-1-5.4-1c-8.1-4.7-13.8-16.2-13.8-16.2c5.6-0.8,10.6-4.9,10.6-4.9
		c-9.2,2-15.8,2.2-15.8,2.2c-4,0.4-7.4-2.8-7.4-2.8L48,86.7C63.1,88.5,90.1,89.1,100.1,89.6z M131.6,162.5V178
		c0,0.1-0.1,0.3-0.1,0.4c-0.1,0.1-0.3,0.1-0.4,0.1h-3.4c-0.1,0-0.3-0.1-0.4-0.1c-0.1-0.1-0.1-0.3-0.1-0.4v-15.4
		c0-0.1,0.1-0.3,0.1-0.4c0.1-0.1,0.3-0.1,0.4-0.1h3.4c0.1,0,0.3,0.1,0.4,0.1C131.5,162.2,131.6,162.4,131.6,162.5z M75.4,200.9
		L75.4,200.9c-0.6,1-1.2,1.8-1.9,2.6c-0.7,0.8-1.5,1.4-2.4,2c-0.9,0.5-1.9,1-2.9,1.3c-1,0.3-2.2,0.4-3.5,0.4c-1.6,0-3.1-0.3-4.5-0.9
		s-2.6-1.4-3.7-2.4s-1.9-2.2-2.4-3.6c-0.6-1.3-0.9-2.9-0.9-4.4c0-1.5,0.3-3,0.9-4.4c0.6-1.4,1.4-2.6,2.4-3.6c1-1,2.2-1.9,3.7-2.4
		s2.9-0.9,4.5-0.9c1.3,0,2.5,0.1,3.5,0.4c1,0.3,2,0.7,2.9,1.3c0.8,0.5,1.6,1.2,2.3,2c0.7,0.8,1.3,1.7,1.9,2.6
		c0.1,0.1,0.1,0.3,0.1,0.5c-0.1,0.2-0.2,0.3-0.4,0.4l-4.2,1.5c-0.2,0.1-0.4,0.1-0.6,0s-0.4-0.2-0.4-0.4c-0.6-1-1.3-1.6-2.1-2.1
		c-0.8-0.5-1.8-0.8-2.9-0.8c-0.8,0-1.5,0.1-2.1,0.5c-0.6,0.3-1.3,0.8-1.7,1.3c-0.5,0.5-0.9,1.2-1.2,1.9c-0.3,0.7-0.4,1.5-0.4,2.2
		c0,0.8,0.1,1.5,0.4,2.2c0.3,0.7,0.6,1.3,1.2,1.9c0.5,0.5,1.1,1,1.7,1.3s1.4,0.5,2.1,0.5c1.1,0,2-0.3,2.9-0.8c0.9-0.5,1.6-1.2,2.1-2
		c0.1-0.1,0.3-0.3,0.4-0.4c0.2-0.1,0.4-0.1,0.6,0l4.2,1.7c0.2,0.1,0.3,0.2,0.4,0.4C75.6,200.5,75.5,200.7,75.4,200.9z M83.7,185.5
		V206c0,0.2-0.1,0.4-0.2,0.5c-0.1,0.1-0.3,0.2-0.5,0.2h-4.5c-0.2,0-0.4-0.1-0.5-0.2c-0.1-0.1-0.2-0.3-0.2-0.5v-20.6
		c0-0.2,0.1-0.4,0.2-0.5c0.1-0.1,0.3-0.2,0.5-0.2H83c0.4-0.1,0.7,0.3,0.7,0.6C83.7,185.3,83.7,185.4,83.7,185.5z M87.3,178
		c0,0.1-0.1,0.3-0.1,0.4c-0.1,0.1-0.3,0.1-0.4,0.1h-3.4c-0.1,0-0.3-0.1-0.4-0.1c-0.1-0.1-0.1-0.3-0.1-0.4v-7.3
		c0-0.1-0.1-0.3-0.2-0.3c-0.1,0-0.3,0-0.3,0.1l-3.8,6.1c-0.1,0.1-0.2,0.2-0.4,0.2s-0.3-0.1-0.4-0.2l-3.8-6.1
		c-0.1-0.1-0.2-0.2-0.3-0.1c-0.1,0.1-0.2,0.1-0.2,0.3v7.3c0,0.1-0.1,0.3-0.1,0.4s-0.3,0.1-0.4,0.1h-3.4c-0.1,0-0.3-0.1-0.4-0.1
		c-0.1-0.1-0.1-0.3-0.1-0.4v-15.4c0-0.1,0.1-0.3,0.1-0.4c0.1-0.1,0.3-0.1,0.4-0.1h3.1c0.1,0,0.3,0.1,0.5,0.1
		c0.1,0.1,0.3,0.2,0.4,0.3l4.3,6.4c0.1,0.1,0.2,0.2,0.3,0.2c0.1,0,0.2-0.1,0.3-0.2l4.3-6.4c0.1-0.1,0.3-0.3,0.4-0.3
		c0.1-0.1,0.3-0.1,0.5-0.1h3.1c0.1,0,0.3,0.1,0.4,0.1c0.1,0.1,0.2,0.2,0.2,0.4l0,0V178H87.3z M106.6,185.5v12.2
		c0,1.4-0.2,2.8-0.6,3.9c-0.4,1.2-1.1,2.2-1.9,2.9c-0.8,0.8-1.9,1.5-3,1.9s-2.4,0.7-3.9,0.7c-1.5,0-2.8-0.3-3.9-0.7s-2.2-1.1-3-1.9
		c-0.8-0.8-1.5-1.8-2-2.9c-0.4-1.2-0.7-2.4-0.7-3.9v-12.2l0,0c-0.1-0.4,0.3-0.7,0.6-0.7c0.1,0,0.1,0,0.1,0h4.5
		c0.4-0.1,0.7,0.3,0.7,0.6c0,0.1,0,0.1,0,0.1v12.2c0,0.8,0.1,1.5,0.4,2s0.6,0.9,1,1.2c0.4,0.3,0.8,0.5,1.2,0.6
		c0.4,0.1,0.8,0.2,1.2,0.2s0.7-0.1,1.2-0.2c0.4-0.1,0.8-0.3,1.2-0.6c0.4-0.3,0.6-0.7,0.9-1.2c0.3-0.5,0.4-1.2,0.4-2v-12.2
		c-0.1-0.4,0.3-0.7,0.6-0.7c0.1,0,0.1,0,0.1,0h4.5c0.4-0.1,0.7,0.3,0.7,0.6C106.6,185.3,106.6,185.4,106.6,185.5z M106.1,173.6
		c-0.4,1-1,2-1.9,2.8c-0.8,0.8-1.7,1.4-2.7,1.9c-1,0.4-2.1,0.7-3.3,0.7s-2.2-0.3-3.3-0.7c-1-0.4-1.9-1-2.7-1.9
		c-0.8-0.8-1.3-1.7-1.8-2.8c-0.4-1-0.6-2.1-0.6-3.3c0-1.2,0.2-2.3,0.6-3.3c0.4-1,1-2,1.8-2.8s1.7-1.4,2.7-1.9c1-0.4,2.1-0.7,3.3-0.7
		s2.2,0.3,3.3,0.7c1,0.4,1.9,1,2.7,1.9c0.8,0.8,1.4,1.7,1.9,2.8c0.4,1,0.6,2.1,0.6,3.3C106.8,171.4,106.6,172.5,106.1,173.6z
		 M107.1,162.2c0.1-0.1,0.2-0.2,0.4-0.2h3.7c0.1,0,0.3,0.1,0.4,0.1c0.1,0.1,0.3,0.2,0.3,0.4l3.9,9.1c0.1,0.1,0.2,0.2,0.3,0.2
		c0.1,0,0.2-0.1,0.3-0.2l3.9-9.1c0.1-0.1,0.2-0.3,0.3-0.4c0.1-0.1,0.3-0.1,0.4-0.1h3.7c0.1,0,0.3,0.1,0.4,0.2c0.1,0.1,0.1,0.3,0,0.4
		l-6.9,15.5c-0.1,0.1-0.2,0.3-0.3,0.4c-0.1,0.1-0.3,0.1-0.4,0.1h-2.9c-0.1,0-0.3-0.1-0.4-0.1c-0.2-0.1-0.3-0.2-0.4-0.3l0,0
		l-6.8-15.4C107,162.5,107,162.3,107.1,162.2z M124.1,206c-1.3,0.4-2.7,0.7-4.3,0.7h-8.1c-0.2,0-0.4-0.1-0.5-0.2
		c-0.1-0.1-0.2-0.3-0.2-0.5v-20.6c-0.1-0.4,0.3-0.7,0.6-0.7c0.1,0,0.1,0,0.1,0h8.1c3.1,0,5.7,1,7.7,2.8c1.1,1,1.9,2.2,2.4,3.6
		c0.6,1.4,0.8,2.9,0.8,4.7s-0.3,3.3-0.8,4.7c-0.6,1.4-1.4,2.6-2.4,3.6C126.5,204.9,125.4,205.6,124.1,206z M153.2,206.4
		c-0.1,0.2-0.3,0.3-0.6,0.3h-5.1c-0.2,0-0.4-0.1-0.6-0.2c-0.2-0.1-0.3-0.3-0.4-0.4l-0.8-1.8c-0.1-0.2-0.3-0.3-0.4-0.5
		c-0.2-0.1-0.4-0.2-0.6-0.2h-6.3c-0.2,0-0.4,0.1-0.6,0.2c-0.2,0.1-0.3,0.3-0.4,0.5l-0.8,1.8c-0.1,0.2-0.2,0.3-0.4,0.4
		c-0.2,0.1-0.4,0.2-0.6,0.2h-5.1c-0.1,0-0.2,0-0.3-0.1c-0.1,0-0.2-0.1-0.3-0.2c-0.1-0.1-0.1-0.2-0.1-0.3s0-0.3,0.1-0.4l8.6-20.4
		c0.1-0.2,0.2-0.3,0.4-0.5c0.2-0.1,0.4-0.2,0.6-0.2h4.2c0.2,0,0.4,0.1,0.6,0.2c0.2,0.1,0.3,0.3,0.4,0.5l8.7,20.5
		C153.3,206,153.3,206.2,153.2,206.4z M153.4,178c0,0.1-0.1,0.3-0.1,0.4c-0.1,0.1-0.3,0.1-0.4,0.1h-3.4c-0.1,0-0.3-0.1-0.4-0.1
		c-0.1-0.1-0.1-0.3-0.1-0.4v-7.3c0-0.1-0.1-0.3-0.2-0.3s-0.3,0-0.3,0.1l-3.8,6.1c-0.1,0.1-0.2,0.2-0.4,0.2c-0.1,0-0.3-0.1-0.4-0.2
		l-3.8-6.1c-0.1-0.1-0.2-0.2-0.3-0.1c-0.1,0-0.2,0.1-0.2,0.3v7.3c0,0.1-0.1,0.3-0.1,0.4c-0.1,0.1-0.3,0.1-0.4,0.1h-3.4
		c-0.1,0-0.3-0.1-0.4-0.1c-0.1-0.1-0.1-0.3-0.1-0.4v-15.4c0-0.1,0.1-0.3,0.1-0.4c0.1-0.1,0.3-0.1,0.4-0.1h3.1c0.1,0,0.3,0.1,0.5,0.1
		c0.1,0.1,0.3,0.2,0.4,0.3l4.3,6.4c0.1,0.1,0.2,0.2,0.3,0.2c0.1,0,0.2-0.1,0.3-0.2l4.3-6.4c0.1-0.1,0.3-0.3,0.4-0.3
		c0.1-0.1,0.3-0.1,0.5-0.1h3.1c0.1,0,0.3,0.1,0.4,0.1c0.1,0.1,0.1,0.2,0.1,0.4V178H153.4z M168.4,206c-1.3,0.4-2.7,0.7-4.3,0.7h-8.1
		c-0.2,0-0.4-0.1-0.5-0.2c-0.1-0.1-0.2-0.3-0.2-0.5l0,0v-20.6c-0.1-0.4,0.3-0.7,0.6-0.7c0.1,0,0.1,0,0.1,0h8.1c3.1,0,5.7,1,7.7,2.8
		c1.1,1,1.9,2.2,2.4,3.6c0.6,1.4,0.8,2.9,0.8,4.7s-0.3,3.3-0.8,4.7c-0.6,1.4-1.4,2.6-2.4,3.6C170.8,204.9,169.7,205.6,168.4,206z
		 M157.7,178v-15.4c0-0.1,0.1-0.3,0.1-0.4c0.1-0.1,0.3-0.1,0.4-0.1h3.4c0.1,0,0.3,0.1,0.4,0.1c0.1,0.1,0.1,0.3,0.1,0.4V178
		c0,0.1-0.1,0.3-0.1,0.4c-0.1,0.1-0.3,0.1-0.4,0.1h-3.4c-0.1,0-0.3-0.1-0.4-0.1C157.8,178.2,157.7,178.1,157.7,178z M170.3,168
		c0.1,0.1,0.3,0.1,0.4,0.1h6.1c0.1,0,0.3,0.1,0.4,0.1c0.1,0.1,0.1,0.3,0.1,0.4v3.1c0,0.1-0.1,0.3-0.1,0.4s-0.3,0.1-0.4,0.1h-6.1
		c-0.1,0-0.3,0.1-0.4,0.1c-0.1,0.1-0.1,0.3-0.1,0.4v0.9c0,0.1,0.1,0.3,0.1,0.4s0.3,0.1,0.4,0.1h7c0.1,0,0.3,0.1,0.4,0.1
		c0.1,0.1,0.1,0.3,0.1,0.4v3.1c0,0.1-0.1,0.3-0.1,0.4c-0.1,0.1-0.3,0.1-0.4,0.1h-11.4c-0.1,0-0.3-0.1-0.4-0.1
		c-0.1-0.1-0.1-0.3-0.1-0.4v-15.4c0-0.1,0.1-0.3,0.1-0.4c0.1-0.1,0.3-0.1,0.4-0.1h11.4c0.1,0,0.3,0.1,0.4,0.1
		c0.1,0.1,0.1,0.3,0.1,0.4v3.1c0,0.1-0.1,0.3-0.1,0.4c-0.1,0.1-0.3,0.1-0.4,0.1h-7c-0.1,0-0.3,0.1-0.4,0.1c-0.1,0.1-0.1,0.3-0.1,0.4
		l0,0v1C170.2,167.8,170.2,167.9,170.3,168z M197.5,206.4c-0.1,0.2-0.3,0.3-0.6,0.3h-5.1c-0.2,0-0.4-0.1-0.6-0.2
		c-0.2-0.1-0.3-0.3-0.4-0.4l-0.8-1.8c-0.1-0.2-0.3-0.3-0.4-0.5c-0.2-0.1-0.4-0.2-0.6-0.2h-6.3c-0.2,0-0.4,0.1-0.6,0.2
		c-0.2,0.1-0.3,0.3-0.4,0.5l-0.8,1.8c-0.1,0.2-0.2,0.3-0.4,0.4s-0.4,0.2-0.6,0.2h-5.1c-0.1,0-0.2,0-0.3-0.1c-0.1,0-0.2-0.1-0.3-0.2
		c-0.1-0.1-0.1-0.2-0.1-0.3s0-0.3,0.1-0.4l8.6-20.4c0.1-0.2,0.2-0.3,0.4-0.5c0.2-0.1,0.4-0.2,0.6-0.2h4.2c0.2,0,0.4,0.1,0.6,0.2
		s0.3,0.3,0.4,0.5l8.7,20.5C197.6,206,197.6,206.2,197.5,206.4z M181.6,178v-15.4c0-0.1,0.1-0.3,0.1-0.4c0.1-0.1,0.3-0.1,0.4-0.1
		h3.4c0.1,0,0.3,0,0.5,0.1c0.1,0.1,0.3,0.2,0.4,0.3l5.8,8.3c0.1,0.1,0.2,0.2,0.3,0.1c0.1,0,0.1-0.1,0.1-0.3v-8.1
		c0-0.1,0.1-0.3,0.1-0.4c0.1-0.1,0.3-0.1,0.4-0.1h3.3c0.1,0,0.3,0.1,0.4,0.1c0.1,0.1,0.1,0.3,0.1,0.4V178c0,0.1-0.1,0.3-0.1,0.4
		s-0.3,0.1-0.4,0.1h-3.3c-0.1,0-0.3-0.1-0.5-0.1c-0.1-0.1-0.3-0.2-0.4-0.3l-5.8-8.3c-0.1-0.1-0.2-0.2-0.3-0.1
		c-0.1,0-0.1,0.1-0.1,0.3v8.1c0,0.1-0.1,0.3-0.1,0.4c-0.1,0.1-0.3,0.1-0.4,0.1h-3.4c-0.1,0-0.3-0.1-0.4-0.1
		C181.6,178.2,181.6,178.1,181.6,178z M220.1,206c0.1,0.4-0.3,0.7-0.6,0.7c-0.1,0-0.1,0-0.1,0h-4.4c-0.2,0-0.4-0.1-0.6-0.2
		c-0.2-0.1-0.4-0.3-0.5-0.4l-7.8-11c-0.1-0.1-0.3-0.3-0.4-0.2c-0.1,0-0.2,0.1-0.2,0.4V206c0.1,0.4-0.3,0.7-0.6,0.7
		c-0.1,0-0.1,0-0.1,0h-4.5c-0.4,0.1-0.7-0.3-0.7-0.6c0-0.1,0-0.1,0-0.1v-20.6c-0.1-0.4,0.3-0.7,0.6-0.7c0.1,0,0.1,0,0.1,0h4.5
		c0.2,0,0.4,0.1,0.6,0.1c0.2,0.1,0.4,0.3,0.5,0.4l7.8,11.1c0.1,0.1,0.3,0.3,0.4,0.2s0.2-0.1,0.2-0.3v-10.8c-0.1-0.4,0.3-0.7,0.6-0.7
		c0.1,0,0.1,0,0.1,0h4.4c0.2,0,0.4,0.1,0.5,0.2c0.2,0.1,0.3,0.3,0.3,0.5L220.1,206L220.1,206z M203.7,166.3
		c-0.1-0.1-0.3-0.1-0.4-0.1h-3.2c-0.1,0-0.3-0.1-0.4-0.1c-0.1-0.1-0.1-0.3-0.1-0.4v-3.1c0-0.1,0.1-0.3,0.1-0.4
		c0.1-0.1,0.3-0.1,0.4-0.1h11.8c0.1,0,0.3,0.1,0.4,0.1c0.1,0.1,0.1,0.3,0.1,0.4v3.1c0,0.1-0.1,0.3-0.1,0.4c-0.1,0.1-0.3,0.1-0.4,0.1
		l0,0h-3.1c-0.1,0-0.3,0.1-0.4,0.1s-0.1,0.3-0.1,0.4v11.3c0,0.1-0.1,0.3-0.1,0.4s-0.3,0.1-0.4,0.1h-3.4c-0.1,0-0.3-0.1-0.4-0.1
		c-0.1-0.1-0.1-0.3-0.1-0.4v-11.3C203.9,166.5,203.8,166.4,203.7,166.3z M218.8,178.1c-1-0.4-1.9-1-2.7-1.9
		c-0.8-0.8-1.3-1.7-1.8-2.8c-0.4-1-0.6-2.1-0.6-3.3c0-1.2,0.2-2.3,0.6-3.3c0.4-1,1-2,1.8-2.8s1.7-1.4,2.7-1.9c1-0.4,2.1-0.7,3.3-0.7
		c1.2,0,2.2,0.3,3.3,0.7c1,0.4,1.9,1,2.7,1.9c0.8,0.8,1.4,1.7,1.9,2.8c0.4,1,0.6,2.1,0.6,3.3c0,1.2-0.2,2.3-0.6,3.3
		c-0.4,1-1,2-1.9,2.8c-0.8,0.8-1.7,1.4-2.7,1.9c-1,0.4-2.1,0.7-3.3,0.7S219.9,178.6,218.8,178.1z M244.5,200.1
		c-0.6,1.3-1.4,2.6-2.4,3.7c-1,1-2.2,1.9-3.6,2.4c-1.4,0.6-2.8,0.9-4.4,0.9c-1.5,0-3-0.3-4.4-0.9c-1.4-0.6-2.6-1.4-3.6-2.4
		c-1-1-1.9-2.2-2.4-3.7c-0.6-1.4-0.9-2.9-0.9-4.4s0.3-3,0.9-4.4c0.6-1.3,1.4-2.6,2.4-3.7c1-1,2.2-1.9,3.6-2.4
		c1.4-0.6,2.8-0.9,4.4-0.9c1.5,0,3,0.3,4.4,0.9c1.4,0.6,2.6,1.4,3.6,2.4c1,1,1.9,2.2,2.4,3.7c0.6,1.4,0.9,2.9,0.9,4.4
		S245.1,198.7,244.5,200.1z M225.9,110.4c0,0-3.4,3.2-7.4,2.8c0,0-6.7-0.1-15.8-2.2c0,0,4.9,4.2,10.5,4.9c0,0-5.8,11.6-13.8,16.2
		c0,0-2.8,1.5-5.4,1c0,0-6-0.8-10.9-3.3c0,0,2.5,3.8,10.4,5.8c-6.3,5.3-15.3,7.9-21.1,9.1c-17.9-3.7-22.4,6.7-22.4,6.7
		s-3.3-7.6-15.3-7.5c0.6-0.6,1.5-1.3,2.9-2.3c0.1,0,0.1-0.1,0.1-0.1c2.4-1.6,5.3-2.9,7.9-4l4.4-1.9c1.5-0.6,3.1-1.4,4.5-2.2
		c1.5-0.8,2.9-1.7,4.4-2.9l0.4-0.4c0.3-0.3,0.6-0.4,0.8-0.7c1.3-1,2.4-2.4,2.4-2.4c0.9-1.1,2.4-3.1,3.5-5.6c4-1.2,6.8-2.4,6.8-2.4
		s10.4-4.4,3.9-14.3c0,0-5.6-6.1,5-11.1c0,0,7.9-3.9,17.9-4.4c10-0.4,37-1.1,52.4-3.2C251.9,86.3,232.4,104.6,225.9,110.4z"/>
	<path fill="#FF8300" d="M142.5,196l-0.8-1.9c-0.1-0.2-0.2-0.3-0.3-0.3s-0.2,0.1-0.3,0.3l-1.5,3.7c-0.1,0.2-0.1,0.3,0,0.5
		c0.1,0.1,0.3,0.2,0.5,0.2h2.6c0.2,0,0.3-0.1,0.4-0.2c0.1-0.1,0.1-0.3,0-0.5L142.5,196z"/>
	<path fill="#FF8300" d="M237.9,191.8c-0.5-0.5-1.1-1-1.7-1.2c-0.6-0.3-1.3-0.5-2.1-0.5c-0.8,0-1.5,0.1-2.1,0.5
		c-0.6,0.3-1.2,0.7-1.7,1.2c-0.5,0.5-0.9,1.1-1.2,1.8c-0.3,0.7-0.4,1.5-0.4,2.2c0,0.8,0.1,1.5,0.4,2.2c0.3,0.7,0.6,1.3,1.2,1.8
		c0.5,0.5,1,1,1.7,1.3c0.6,0.3,1.3,0.5,2.1,0.5c0.7,0,1.5-0.1,2.1-0.5c0.6-0.3,1.2-0.7,1.7-1.3c0.5-0.5,0.9-1.1,1.2-1.8
		c0.3-0.7,0.4-1.4,0.4-2.2c0-0.8-0.1-1.5-0.4-2.2C238.8,192.8,238.4,192.3,237.9,191.8z"/>
</g>
</svg>
