<?xml version="1.0" encoding="utf-8"?>
<!-- Generator: Adobe Illustrator 21.0.0, SVG Export Plug-In . SVG Version: 6.00 Build 0)  -->
<svg version="1.2" baseProfile="tiny" id="Capa_1" xmlns="http://www.w3.org/2000/svg" xmlns:xlink="http://www.w3.org/1999/xlink"
	 x="0px" y="0px" width="1000px" height="1000px" viewBox="0 0 1000 1000" xml:space="preserve">
<path fill="#F9F9F9" d="M101,0.3h799.3c55,0,100.3,45.2,100.3,100.1l0,799.7c0,55-45.2,100.1-100.3,100.1H101
	c-55,0-100.3-45.2-100.3-100.1l0-800.4C1.5,45.5,46,0.3,101,0.3z"/>
<path fill="#B5261E" d="M117.1,527V426.8c0-15.4-5.8-20.6-21.5-19c-5.1,0.6-9.9,1.6-15.3,2.5v116.6h-45V377l30.3-3.9
	c2.7,3.3,5.5,6.3,8.5,9.7c12.1-5.4,24.1-10.2,37.5-9.7c13.1,0.5,25.4,3.1,36.3,11c21-9.8,40.8-12.9,62.2-9.2
	c18.5,3.3,28.1,15.6,31.5,33.2c1,5.3,1.5,10.8,1.5,16.1l0.1,97.8c0,1.6-0.2,3.2-0.3,5.1h-45v-99c0-3.7-0.1-7.7-1-11.3
	c-1.5-6.1-4.9-9.2-11.2-9.1c-7.7,0.1-15.3,1.1-23.6,2v117.4L117.1,527L117.1,527z M672.1,376.6l30.7-3.7l7.5,8.4
	c10.3-2.7,19.7-5.9,29.5-7.5c18.5-2.9,35.7,1,49.9,13.8c10.3,9.3,16.2,21,17.5,34.5c0.3,3.7,0.6,7.7,0.6,11.4v93.2h-45.9l-0.1-95.5
	c-0.1-10.5-2-21.1-12.9-23.2c-10.5-1.9-21-0.1-31.9,2V527H672L672.1,376.6L672.1,376.6z M849.3,415l-10.7-26.4
	c0.7-0.5,1.2-1.1,2-1.3c15-5.8,30.2-11.1,46.1-13.7c19-3.1,36,1.9,50.6,14.3c10.3,8.7,14.9,20.3,14.9,33.5v72.9l12.7,0.6l6,24.2
	c-8.4,4.3-17.3,6.9-26.2,9.6c-15.6,2.9-24.5-2.9-33-10.4c-9.8,5.3-20.1,9.6-31.2,11.2c-18.5,2.8-34.5-2.8-46.4-17
	c-11.5-13.5-14.1-29.3-7.6-45.6c7-17.9,21.7-27.3,40.6-29.3c9.6-1,19.4,0.2,29.4,0.5c3.4,0.1,6.8,0.6,11,0.9
	c0.5-7.1,1.1-13.9-0.5-20.5c-2-7.9-11.1-13-20.4-11.6C873.1,408.2,860.5,412.9,849.3,415L849.3,415z M907.3,466.6
	c-8.1,0-15.9-0.2-23.8,0c-8.2,0.2-14.1,5.9-14.5,13.4c-0.2,8.3,5.8,15.7,13.7,16.4c8.4,0.7,16.4-1,24.9-2.7
	C907.6,484.9,907.8,474.8,907.3,466.6L907.3,466.6z M339.7,530.4c-38,0-66.1-23.4-72.3-60.1c-2.6-15.7-2.3-31.5,2.5-46.8
	c11.3-36.5,43.2-53.6,79.1-49.7c41,4.3,60.4,34.4,64.2,64.8c1.7,12.5,1.1,24.7-2,36.9C402.8,509.9,376,530.4,339.7,530.4
	L339.7,530.4z M368.6,451.5c-0.5-11.4-0.9-22.9-6.8-33.2c-9.7-17.1-33.6-17.3-43.5-0.5c-1.9,3.1-3.2,6.5-4.2,9.8
	c-3.7,13-4,26.6-1.7,39.7c1.1,6.6,3.5,13,6.6,19c4.2,8.1,11.8,11.8,21.1,11.7c11.1-0.1,18.3-5.8,22.7-15.2
	C367.7,473.1,368.2,462.3,368.6,451.5L368.6,451.5z M649.9,463.4l-84.2-1.8c0,21.6,14.2,36.1,35.1,34.8c15.7-1.2,30.6-4.4,43.8-6.9
	l3.4,26.8c-13.3,6.8-26.9,10.7-41,12.9c-11,1.7-21.9,2.8-32.9,0.7c-22.1-4.1-37.5-17.2-46.1-37.3c-11.1-26.3-11.3-53.2-0.9-79.5
	c12-30.6,40-42.1,70.3-39.4c4.7,0.5,9.4,1.1,13.9,2.4c22.8,6.1,36,21.6,40.9,43.8C655.1,434.8,656.7,451.3,649.9,463.4L649.9,463.4z
	 M610,433c-0.1-8.6-2.7-16.1-7-21.2c-7.6-8.9-24.1-8.6-31,0.8c-4.4,5.9-5.6,12.9-5.9,20.5L610,433L610,433z M476.8,527.3h-44.5
	V376.7l30.6-3.5l8.5,12.9c17.3-10.3,31.2-13.9,48.3-16.7l-5.8,41.3l-37.1,5L476.8,527.3L476.8,527.3z"/>
</svg>
