<?xml version="1.0" encoding="utf-8"?>
<!-- Generator: Adobe Illustrator 21.0.0, SVG Export Plug-In . SVG Version: 6.00 Build 0)  -->
<svg version="1.2" baseProfile="tiny" id="Capa_1" xmlns="http://www.w3.org/2000/svg" xmlns:xlink="http://www.w3.org/1999/xlink"
	 x="0px" y="0px" width="473.3px" height="473.3px" viewBox="0 0 473.3 473.3" xml:space="preserve">
<path fill="#06338E" d="M423.2,473.3H50.1C22.5,473.3,0,450.8,0,423.2V50.1C0,22.5,22.5,0,50.1,0h373.1c27.6,0,50.1,22.5,50.1,50.1
	v373.1C473.3,450.8,450.8,473.3,423.2,473.3L423.2,473.3z"/>
<g transform="matrix(3.543307 0 0 3.543307 -1028.1561 -818.64151)">
	<path fill="#FFFFFF" d="M357,362.2c35.6,0,64.4-28.8,64.4-64.4s-28.8-64.4-64.4-64.4c-35.5,0-64.4,28.8-64.4,64.4
		S321.4,362.2,357,362.2z"/>
	<path fill="#06338E" d="M357,355.2c31.7,0,57.4-25.7,57.4-57.4s-25.7-57.4-57.4-57.4s-57.4,25.7-57.4,57.4S325.3,355.2,357,355.2z"
		/>
	<path fill="#FFFFFF" d="M357,347.5c27.4,0,49.7-22.2,49.7-49.7c0-27.4-22.2-49.7-49.7-49.7c-27.4,0-49.7,22.2-49.7,49.7
		S329.5,347.5,357,347.5z"/>
	<path fill="#06338E" d="M318.8,327.3v-58.8h20.3c3.4,0,4.9,4.4,4.9,8.9v18.2c0,5.2-1.6,10.7-6.5,10.7h-9.6v21.3h-9.1L318.8,327.3
		L318.8,327.3z M362.2,327.3l-1.3-7.8h-10.4l-1.3,7.8h-9.6l10.4-58.8h11.7l10.2,58.8H362.2z M381.5,268.5l6,20.6v-20.6h9.4v58.8
		h-9.1l-5.5-18v18h-9.4v-58.8H381.5z"/>
	<path fill="#FFFFFF" d="M332.4,296.7c1.6,0,1.8-1.7,1.8-3.3v-12c0-2.1-0.7-3-1.8-3h-4.5v18.3H332.4z M355.8,298.2l-2.6,12.5h5.2
		L355.8,298.2z"/>
</g>
</svg>
