<svg xmlns="http://www.w3.org/2000/svg" xmlns:xlink="http://www.w3.org/1999/xlink" viewBox="0 0 943.53 473.3"><path d="M423.2,473.3H50.1A50.19,50.19,0,0,1,0,423.2V50.1A50.19,50.19,0,0,1,50.1,0H423.2a50.19,50.19,0,0,1,50.1,50.1V423.2a50.19,50.19,0,0,1-50.1,50.1Z" fill="#06338e"/><path d="M236.8,464.7A228,228,0,0,0,465,236.5C465,110.3,362.9,8.4,236.8,8.4,111,8.4,8.6,110.4,8.6,236.6S110.7,464.7,236.8,464.7Z" fill="#fff"/><path d="M236.8 439.9c112.3 0 203.4-91.1 203.4-203.4S349.1 33.2 236.8 33.2s-203.4 91-203.4 203.4 91.1 203.3 203.4 203.3z" fill="#06338e"/><path d="M236.8,412.7c97.1,0,176.1-78.7,176.1-176.1,0-97.1-78.7-176.1-176.1-176.1-97.1,0-176.1,78.7-176.1,176.1A175.92,175.92,0,0,0,236.8,412.7Z" fill="#fff"/><path d="M101.4,341.1V132.7h71.9c12,0,17.4,15.6,17.4,31.5v64.5c0,18.4-5.7,37.9-23,37.9h-34v75.5H101.5v-1Zm153.8,0-4.6-27.6H213.7l-4.6,27.6h-34L212,132.7h41.5L289.6,341H255.2Zm68.4-208.4,21.3,73v-73h33.3V341H346l-19.5-63.8V341H293.2V132.7Z" fill="#06338e"/><path d="M149.6,232.7c5.7,0,6.4-6,6.4-11.7V178.5c0-7.4-2.5-10.6-6.4-10.6H133.7v64.8Zm83,5.3-9.2,44.3h18.4L232.6,238Z" fill="#fff"/><path d="M645.23 89.9c11.68 36.35 44.2 56.34 76.2 56.15a79.36 79.36 0 0 0 75-56c7.53 21.62 3.3 57.45-24.15 80.88a78.54 78.54 0 0 1-98 3.83c-30.44-22.2-37.2-59.27-29-84.9zM721 117.5A39.4 39.4 0 1 1 760.39 78 39.37 39.37 0 0 1 721 117.5z" fill="#632d79"/><path d="M528.9 88.87c15.2 46.28 71.2 60.7 106.46 27.78.52 2.92.84 5.65 1.43 8.37a128.22 128.22 0 0 0 4.61 17.14 3.71 3.71 0 0 1-.78 4.35c-17.46 18.37-38.3 28-63.74 22.27s-41.87-22.2-48.62-47.65a60.93 60.93 0 0 1 0-30.18 15.16 15.16 0 0 1 .65-2.08zm94.4-9.15a32.11 32.11 0 0 1-33.17 31.74c-17.46-.4-31.35-15.2-30.9-33a31.92 31.92 0 0 1 33-31.22c17.24.35 31.4 15.15 31.07 32.48z" fill="#d41a23"/><path d="M912 88.87c-15.2 46.28-71.2 60.7-106.46 27.78-.52 2.92-.84 5.65-1.43 8.37a128.23 128.23 0 0 1-4.61 17.14 3.71 3.71 0 0 0 .78 4.35c17.46 18.37 38.3 28 63.74 22.27s41.87-22.2 48.62-47.65a60.93 60.93 0 0 0 0-30.18 9.23 9.23 0 0 0-.65-2.08zm-94.36-9.15a32.11 32.11 0 0 0 33.17 31.74c17.46-.4 31.35-15.2 30.9-33a32 32 0 0 0-64.07 1.23z" fill="#0a74b4"/><path d="M569.87 237.72h-28.3a7.49 7.49 0 0 0 3.83 5.91 16.21 16.21 0 0 0 8.6 2.07 38.79 38.79 0 0 0 12.2-1.82l1.75 9a40.19 40.19 0 0 1-15.84 2.79q-10.9 0-17.14-5.84c-4.15-3.9-6.23-9.22-6.23-15.9a23.34 23.34 0 0 1 6-16c4-4.48 9.35-6.75 16-6.75 6.23 0 11 2 14.4 6s5.13 9.15 5.13 15.38a20 20 0 0 1-.45 5.19zm-28.37-9.22h16.36a10.35 10.35 0 0 0-1.75-5.71c-1.17-1.82-3.18-2.73-6-2.73a7.78 7.78 0 0 0-5.78 2.34 10.35 10.35 0 0 0-2.86 6.1zm34.8 26.16v-28.9c0-4.22-.13-8.76-.32-13.63h11.68l.58 6h.32a15.45 15.45 0 0 1 13.5-6.95 14.4 14.4 0 0 1 11.44 4.81c2.86 3.25 4.22 7.8 4.22 13.7v25h-13.5v-23.2c0-6.3-2.34-9.48-7.08-9.48a7.09 7.09 0 0 0-5.13 2.21 8.18 8.18 0 0 0-2.27 6.17v24.34l-13.44-.06zm81.33-10.96l1.62 9.8a32.41 32.41 0 0 1-12.46 2.08c-7 0-12.6-1.95-16.8-5.9s-6.23-9.28-6.23-15.9a21.44 21.44 0 0 1 6.75-16.29c4.48-4.22 10.58-6.36 18.24-6.36a29.78 29.78 0 0 1 10.52 1.75L657 222.8a20.26 20.26 0 0 0-7.72-1.36 11.34 11.34 0 0 0-8.5 3.31 11.76 11.76 0 0 0-3.25 8.5 11.25 11.25 0 0 0 3.38 8.63 12 12 0 0 0 8.63 3.18 20.39 20.39 0 0 0 8-1.36zM706 212.14V241c0 4.54.13 9.15.32 13.76h-11.7l-.58-6.17h-.32c-3 4.74-7.6 7.14-13.63 7.14-4.87 0-8.63-1.56-11.36-4.74s-4-7.8-4-13.76v-25h13.5v22.72c0 6.7 2.34 10 6.95 10a7.54 7.54 0 0 0 7.4-7.59V212.2l13.44-.06zm47.3 25.58H725a7.49 7.49 0 0 0 3.83 5.91 16.21 16.21 0 0 0 8.63 2.08 38.79 38.79 0 0 0 12.2-1.82l1.75 9a40.19 40.19 0 0 1-15.84 2.79q-10.9 0-17.14-5.84c-4.15-3.9-6.17-9.22-6.17-15.9a23.34 23.34 0 0 1 6-16c4-4.48 9.35-6.75 16-6.75 6.23 0 11 2 14.4 6s5.13 9.15 5.13 15.38a17.3 17.3 0 0 1-.52 5.19zM725 228.5h16.36a10.35 10.35 0 0 0-1.75-5.71c-1.17-1.82-3.18-2.73-6-2.73a7.78 7.78 0 0 0-5.78 2.34 10 10 0 0 0-2.86 6.1zm34.8 26.16v-28.9c0-4.22-.13-8.76-.32-13.63h11.68l.58 6h.32a15.45 15.45 0 0 1 13.5-6.95A14.4 14.4 0 0 1 797 216c2.86 3.25 4.22 7.8 4.22 13.7v25h-13.5v-23.2c0-6.3-2.34-9.48-7.08-9.48a7.09 7.09 0 0 0-5.13 2.21 8.18 8.18 0 0 0-2.27 6.17v24.34l-13.44-.06zm51.28-50.56l13.1-3.57v11.55h9.67V222h-9.66v15c0 2.8.4 4.8 1.23 5.9a4.67 4.67 0 0 0 4.09 1.69 13.64 13.64 0 0 0 4.09-.45l.06 10.2a24.64 24.64 0 0 1-8.76 1.23 13.86 13.86 0 0 1-9.93-3.64c-2.6-2.4-3.9-6.7-3.9-12.8V222h-5.7v-9.93h5.7v-8zm28.62 50.56V226.3c0-6.36-.13-11.1-.32-14.15h11.55l.45 8.1h.32a13.54 13.54 0 0 1 4.87-6.75 12 12 0 0 1 7-2.34 9.73 9.73 0 0 1 2.86.26V224a15.91 15.91 0 0 0-3.64-.45 11.11 11.11 0 0 0-6.69 2.14c-1.95 1.43-2.92 3.9-2.92 7.47v21.5zm74.53-21.76c0 6.95-2.2 12.46-6.56 16.55s-9.87 6.1-16.5 6.1-12.14-2-16.42-6-6.43-9.35-6.43-15.9q0-10.13 6.43-16.36c4.28-4.15 10-6.17 17.07-6.17 6.62 0 12 2 16.16 6.1s6.24 9.32 6.24 15.68zm-32.07.52a15.73 15.73 0 0 0 2.47 9.15 7.93 7.93 0 0 0 13.11.06c1.62-2.27 2.47-5.4 2.47-9.28a16.14 16.14 0 0 0-2.34-9.09 7.47 7.47 0 0 0-6.56-3.51 7.71 7.71 0 0 0-6.75 3.57 15.85 15.85 0 0 0-2.4 9.1zM647.5 320l1.43-4.67a15.34 15.34 0 0 0 8 2.34 7.15 7.15 0 0 0 4.54-1.23 4.15 4.15 0 0 0 1.62-3.38 4.35 4.35 0 0 0-1.3-3.25 13.46 13.46 0 0 0-4.61-2.4c-5.84-2-8.7-5-8.7-9a8.65 8.65 0 0 1 3.12-6.75 12 12 0 0 1 8.24-2.73 15.81 15.81 0 0 1 8.11 1.95l-1.5 4.4a13.19 13.19 0 0 0-6.82-1.88 5.75 5.75 0 0 0-3.83 1.17 3.91 3.91 0 0 0-1.43 3.05 3.67 3.67 0 0 0 1.17 2.79 13.91 13.91 0 0 0 5 2.47c3.05 1.1 5.26 2.4 6.56 3.9a8 8 0 0 1 2 5.65 8.67 8.67 0 0 1-3.31 7c-2.2 1.75-5.2 2.66-9 2.66a18.41 18.41 0 0 1-9.3-2.09zm57.97-14.64a18.11 18.11 0 0 1-2.14 9 14.94 14.94 0 0 1-6 5.91 17.33 17.33 0 0 1-8.33 2.03 15.56 15.56 0 0 1-11.49-4.54 15.9 15.9 0 0 1-4.51-11.82q0-7.7 4.67-12.27a16.1 16.1 0 0 1 11.81-4.54 15.16 15.16 0 0 1 11.52 4.54 15.8 15.8 0 0 1 4.48 11.68zm-26.16.4a13 13 0 0 0 2.79 8.63 8.63 8.63 0 0 0 7 3.38 8.94 8.94 0 0 0 7.14-3.44 13.29 13.29 0 0 0 2.86-8.76 13.64 13.64 0 0 0-2.66-8.44 8.52 8.52 0 0 0-7.21-3.51A8.75 8.75 0 0 0 682 297a14 14 0 0 0-2.66 8.7zm54.85 9.98l1 4.6a21.48 21.48 0 0 1-9.48 1.88 16.26 16.26 0 0 1-11.88-4.48 15.85 15.85 0 0 1-4.54-11.68 16.43 16.43 0 0 1 4.87-12.27c3.25-3.18 7.53-4.74 12.8-4.74a18.93 18.93 0 0 1 8.37 1.75l-1.3 4.67a15.08 15.08 0 0 0-7-1.56 11 11 0 0 0-8.37 3.31 11.78 11.78 0 0 0-3.12 8.44c0 3.57 1 6.43 3.18 8.5a11.16 11.16 0 0 0 8.11 3.18 19.73 19.73 0 0 0 7.4-1.62zm13.76-35.57a3.72 3.72 0 0 1-1.1 2.73A3.92 3.92 0 0 1 744 284a3.76 3.76 0 0 1-2.79-1.1 3.83 3.83 0 0 1-1.1-2.73 3.78 3.78 0 0 1 4-3.83 4 4 0 0 1 2.79 1.1 3.48 3.48 0 0 1 1.1 2.73zm-.84 41.35H741v-31.74h6.1zm31.82-19.22v11.62a46.76 46.76 0 0 0 .52 7.59h-5.58l-.7-4.1a11.86 11.86 0 0 1-10.06 4.8 10.12 10.12 0 0 1-7.27-2.66 8.69 8.69 0 0 1-2.73-6.43 9.79 9.79 0 0 1 5-8.83c3.38-2 8.24-3.05 14.67-3.05v-.58a7.13 7.13 0 0 0-1.88-5.26 7.47 7.47 0 0 0-5.52-1.88 15.58 15.58 0 0 0-8.63 2.4l-1.36-4a19.88 19.88 0 0 1 11-2.86c4.15 0 7.27 1.17 9.35 3.44s3.25 5.52 3.25 9.8zm-6 8.37v-5.26c-5.13 0-8.63.58-10.65 1.82a5.65 5.65 0 0 0-3 5.06 5.34 5.34 0 0 0 1.49 4 5.4 5.4 0 0 0 4 1.43 8.32 8.32 0 0 0 5.84-2.14 6.46 6.46 0 0 0 2.35-4.91zm14.3 10.85v-46.67h6.1v46.67z" fill="#626f77"/><g fill="#6c2d79"><path d="M570.17 394c-6.1-1.7-11.5-3.5-17-5.6a10 10 0 0 0-2.9-.6c-10.1-.5-19.1-8-19.1-22.2 0-13.5 8.4-22.9 20.9-22.9s20.2 9.7 20.2 22c0 10.6-4.9 17.6-11.3 20.2v.3c3.8 1 8 1.9 11.5 2.7zm-6.5-29c0-8.4-4.1-16-12-16s-12.3 7.6-12.2 16.3c-.1 8.8 4.4 15.9 12.1 15.9s12.1-7.02 12.1-16.2zm43.5 12.48l.3 9.5h-7l-.4-4.8H600a11.43 11.43 0 0 1-10.1 5.5c-5.8 0-11-3.4-11-13.7v-18.5h8v17.2c0 5.2 1.7 8.6 5.9 8.6a6.8 6.8 0 0 0 6.1-4.3 6.55 6.55 0 0 0 .5-2.5v-19.1h8v22.1zm17.2-30.9a4.26 4.26 0 0 1-4.5 4.3 4.3 4.3 0 1 1 .1-8.6 4.23 4.23 0 0 1 4.4 4.3zm-8.5 40.4v-31.6h8V387z"/><use xlink:href="#B"/><path d="M678.37 346.38v9H686v6h-7.6v13.9c0 3.8 1 5.8 4.1 5.8a11.08 11.08 0 0 0 3.1-.4l.1 6.1a16.3 16.3 0 0 1-5.8.8A9.43 9.43 0 0 1 673 385c-1.7-1.8-2.5-4.7-2.5-8.8v-14.8H666v-6h4.5v-7.1zm31.3 40.62l-.5-3.5H709a11.45 11.45 0 0 1-9.3 4.2c-6.4 0-9.9-4.6-9.9-9.4 0-8 7.1-12 18.7-11.9v-.5c0-2.1-.8-5.5-6.4-5.5a17.29 17.29 0 0 0-8.5 2.3l-1.6-5.2a22.83 22.83 0 0 1 11.4-2.8c10.1 0 13 6.4 13 13.3v11.4a42 42 0 0 0 .5 7.6zm-1-15.4c-5.6-.1-11 1.1-11 5.9a4.15 4.15 0 0 0 4.5 4.5 6.45 6.45 0 0 0 6.2-4.3 5.66 5.66 0 0 0 .3-1.8z"/><use xlink:href="#B" x="92.4"/><path d="M779.67 387l-.5-3.5H779a11.45 11.45 0 0 1-9.3 4.2c-6.4 0-9.9-4.6-9.9-9.4 0-8 7.1-12 18.7-11.9v-.5c0-2.1-.8-5.5-6.4-5.5a17.29 17.29 0 0 0-8.5 2.3l-1.6-5.2a22.83 22.83 0 0 1 11.4-2.8c10.1 0 13 6.4 13 13.3v11.4a42 42 0 0 0 .5 7.6zm-1-15.4c-5.6-.1-11 1.1-11 5.9a4.15 4.15 0 0 0 4.5 4.5 6.45 6.45 0 0 0 6.2-4.3 5.66 5.66 0 0 0 .3-1.8zm30-27.72a78.88 78.88 0 0 1 12.1-.9c6.3 0 10.6 1 13.5 3.5a11.16 11.16 0 0 1 3.8 8.8 11.73 11.73 0 0 1-7.9 11v.2c3.1 1.2 5 4.2 6.1 8.4 1.4 5.4 2.5 10.5 3.4 12.2h-8.2a65.71 65.71 0 0 1-2.9-10.3c-1.2-5.7-3.3-7.5-7.8-7.6h-4v18h-7.9v-43.3zm7.9 19.3h4.7c5.4 0 8.8-2.9 8.8-7.2 0-4.8-3.4-7-8.6-7a22.37 22.37 0 0 0-4.9.4zm58.8 7.7c0 11.6-8.2 16.8-16.2 16.8-8.9 0-15.8-6.2-15.8-16.3 0-10.4 6.8-16.7 16.3-16.7s15.7 6.6 15.7 16.2zm-23.8.3c0 6.1 3 10.7 7.8 10.7 4.5 0 7.7-4.5 7.7-10.8 0-4.9-2.2-10.6-7.6-10.6-5.6 0-7.9 5.52-7.9 10.7zm60.43-.3c0 11.6-8.2 16.8-16.2 16.8-8.9 0-15.8-6.2-15.8-16.3 0-10.4 6.8-16.7 16.3-16.7s15.7 6.6 15.7 16.2zm-23.8.3c0 6.1 3 10.7 7.8 10.7 4.5 0 7.7-4.5 7.7-10.8 0-4.9-2.2-10.6-7.6-10.6-5.63 0-7.93 5.52-7.93 10.7z"/></g><defs ><path id="B" d="M632.47 364.78l-.3-9.4h7l.4 4.7h.2a11.31 11.31 0 0 1 10-5.4c5.5 0 11.2 3.6 11.2 13.5v18.7h-8v-17.7c0-4.5-1.7-8-6-8a6.62 6.62 0 0 0-6.2 4.7 7.16 7.16 0 0 0-.3 2.6V387h-8v-22.2z"/></defs></svg>