<?xml version="1.0" encoding="utf-8"?>
<!-- Generator: Adobe Illustrator 21.0.0, SVG Export Plug-In . SVG Version: 6.00 Build 0)  -->
<svg version="1.1"
	 id="Capa_1" inkscape:export-filename="C:\xampp\htdocs\web-2016\static\img\logos\logo_pes.png" inkscape:export-xdpi="90" inkscape:export-ydpi="90" inkscape:version="0.91 r13725" sodipodi:docname="logo_pes.svg" xmlns:cc="http://creativecommons.org/ns#" xmlns:dc="http://purl.org/dc/elements/1.1/" xmlns:inkscape="http://www.inkscape.org/namespaces/inkscape" xmlns:rdf="http://www.w3.org/1999/02/22-rdf-syntax-ns#" xmlns:sodipodi="http://sodipodi.sourceforge.net/DTD/sodipodi-0.dtd" xmlns:svg="http://www.w3.org/2000/svg"
	 xmlns="http://www.w3.org/2000/svg" xmlns:xlink="http://www.w3.org/1999/xlink" x="0px" y="0px" width="485px" height="485px"
	 viewBox="0 0 485 485" style="enable-background:new 0 0 485 485;" xml:space="preserve">
<style type="text/css">
	.st0{fill:#632D79;}
	.st1{fill:#D41A23;}
	.st2{fill:#0A74B4;}
	.st3{fill:#626F77;}
	.st4{enable-background:new    ;}
	.st5{fill:#6C2D79;}
</style>
<sodipodi:namedview  bordercolor="#666666" borderopacity="1" fit-margin-bottom="0" fit-margin-left="0" fit-margin-right="0" fit-margin-top="0" gridtolerance="10" guidetolerance="10" id="namedview57" inkscape:current-layer="g5" inkscape:cx="65.56158" inkscape:cy="176.45305" inkscape:pageopacity="0" inkscape:pageshadow="2" inkscape:window-height="705" inkscape:window-maximized="1" inkscape:window-width="1366" inkscape:window-x="1912" inkscape:window-y="141" inkscape:zoom="0.46354778" objecttolerance="10" pagecolor="#ffffff" showgrid="false">
	</sodipodi:namedview>
<g id="g5" transform="matrix(0.64913061,0,0,0.64913061,-814.8316,23.056056)">
	<g id="g7" transform="translate(1156.5187,3.3233295)">
		<path id="path9" inkscape:connector-curvature="0" class="st0" d="M355.5,145.6c18,56,68.1,86.8,117.4,86.5
			c48.2-0.3,97.9-30.7,115.5-86.2c11.6,33.3,5.1,88.5-37.2,124.6c-43.3,37-105,39.5-151,5.9C353.3,242.2,342.9,185.1,355.5,145.6
			L355.5,145.6z"/>
		<path id="path11" inkscape:connector-curvature="0" class="st0" d="M472.3,188.1c-33.6,0.1-60.9-26.9-61-60.3
			c-0.1-33.5,26.9-60.9,60.3-61.1c33.8-0.1,61.1,26.8,61.3,60.6C533.1,160.7,505.8,188,472.3,188.1z"/>
		<g id="g13">
			<path id="path15" inkscape:connector-curvature="0" class="st1" d="M176.3,144c23.4,71.3,109.7,93.5,164,42.8
				c0.8,4.5,1.3,8.7,2.2,12.9c1.9,9,4,17.8,7.1,26.4c1,2.8,0.7,4.7-1.2,6.7c-26.9,28.3-59,43.2-98.2,34.3
				c-39.4-8.9-64.5-34.2-74.9-73.4c-4.1-15.4-3.7-31,0-46.5C175.4,146.5,175.7,145.8,176.3,144L176.3,144z"/>
			<path id="path17" inkscape:connector-curvature="0" class="st1" d="M321.7,129.9c-0.6,28.1-23.1,49.5-51.1,48.9
				c-26.9-0.6-48.3-23.4-47.6-50.8c0.6-27.4,23.2-48.8,50.8-48.1C300.4,80.4,322.2,103.2,321.7,129.9z"/>
		</g>
		<g id="g19">
			<path id="path21" inkscape:connector-curvature="0" class="st2" d="M766.4,144c-23.4,71.3-109.7,93.5-164,42.8
				c-0.8,4.5-1.3,8.7-2.2,12.9c-1.9,9-4,17.8-7.1,26.4c-1,2.8-0.7,4.7,1.2,6.7c26.9,28.3,59,43.2,98.2,34.3
				c39.4-8.9,64.5-34.2,74.9-73.4c4.1-15.4,3.7-31,0-46.5C767.4,146.5,767,145.8,766.4,144L766.4,144z"/>
			<path id="path23" inkscape:connector-curvature="0" class="st2" d="M621.1,129.9c0.6,28.1,23.1,49.5,51.1,48.9
				c26.9-0.6,48.3-23.4,47.6-50.8c-0.6-27.4-23.2-48.8-50.8-48.1C642.3,80.4,620.5,103.2,621.1,129.9z"/>
		</g>
	</g>
	<g id="g25" transform="translate(1156.5187,3.3233295)">
		<path id="path27" inkscape:connector-curvature="0" class="st3" d="M239.4,373.3h-43.6c0.4,3.9,2.3,6.9,5.9,9.1
			c3.6,2.2,8,3.2,13.3,3.2c6.8,0,13-0.9,18.8-2.8l2.7,13.8c-6.8,2.9-14.9,4.3-24.4,4.3c-11.2,0-20-3-26.4-9
			c-6.4-6-9.6-14.2-9.6-24.5c0-9.5,3.1-17.7,9.2-24.6c6.1-6.9,14.4-10.4,24.7-10.4c9.6,0,17,3.1,22.2,9.2c5.3,6.2,7.9,14.1,7.9,23.7
			C240.2,368.5,239.9,371.2,239.4,373.3L239.4,373.3z M195.7,359.1h25.2c0-3.1-0.9-6-2.7-8.8s-4.9-4.2-9.2-4.2
			c-3.6,0-6.5,1.2-8.9,3.6C197.7,352,196.3,355.2,195.7,359.1L195.7,359.1z"/>
		<path id="path29" inkscape:connector-curvature="0" class="st3" d="M249.3,399.4v-44.5c0-6.5-0.2-13.5-0.5-21h18l0.9,9.2h0.5
			c4.9-7.1,11.8-10.7,20.8-10.7c7.4,0,13.2,2.5,17.6,7.5s6.5,12,6.5,21.1v38.5h-20.8v-35.8c0-9.7-3.6-14.6-10.9-14.6
			c-2.9,0-5.6,1.1-7.9,3.4c-2.3,2.2-3.5,5.4-3.5,9.5v37.5L249.3,399.4L249.3,399.4z"/>
		<path id="path31" inkscape:connector-curvature="0" class="st3" d="M374.6,382.5l2.5,15.1c-5,2.1-11.4,3.2-19.2,3.2
			c-10.8,0-19.4-3-25.9-9.1c-6.4-6.1-9.6-14.3-9.6-24.5s3.5-18.6,10.4-25.1c6.9-6.5,16.3-9.8,28.1-9.8c6,0,11.4,0.9,16.2,2.7
			l-3.4,15.3c-3.4-1.4-7.4-2.1-11.9-2.1c-5.4,0-9.8,1.7-13.1,5.1c-3.3,3.4-5,7.8-5,13.1c0,5.6,1.7,10,5.2,13.3s7.9,4.9,13.3,4.9
			C366.7,384.7,370.8,384,374.6,382.5L374.6,382.5z"/>
		<path id="path33" inkscape:connector-curvature="0" class="st3" d="M449.1,333.9v44.4c0,7,0.2,14.1,0.5,21.2h-18l-0.9-9.5h-0.5
			c-4.6,7.3-11.7,11-21,11c-7.5,0-13.3-2.4-17.5-7.3s-6.2-12-6.2-21.2V334h20.8v35c0,10.3,3.6,15.4,10.7,15.4c3,0,5.6-1.1,7.9-3.3
			c2.3-2.2,3.5-5,3.5-8.4V334L449.1,333.9L449.1,333.9z"/>
		<path id="path35" inkscape:connector-curvature="0" class="st3" d="M522,373.3h-43.6c0.4,3.9,2.3,6.9,5.9,9.1
			c3.6,2.2,8,3.2,13.3,3.2c6.8,0,13-0.9,18.8-2.8l2.7,13.8c-6.8,2.9-14.9,4.3-24.4,4.3c-11.2,0-20-3-26.4-9s-9.5-14.2-9.5-24.5
			c0-9.5,3.1-17.7,9.2-24.6s14.4-10.4,24.7-10.4c9.6,0,17,3.1,22.2,9.2c5.3,6.2,7.9,14.1,7.9,23.7
			C522.9,368.5,522.6,371.2,522,373.3L522,373.3z M478.4,359.1h25.2c0-3.1-0.9-6-2.7-8.8s-4.9-4.2-9.2-4.2c-3.6,0-6.5,1.2-8.9,3.6
			C480.4,352,478.9,355.2,478.4,359.1L478.4,359.1z"/>
		<path id="path37" inkscape:connector-curvature="0" class="st3" d="M532,399.4v-44.5c0-6.5-0.2-13.5-0.5-21h18l0.9,9.2h0.5
			c4.9-7.1,11.8-10.7,20.8-10.7c7.4,0,13.2,2.5,17.6,7.5c4.4,5,6.5,12,6.5,21.1v38.5H575v-35.8c0-9.7-3.6-14.6-10.9-14.6
			c-2.9,0-5.6,1.1-7.9,3.4c-2.3,2.2-3.5,5.4-3.5,9.5v37.5L532,399.4L532,399.4z"/>
		<path id="path39" inkscape:connector-curvature="0" class="st3" d="M611,321.5l20.2-5.5v17.8h14.9v15.3h-14.9v23.1
			c0,4.3,0.6,7.4,1.9,9.1c1.3,1.8,3.4,2.6,6.3,2.6c2.7,0,4.8-0.2,6.3-0.7l0.1,15.7c-3.3,1.3-7.8,1.9-13.5,1.9
			c-6.3,0-11.4-1.9-15.3-5.6c-4-3.7-6-10.3-6-19.7v-26.4h-8.8v-15.3h8.8V321.5L611,321.5z"/>
		<path id="path41" inkscape:connector-curvature="0" class="st3" d="M655.1,399.4v-43.7c0-9.8-0.2-17.1-0.5-21.8h17.8l0.7,12.5h0.5
			c1.6-4.5,4.1-8,7.5-10.4s7-3.6,10.8-3.6c2.1,0,3.6,0.1,4.4,0.4v19.4c-1.7-0.4-3.6-0.7-5.6-0.7c-3.8,0-7.3,1.1-10.3,3.3
			c-3,2.2-4.5,6-4.5,11.5v33.1L655.1,399.4L655.1,399.4z"/>
		<path id="path43" inkscape:connector-curvature="0" class="st3" d="M769.9,365.9c0,10.7-3.4,19.2-10.1,25.5
			c-6.7,6.3-15.2,9.4-25.4,9.4c-10.3,0-18.7-3.1-25.3-9.3c-6.6-6.2-9.9-14.4-9.9-24.5c0-10.4,3.3-18.8,9.9-25.2
			c6.6-6.4,15.4-9.5,26.3-9.5c10.2,0,18.5,3.1,24.9,9.4C766.7,348,769.9,356.1,769.9,365.9z M720.5,366.7c0,5.8,1.3,10.5,3.8,14.1
			s5.9,5.4,10.2,5.4c4.2,0,7.5-1.8,10-5.3s3.8-8.3,3.8-14.3c0-5.7-1.2-10.4-3.6-14c-2.4-3.6-5.8-5.4-10.1-5.4
			c-4.4,0-7.9,1.8-10.4,5.5C721.8,356.2,720.5,360.9,720.5,366.7z"/>
		<path id="path45" inkscape:connector-curvature="0" class="st3" d="M359,500.1l2.2-7.2c4,2.4,8.1,3.6,12.3,3.6c3,0,5.4-0.6,7-1.9
			s2.5-3,2.5-5.2c0-2.1-0.7-3.7-2-5c-1.4-1.3-3.7-2.5-7.1-3.7c-9-3.1-13.4-7.7-13.4-13.8c0-4.1,1.6-7.6,4.8-10.4
			c3.2-2.8,7.4-4.2,12.7-4.2c4.9,0,9.1,1,12.5,3l-2.3,6.8c-3.4-2-6.9-2.9-10.5-2.9c-2.5,0-4.5,0.6-5.9,1.8c-1.4,1.2-2.2,2.8-2.2,4.7
			c0,1.7,0.6,3.2,1.8,4.3c1.2,1.2,3.8,2.5,7.7,3.8c4.7,1.7,8.1,3.7,10.1,6c2.1,2.3,3.1,5.2,3.1,8.7c0,4.4-1.7,8-5.1,10.8
			c-3.4,2.7-8,4.1-13.8,4.1C368,503.5,363.2,502.4,359,500.1L359,500.1z"/>
		<path id="path47" inkscape:connector-curvature="0" class="st3" d="M448.3,477.5c0,5.3-1.1,9.8-3.3,13.8c-2.2,3.9-5.3,7-9.2,9.1
			c-3.9,2.1-8.2,3.2-12.8,3.2c-7.1,0-13-2.3-17.7-7c-4.7-4.7-7-10.7-7-18.2c0-7.9,2.4-14.2,7.2-18.9c4.8-4.7,10.8-7,18.2-7
			c7.3,0,13.2,2.3,17.7,7C446,464.1,448.3,470.1,448.3,477.5L448.3,477.5z M408,478.1c0,5.4,1.4,9.8,4.3,13.3s6.4,5.2,10.8,5.2
			s8.1-1.8,11-5.3c2.9-3.5,4.4-8,4.4-13.5c0-5.1-1.4-9.4-4.1-13c-2.7-3.6-6.4-5.4-11.1-5.4s-8.5,1.8-11.2,5.3
			C409.4,468.3,408,472.7,408,478.1L408,478.1z"/>
		<path id="path49" inkscape:connector-curvature="0" class="st3" d="M492.5,493.5l1.5,7.1c-4.1,2-9,2.9-14.6,2.9
			c-7.5,0-13.6-2.3-18.3-6.9c-4.6-4.6-7-10.6-7-18c0-7.7,2.5-14,7.5-18.9s11.6-7.3,19.7-7.3c4.9,0,9.2,0.9,12.9,2.7l-2,7.2
			c-3.1-1.6-6.7-2.4-10.8-2.4c-5.4,0-9.6,1.7-12.9,5.1c-3.2,3.4-4.8,7.7-4.8,13c0,5.5,1.6,9.9,4.9,13.1s7.4,4.9,12.5,4.9
			C485,495.9,488.8,495.1,492.5,493.5L492.5,493.5z"/>
		<path id="path51" inkscape:connector-curvature="0" class="st3" d="M513.7,438.7c0,1.7-0.6,3.1-1.7,4.2s-2.6,1.7-4.4,1.7
			s-3.2-0.6-4.3-1.7s-1.7-2.6-1.7-4.2s0.6-3,1.7-4.2c1.1-1.1,2.6-1.7,4.4-1.7c1.7,0,3.1,0.6,4.3,1.7S513.7,437,513.7,438.7
			L513.7,438.7z M512.4,502.4H503v-48.9h9.4V502.4z"/>
		<path id="path53" inkscape:connector-curvature="0" class="st3" d="M561.4,472.8v17.9c0,4.8,0.3,8.8,0.8,11.7h-8.6l-1.1-6.3
			c-3.7,4.9-8.8,7.4-15.5,7.4c-4.6,0-8.4-1.4-11.2-4.1s-4.2-6.1-4.2-9.9c0-5.9,2.6-10.5,7.7-13.6c5.2-3.1,12.7-4.7,22.6-4.7v-0.9
			c0-3.5-1-6.2-2.9-8.1s-4.7-2.9-8.5-2.9c-5,0-9.4,1.2-13.3,3.7l-2.1-6.2c4.7-3,10.3-4.4,16.9-4.4c6.4,0,11.2,1.8,14.4,5.3
			C559.8,461.2,561.4,466.2,561.4,472.8L561.4,472.8z M552.2,485.7v-8.1c-7.9,0-13.3,0.9-16.4,2.8c-3.1,1.9-4.6,4.5-4.6,7.8
			c0,2.6,0.8,4.6,2.3,6.1s3.6,2.2,6.1,2.2c3.6,0,6.6-1.1,9-3.3C551,491,552.2,488.5,552.2,485.7z"/>
		<path id="path55" inkscape:connector-curvature="0" class="st3" d="M574.2,502.4v-71.9h9.4v71.9H574.2z"/>
	</g>
</g>
<g class="st4">
	<path class="st5" d="M91.6,423.8c-6.1-1.7-11.5-3.5-17-5.6c-1-0.3-1.9-0.6-2.9-0.6c-10.1-0.5-19.1-8-19.1-22.2
		c0-13.5,8.4-22.9,20.9-22.9c12.6,0,20.2,9.7,20.2,22c0,10.6-4.9,17.6-11.3,20.2v0.3c3.8,1,8,1.9,11.5,2.7L91.6,423.8z M85.1,394.8
		c0-8.4-4.1-16-12-16c-8,0-12.3,7.6-12.2,16.3c-0.1,8.8,4.4,15.9,12.1,15.9C80.7,411.1,85.1,404,85.1,394.8z"/>
	<path class="st5" d="M128.6,407.3c0,3.8,0.1,6.9,0.3,9.5h-7l-0.4-4.8h-0.1c-1.4,2.3-4.5,5.5-10.1,5.5c-5.8,0-11-3.4-11-13.7v-18.5
		h8v17.2c0,5.2,1.7,8.6,5.9,8.6c3.2,0,5.2-2.3,6.1-4.3c0.3-0.7,0.5-1.6,0.5-2.5v-19.1h8V407.3z"/>
	<path class="st5" d="M145.8,376.4c0,2.4-1.8,4.3-4.5,4.3c-2.7,0-4.4-1.9-4.4-4.3c0-2.5,1.8-4.3,4.5-4.3
		C144,372.1,145.7,373.9,145.8,376.4z M137.3,416.8v-31.6h8v31.6H137.3z"/>
	<path class="st5" d="M153.9,394.6c0-3.6-0.1-6.7-0.3-9.4h7l0.4,4.7h0.2c1.4-2.5,4.8-5.4,10-5.4c5.5,0,11.2,3.6,11.2,13.5v18.7h-8
		V399c0-4.5-1.7-8-6-8c-3.2,0-5.4,2.3-6.2,4.7c-0.3,0.7-0.3,1.7-0.3,2.6v18.5h-8V394.6z"/>
	<path class="st5" d="M199.8,376.2v9h7.6v6h-7.6v13.9c0,3.8,1,5.8,4.1,5.8c1.4,0,2.4-0.2,3.1-0.4l0.1,6.1c-1.2,0.5-3.2,0.8-5.8,0.8
		c-2.9,0-5.4-1-6.9-2.6c-1.7-1.8-2.5-4.7-2.5-8.8v-14.8h-4.5v-6h4.5v-7.1L199.8,376.2z"/>
	<path class="st5" d="M231.1,416.8l-0.5-3.5h-0.2c-1.9,2.5-5.2,4.2-9.3,4.2c-6.4,0-9.9-4.6-9.9-9.4c0-8,7.1-12,18.7-11.9v-0.5
		c0-2.1-0.8-5.5-6.4-5.5c-3.1,0-6.4,1-8.5,2.3l-1.6-5.2c2.3-1.4,6.4-2.8,11.4-2.8c10.1,0,13,6.4,13,13.3v11.4c0,2.9,0.1,5.6,0.5,7.6
		H231.1z M230.1,401.4c-5.6-0.1-11,1.1-11,5.9c0,3.1,2,4.5,4.5,4.5c3.2,0,5.5-2.1,6.2-4.3c0.2-0.6,0.3-1.2,0.3-1.8V401.4z"/>
	<path class="st5" d="M246.3,394.6c0-3.6-0.1-6.7-0.3-9.4h7l0.4,4.7h0.2c1.4-2.5,4.8-5.4,10-5.4c5.5,0,11.2,3.6,11.2,13.5v18.7h-8
		V399c0-4.5-1.7-8-6-8c-3.2,0-5.4,2.3-6.2,4.7c-0.3,0.7-0.3,1.7-0.3,2.6v18.5h-8V394.6z"/>
	<path class="st5" d="M301.1,416.8l-0.5-3.5h-0.2c-1.9,2.5-5.2,4.2-9.3,4.2c-6.4,0-9.9-4.6-9.9-9.4c0-8,7.1-12,18.7-11.9v-0.5
		c0-2.1-0.8-5.5-6.4-5.5c-3.1,0-6.4,1-8.5,2.3l-1.6-5.2c2.3-1.4,6.4-2.8,11.4-2.8c10.1,0,13,6.4,13,13.3v11.4c0,2.9,0.1,5.6,0.5,7.6
		H301.1z M300.1,401.4c-5.6-0.1-11,1.1-11,5.9c0,3.1,2,4.5,4.5,4.5c3.2,0,5.5-2.1,6.2-4.3c0.2-0.6,0.3-1.2,0.3-1.8V401.4z"/>
	<path class="st5" d="M330.1,373.7c3-0.5,7.5-0.9,12.1-0.9c6.3,0,10.6,1,13.5,3.5c2.4,2,3.8,5.1,3.8,8.8c0,5.6-3.8,9.5-7.9,11v0.2
		c3.1,1.2,5,4.2,6.1,8.4c1.4,5.4,2.5,10.5,3.4,12.2h-8.2c-0.6-1.3-1.7-4.9-2.9-10.3c-1.2-5.7-3.3-7.5-7.8-7.6h-4v18h-7.9V373.7z
		 M338,393h4.7c5.4,0,8.8-2.9,8.8-7.2c0-4.8-3.4-7-8.6-7c-2.5,0-4.1,0.2-4.9,0.4V393z"/>
	<path class="st5" d="M396.8,400.7c0,11.6-8.2,16.8-16.2,16.8c-8.9,0-15.8-6.2-15.8-16.3c0-10.4,6.8-16.7,16.3-16.7
		C390.5,384.5,396.8,391.1,396.8,400.7z M373,401c0,6.1,3,10.7,7.8,10.7c4.5,0,7.7-4.5,7.7-10.8c0-4.9-2.2-10.6-7.6-10.6
		C375.3,390.3,373,395.8,373,401z"/>
	<path class="st5" d="M433.4,400.7c0,11.6-8.2,16.8-16.2,16.8c-8.9,0-15.8-6.2-15.8-16.3c0-10.4,6.8-16.7,16.3-16.7
		C427.1,384.5,433.4,391.1,433.4,400.7z M409.6,401c0,6.1,3,10.7,7.8,10.7c4.5,0,7.7-4.5,7.7-10.8c0-4.9-2.2-10.6-7.6-10.6
		C411.9,390.3,409.6,395.8,409.6,401z"/>
</g>
</svg>
