<svg xmlns="http://www.w3.org/2000/svg" width="469.349" height="470.122" fill-rule="evenodd"><path d="M46.954 0h375.44c25.803 0 46.955 21.15 46.955 46.954v376.213c0 25.806-21.152 46.955-46.955 46.955H46.954C21.15 470.125 0 448.975 0 423.17V46.954C0 21.15 21.15 0 46.954 0z" fill="#aaa9a9"/><path d="M299.995 41.903c81.46 27.14 140.133 103.446 140.133 193.34 0 89.888-58.673 166.196-140.133 193.338V41.903z" fill="#d23026"/><path d="M169.96 41.774v387.18C87.913 402.15 28.688 325.552 28.688 235.24c0-89.145 57.7-164.924 138.1-192.65l3.173-.816z" fill="#00923f"/><path d="M299.718 470.12h-130.08V0H299.7zm80.902-152.56l.092-163.332h-42.54V317.56zM62.072 154.228v163.326h42.446v-64.96h26.85c23.412-4.557 25.923-24.45 25.923-24.45l-.001-47.527c-1.44-22.823-25.434-26.392-25.434-26.392l-69.785.001zm44.3 25.562v37.085c13.292-.335 13.673-7.845 13.673-7.845v-17.35c.456-13.262-13.673-11.888-13.673-11.888z" fill="#fff"/><path d="M187.67 92.07V255.4h42.45v-69.184c18.705-.714 15.104 12.837 15.104 12.837V255.4h43.168v-64.193c2.878-12.837-12.95-21.397-12.95-21.397 12.95-7.133 12.232-22.823 12.232-22.823v-28.53c-.106-27.345-30.218-26.392-30.218-26.392l-69.786.004zm43.885 26.388v37.088c13.29-.335 13.67-7.846 13.67-7.846v-17.353c.457-13.257-13.67-11.89-13.67-11.89z" fill="#131516"/></svg>