<?xml version="1.0" encoding="utf-8"?>
<!-- Generator: Adobe Illustrator 21.0.0, SVG Export Plug-In . SVG Version: 6.00 Build 0)  -->
<svg version="1.2" baseProfile="tiny" id="Capa_1" xmlns="http://www.w3.org/2000/svg" xmlns:xlink="http://www.w3.org/1999/xlink"
	 x="0px" y="0px" width="469.3px" height="470.1px" viewBox="0 0 469.3 470.1" xml:space="preserve">
<g transform="matrix(3.543307 0 0 3.543307 .00035 -1315.6684)">
	<path fill="#DA251D" d="M13.3,371.3h106c7.3,0,13.3,6,13.3,13.3v106.2c0,7.3-6,13.3-13.3,13.3h-106C6,504,0,498,0,490.7V384.6
		C0,377.3,6,371.3,13.3,371.3L13.3,371.3z"/>
	<g>
		<path fill="#EEE500" d="M45.6,426l-31.2,0.1V492h17v-24.6h13.2c9.5-0.5,17.1-9,17-20.6C61.5,435.1,56.7,427.4,45.6,426z M37.1,454
			h-5.7v-14.8h5.5c6.5,0.2,7.8,4.6,7.8,7.8C44.8,450.2,43.1,453.9,37.1,454z M65.9,426.1v16h17.4v49.6h17v-49.6h17.8v-16H65.9z"/>
		<path fill="#EEE500" d="M64.4,383.3"/>
		<path fill="#EEE500" d="M71.2,404.4l10.4-7.9H68.5l-4.1-13.2l-4.3,13.2H47.4l10.3,8.2l-4.1,13l10.7-7.9l10.7,7.8L71.2,404.4z"/>
	</g>
</g>
</svg>
