<?xml version="1.0" encoding="utf-8"?>
<!-- Generator: Adobe Illustrator 21.0.0, SVG Export Plug-In . SVG Version: 6.00 Build 0)  -->
<svg version="1.2" baseProfile="tiny" id="Capa_1" xmlns="http://www.w3.org/2000/svg" xmlns:xlink="http://www.w3.org/1999/xlink"
	 x="0px" y="0px" width="312.9px" height="157px" viewBox="0 0 312.9 157" xml:space="preserve">
<g transform="matrix(3.543307 0 0 3.543307 .00035 -1315.6684)">
	<path fill="#DA251D" d="M5.4,371.4h34.3c2.4,0,4.3,1.9,4.3,4.3v34.4c0,2.4-1.9,4.3-4.3,4.3H5.4c-2.4,0-4.3-1.9-4.3-4.3v-34.4
		C1.1,373.3,3,371.4,5.4,371.4z"/>
	<g>
		<path fill="#EEE500" d="M15.9,389.1H5.8v21.4h5.5v-8h4.3c3.1-0.2,5.6-2.9,5.5-6.7C21,392.1,19.5,389.6,15.9,389.1L15.9,389.1z
			 M13.1,398.2h-1.8v-4.8h1.8c2.1,0.1,2.5,1.5,2.5,2.5C15.6,397,15.1,398.1,13.1,398.2z M22.5,389.1v5.2h5.6v16.1h5.5v-16.1h5.8
			v-5.2H22.5z"/>
		<path fill="#EEE500" d="M22,375.3"/>
		<path fill="#EEE500" d="M24.2,382.1l3.3-2.6h-4.2l-1.3-4.2l-1.4,4.2h-4.1l3.3,2.7l-1.3,4.2l3.4-2.5l3.5,2.5L24.2,382.1z"/>
	</g>
</g>
<path fill="#B5261E" d="M180.4,92.6v-15c0-2.3-0.9-3.1-3.2-2.9l-2.2,0.4v17.4h-6.7V70.2l4.5-0.6l1.3,1.4c1.8-0.8,3.6-1.5,5.6-1.4
	s3.8,0.5,5.4,1.6c3.1-1.4,6.1-1.9,9.3-1.3c2.7,0.5,4.2,2.3,4.7,5l0.2,2.4v15.4h-6.7V77.8c0-0.6,0-1.2-0.1-1.7
	c-0.2-1-0.7-1.3-1.7-1.3c-1.2,0-2.2,0.2-3.5,0.3v17.5L180.4,92.6L180.4,92.6z M263.2,70.1l4.6-0.6l1.1,1.2l4.4-1.2
	c2.7-0.4,5.4,0.1,7.4,2c1.6,1.3,2.4,3.2,2.6,5.2c0,0.6,0.1,1.2,0.1,1.7v13.9h-6.8V78.2c0-1.5-0.3-3.2-2-3.5c-1.6-0.3-3.1,0-4.8,0.3
	v17.5h-6.7L263.2,70.1L263.2,70.1z M289.6,75.9l-1.6-3.9c0.1-0.1,0.2-0.2,0.3-0.2c2.2-0.9,4.5-1.6,6.8-2c2.8-0.5,5.4,0.3,7.5,2.1
	c1.6,1.3,2.2,3.1,2.2,5v10.8c0.7,0,1.3,0,1.9,0.1l0.9,3.6c-1.3,0.7-2.5,1.1-3.9,1.4c-2.3,0.5-3.6-0.4-4.9-1.5
	c-1.5,0.8-3,1.4-4.7,1.6c-2.7,0.4-5.2-0.4-6.9-2.5c-1.8-2-2-4.3-1.2-6.8c1.1-2.7,3.2-4.1,6.1-4.4c1.5-0.1,2.9,0,4.4,0.1
	c0.5,0,1,0.1,1.7,0.1c0.1-1.1,0.2-2.1-0.1-3.1c-0.3-1.2-1.7-1.9-3-1.7C293.2,74.8,291.3,75.6,289.6,75.9L289.6,75.9z M298.3,83.6
	h-3.5c-1.3,0-2,0.9-2.1,2c0,1.2,0.9,2.3,2,2.5c1.3,0.1,2.4-0.1,3.7-0.4L298.3,83.6L298.3,83.6z M213.6,93.1c-5.7,0-9.9-3.5-10.7-9
	c-0.4-2.3-0.4-4.7,0.4-7c1.7-5.5,6.4-8,11.8-7.4c6.1,0.7,9,5.2,9.6,9.7c0.3,1.8,0.2,3.6-0.3,5.5C223,90,219,93.1,213.6,93.1
	L213.6,93.1z M217.9,81.4c-0.1-1.7-0.1-3.5-1-5c-1.5-2.6-5-2.6-6.4-0.1c-0.3,0.5-0.5,1-0.6,1.4c-0.6,1.9-0.6,3.9-0.3,5.9
	c0.2,1,0.5,1.9,1,2.9c0.6,1.2,1.8,1.7,3.1,1.7c1.7,0,2.7-0.9,3.4-2.3S217.8,82.9,217.9,81.4L217.9,81.4z M259.9,83.1l-12.6-0.3
	c0,3.3,2.1,5.4,5.3,5.2c2.3-0.2,4.6-0.7,6.5-1.1l0.5,4c-2,1.1-4,1.6-6.1,1.9c-1.7,0.3-3.2,0.4-4.9,0.1c-3.3-0.6-5.6-2.6-6.8-5.6
	c-1.7-3.9-1.7-8-0.1-11.9c1.8-4.6,6-6.2,10.4-5.8c0.7,0.1,1.4,0.2,2.1,0.4c3.4,1,5.4,3.3,6.1,6.5C260.7,78.8,260.9,81.3,259.9,83.1
	L259.9,83.1z M253.9,78.6c0-1.2-0.4-2.4-1.1-3.2c-1.2-1.3-3.6-1.2-4.6,0.1c-0.7,0.9-0.9,1.9-0.9,3.1L253.9,78.6L253.9,78.6z
	 M234,92.6h-6.6V70.1l4.6-0.6l1.3,1.9c2.5-1.5,4.7-2.1,7.2-2.5l-0.9,6.1l-5.6,0.8L234,92.6L234,92.6z"/>
</svg>
