<?xml version="1.0" encoding="utf-8"?>
<!-- Generator: Adobe Illustrator 21.0.0, SVG Export Plug-In . SVG Version: 6.00 Build 0)  -->
<svg version="1.2" baseProfile="tiny" id="Capa_1" xmlns="http://www.w3.org/2000/svg" xmlns:xlink="http://www.w3.org/1999/xlink"
	 x="0px" y="0px" width="300px" height="300px" viewBox="0 0 300 300" xml:space="preserve">
<path fill="#FBFCFB" d="M0,150V0.5h300v299H0V150z"/>
<path fill="#A3D79D" d="M18.9,298.9c-1.3-0.3-3.6-1.1-5.2-2c-4.1-2-9.1-6.9-11.1-11.1C-0.2,280.3,0,291.2,0,150
	C0,8.5-0.2,19.4,2.6,14.1C6,7.5,12.4,2.5,19.2,1.1c4.1-0.9,257.5-0.9,261.6,0c6.8,1.4,13.2,6.4,16.6,13c2.8,5.3,2.6-5.6,2.6,136
	c0,141.8,0.2,130.6-2.6,136.1c-2,3.9-7.1,8.9-11,10.8c-5.7,2.8,5.4,2.6-136.8,2.5L18.9,298.9L18.9,298.9z M51.8,285.7l1-4l15.9-67.5
	c0-0.5-19.3-0.6-19.6-0.1c-0.1,0.2-1.7,9.8-3.5,21.3L42,258c-0.2,1.1-0.5,1.7-0.9,1.7c-0.5,0-1.2-4.4-3.8-22.5l-3.4-23
	c-0.3-0.7-19.6-0.7-19.6,0c0,0.3,1.7,8.4,3.9,18l7.8,35.3l4.1,18.5c0.2,0.6,1,0.7,10.8,0.7h10.6L51.8,285.7L51.8,285.7z
	 M116.6,277.2v-9.3l-24.5-0.4l-0.1-3.6c-0.1-2.3,0-3.8,0.3-4.2c0.4-0.4,2.6-0.5,12.4-0.5h12l0.2-2.4c0.1-1.3,0.2-5.4,0.1-9l-0.1-6.6
	l-12-0.1c-8.1-0.1-12.2-0.2-12.5-0.5c-0.6-0.5-0.7-6.4-0.2-7.2c0.2-0.4,3.3-0.5,12.5-0.6l12.2-0.1l0.2-18.8l-43.3,0.2l-0.3,35.8
	l-0.1,36.4c0.2,0.5,2.7,0.6,21.7,0.5l21.5-0.1L116.6,277.2L116.6,277.2z M143.8,275.6c0.1-6.1,0.4-11.4,0.6-11.7
	c0.4-0.8,2.7-0.9,3.9-0.3c1.7,0.9,2.5,3,5.1,13.1l2.6,9.9l10.4,0.1c5.7,0.1,10.4,0,10.4-0.2s-1.1-4-2.4-8.5
	c-4.4-15.3-7-20.7-10.5-22.5c-1.5-0.8-1.4-1.5,0.4-2.1c2.2-0.7,5.1-3.5,6.6-6.3c1.9-3.8,2.5-6.8,2.5-12.2
	c-0.1-7.4-1.6-12.1-5.1-15.8c-2.3-2.5-4.3-3.6-8-4.6c-2.8-0.7-4.3-0.8-18.6-0.8h-15.6l-0.3,14l-0.3,36.5v22.5h18.2L143.8,275.6
	L143.8,275.6z M144.7,245.9c-0.6-0.4-0.7-1.2-0.7-7.1c0-4.9,0.1-6.9,0.5-7.4c0.4-0.6,1-0.7,3.9-0.6c3.1,0.1,3.4,0.2,4.5,1.3
	c1.5,1.4,2,3.1,2,6.8c0,3.2-0.7,5.1-2.3,6.3C151.3,246.1,145.7,246.6,144.7,245.9L144.7,245.9z M215.3,286.1
	c7-1.4,12.4-5.6,15.5-11.8c3-5.9,4.3-12,4.6-21.6c0.7-19.3-4-31.6-13.6-36.3c-5-2.4-7.6-2.7-24.9-2.7h-14.8l-0.2,2.4
	c-0.1,1.3-0.2,17.7-0.2,36.5v34.1H197C209.4,286.7,212.9,286.6,215.3,286.1L215.3,286.1z M200.3,266c-0.4-0.5-0.5-3.8-0.4-15.5
	c0.1-8.2,0.2-15.3,0.4-15.7c0.3-0.7,0.6-0.8,3.7-0.8c1.9,0,4.1,0.2,4.9,0.4c3.5,1,6.7,5,7.7,9.8c0.3,1.3,0.5,4.3,0.5,6.7
	c0,7.6-2.1,12.1-6.5,14.3c-1.9,1-2.8,1.2-6,1.3C201.5,266.6,200.7,266.5,200.3,266L200.3,266z M285.4,285.8c0.1-0.5,0.2-4.7,0.1-9.4
	l-0.1-8.5l-12.2-0.1c-9.2-0.1-12.3-0.2-12.5-0.6c-0.2-0.3-0.3-1.9-0.3-3.7c0-2.4,0.1-3.3,0.6-3.8c0.5-0.5,2.2-0.6,12.6-0.6h12
	l-0.2-18.1l-24.5-0.4V233l24.5-0.4l0.3-4.3c0.2-2.4,0.2-6.5,0.2-9.3l-0.1-5l-43.2-0.2l-0.2,2c-0.1,1.1-0.2,17.6-0.2,36.5l0,34.5
	h43.1L285.4,285.8L285.4,285.8z M163.5,196.7c0.3-0.4,2-3.6,3.7-7.1l12.6-25.7c8.7-17.6,9.9-20.1,9.4-20.1c-0.1,0-2.7,1-5.9,2.2
	c-7.7,2.9-15.5,5.6-24,8.1c-3.8,1.2-7.1,2.2-7.2,2.4s-0.9,1.9-1.7,3.8c-1.8,4.2-2,4.4-2.7,3.7c-0.6-0.6-13.8-30.9-13.8-31.7
	c0-0.3,0.1-0.6,0.3-0.7s5.4-1,11.5-2c37.1-5.9,61.8-10.8,77.7-15.4c5.4-1.6,2.5-1.1-7.9,1.2l-18.4,3.9c-20.1,4-61.1,11.1-63.2,10.8
	c-1-0.1-1.4-1-6-11.6L103,61.3c-1.6-3.7-1.7-3.9-2.8-3.8c-1.3,0.1-32,7.4-32.3,7.7c-0.1,0.1,0.8,2.2,2.1,4.7l26.9,54.8
	c2.4,5,4.4,9.4,4.3,9.7c-0.1,0.4-0.9,0.7-2.8,1.1c-4.2,0.7-34.6,4.6-49.3,6.4c-7.2,0.9-13.3,1.7-13.5,1.9c-0.6,0.6,0.1,1.2,1.3,1.2
	c1.1,0,36.9-4.7,54.1-7.2l10.8-1.4c1.2,0,0.2-2,24,46.6l7,13.9c0.3,0.4,3.4,0.5,15.3,0.5C161.7,197.4,162.9,197.4,163.5,196.7
	L163.5,196.7z M218.1,86.5c8.9-18,10.5-21.5,10-21.5c-0.1,0-7.4-1.8-16.4-3.9c-13-3.1-16.3-3.8-16.7-3.4c-0.2,0.3-2.6,5.6-5.3,11.8
	l-10.4,24c-3,7-5.4,12.9-5.3,13.1c0.2,0.2,6.3,0.4,17.1,0.4H208L218.1,86.5L218.1,86.5z"/>
<path fill="#FCEF01" d="M21.2,299.1c-5.1-1-9.9-3.6-13.5-7.3c-3-3.1-4.9-6.1-6.3-10.3l-1.1-3.2V21.7l1.1-3.1
	c1.4-4.1,3.4-7.4,6.4-10.4c3-3,5.7-4.7,10.1-6.3l3.4-1.2h257.7l3.1,1.1c8.2,2.8,14,8.6,16.8,16.8l1.1,3.2v256.7l-1.1,3.2
	c-1.4,4.1-3.4,7.4-6.4,10.3c-2.9,2.9-5.7,4.7-10,6.3l-3.2,1.2L151,299.4C80.4,299.4,22,299.3,21.2,299.1L21.2,299.1z M117.4,285.8
	c0.1-0.7,0.2-5.1,0.1-9.8l-0.1-8.5l-24.8-0.4v-7l12-0.1c8.2-0.1,12.2-0.2,12.5-0.5c0.4-0.3,0.5-2.3,0.4-9.6l-0.1-9.2L93,240.3v-7
	l24.4-0.4l0.3-9.4c0.2-6.6,0.2-9.6-0.1-9.9c-0.4-0.4-43.9-0.5-44.3-0.1c-0.1,0.1-0.3,16.7-0.3,36.9l-0.1,36.7l21.5,0.1l22.1,0
	C116.9,287.1,117.3,286.5,117.4,285.8L117.4,285.8z M143.9,286.9c0.4-0.1,0.5-2.9,0.6-11.5l0.1-11.4l1.7-0.1
	c1.9-0.1,2.8,0.4,3.6,2.4c0.3,0.7,1.7,5.6,3,10.9l2.5,9.7l21.5,0.2v-0.9c0-1.1-2.1-8.6-4.5-16c-2.4-7.6-4.7-12.1-7-14.1
	c-1-0.9-1.8-1.7-1.7-1.7s1-0.6,1.9-1.1c3.7-2.1,6.4-6.4,7.6-12.2c0.7-3.5,0.5-10.6-0.4-13.9c-1.9-6.9-6.2-11.5-12.4-13.1
	c-1.8-0.5-5.5-0.6-18.5-0.6c-9,0-16.5,0.1-16.6,0.3c-0.2,0.3-0.7,71.1-0.5,73c0,0.2,0.3,0.5,0.7,0.6
	C126.5,287.4,143.3,287.1,143.9,286.9L143.9,286.9z M144.8,238.5l0.1-7.1h3c4.6,0,6.1,1.5,6.4,6.4c0.2,3.1-0.4,5.4-1.7,6.6
	c-0.9,0.8-1.4,1-4.5,1.1l-3.5,0.1L144.8,238.5L144.8,238.5z M217.7,286.2c9.1-3,14.4-9.7,17.1-21.8c1-4.4,1.4-19.1,0.7-24.5
	c-2-15.6-8.6-24.1-20.1-26.1c-3-0.5-33.4-0.7-33.9-0.2c-0.2,0.2-0.4,16.4-0.5,36.9l-0.1,36.5l2.5,0.2c1.4,0.1,9.2,0.1,17.3,0
	C213.6,286.9,215.9,286.8,217.7,286.2L217.7,286.2z M200.6,265.5c-0.1-2.1,0.1-30.6,0.3-30.8c0.1-0.1,1.8-0.2,3.8-0.2
	c3.1,0,3.9,0.2,5.5,1c2.3,1.2,4,3.4,5.2,6.5c0.7,1.7,0.9,3.3,1.1,7c0.3,8.2-1.4,12.9-5.5,15.5c-1.8,1.1-2.2,1.2-6.1,1.3
	C202.5,265.8,200.6,265.7,200.6,265.5L200.6,265.5z M52.3,285.8c0.2-0.7,1.5-6.2,3-12.1l8.3-35.3l5.5-24.8
	c-0.5-0.5-19.9-0.4-20.3,0.1c-0.2,0.2-1.1,4.6-1.9,9.6l-5.6,34.6c-0.4,0.4-0.8-2-3.7-22.5l-3.4-21.8c-0.5-0.5-19.8-0.6-20.3-0.1
	c-0.2,0.2,0.9,5.9,2.9,15.3l8,36.1l4.8,21.6c0.1,0.4,2.7,0.5,11.2,0.5h11L52.3,285.8L52.3,285.8z M285.8,277.2v-9.7l-24.5-0.4
	l-0.2-7.2l11.9,0c6.9,0,12.2-0.2,12.5-0.4c0.5-0.3,0.6-1.8,0.6-9.6v-9.2l-12-0.1c-8.3-0.1-12.2-0.2-12.5-0.5
	c-0.4-0.3-0.5-1.3-0.4-3.6l0.1-3.1l24.6-0.2l0.2-0.9c0.1-0.5,0.2-4.9,0.1-9.8l-0.1-8.9H242l-0.3,36.3l-0.1,36.8
	c0.2,0.5,3.7,0.5,22.2,0.4l22-0.1L285.8,277.2L285.8,277.2z M171.6,182c17.6-35.7,19-38.6,18.4-38.8c-0.3-0.1-3.1,0.8-6.3,2
	c-7.6,2.9-18,6.4-25.4,8.6c-3.3,1-6.2,1.9-6.4,2.1s-1.1,2-1.9,4s-1.7,3.5-1.9,3.5s-3.3-7-7-15.5c-4.8-11.2-6.5-15.5-6.1-15.7
	c0.3-0.2,2.5-0.6,5-1c28.2-4.3,58.3-9.9,73.4-13.7c14.1-3.5,35.7-10,36.9-11.2c0.9-0.9-0.2-0.7-5.3,0.8
	c-22.8,6.9-58.1,14.1-109.1,22.2c-1.4,0.2-2.2,0.2-2.4-0.1c-0.2-0.2-2.1-4.5-4.3-9.6l-5.8-13c-1-2.1-4.2-9.4-7.1-16.1L101.8,57
	l-1.7,0.1c-2,0.1-32.1,7.3-32.6,7.8c-0.3,0.3,4.4,10.3,17.2,36l6.5,13.6c0.5,1.3,2.8,6.1,5.1,10.8c2.3,4.7,4.2,8.7,4.2,8.9
	s-0.4,0.5-0.9,0.6c-2.3,0.5-43.7,5.8-59.9,7.6c-2.1,0.2-4.1,0.6-4.4,0.8c-0.7,0.5-0.6,1.7,0.1,2.2c0.6,0.5,11.7-0.8,46.6-5.7
	l19.2-2.6c0.9-0.1,1.9,1.7,15.6,29.2l15.2,30.4l0.6,1.1h31.1L171.6,182L171.6,182z M213.3,97.2l10.5-21.1c4.8-9.7,5.3-10.8,4.7-11.3
	c-0.7-0.5-31.8-8-33.2-8c-0.9,0-0.1-1.8-16.8,37c-3,7-5.4,12.9-5.2,13.1c0.6,0.6,2.8,0.6,19,0.6l15.9,0L213.3,97.2L213.3,97.2z"/>
<path fill="#9DCD67" d="M21.2,299.1c-5.1-1-9.9-3.6-13.5-7.3c-3-3.1-4.9-6.1-6.3-10.3l-1.1-3.2V21.7l1.1-3.1
	c1.4-4.1,3.4-7.4,6.4-10.4c3-3,5.7-4.7,10.1-6.3l3.4-1.2h257.7l3.1,1.1c8.2,2.8,14,8.6,16.8,16.8l1.1,3.2v256.7l-1.1,3.2
	c-1.4,4.1-3.4,7.4-6.4,10.3c-2.9,2.9-5.7,4.7-10,6.3l-3.2,1.2L151,299.4C80.4,299.4,22,299.3,21.2,299.1L21.2,299.1z M117.4,285.8
	c0.1-0.7,0.2-5.1,0.1-9.8l-0.1-8.5l-24.8-0.4v-7l12-0.1c8.2-0.1,12.2-0.2,12.5-0.5c0.4-0.3,0.5-2.3,0.4-9.6l-0.1-9.2L93,240.3v-7
	l24.4-0.4l0.3-9.4c0.2-6.6,0.2-9.6-0.1-9.9c-0.4-0.4-43.9-0.5-44.3-0.1c-0.1,0.1-0.3,16.7-0.3,36.9l-0.1,36.7l21.5,0.1l22.1,0
	C116.9,287.1,117.3,286.5,117.4,285.8L117.4,285.8z M143.9,286.9c0.4-0.1,0.5-2.9,0.6-11.5l0.1-11.4l1.7-0.1
	c1.9-0.1,2.8,0.4,3.6,2.4c0.3,0.7,1.7,5.6,3,10.9l2.5,9.7l21.5,0.2v-0.9c0-1.1-2.1-8.6-4.5-16c-2.4-7.6-4.7-12.1-7-14.1
	c-1-0.9-1.8-1.7-1.7-1.7s1-0.6,1.9-1.1c3.7-2.1,6.4-6.4,7.6-12.2c0.7-3.5,0.5-10.6-0.4-13.9c-1.9-6.9-6.2-11.5-12.4-13.1
	c-1.8-0.5-5.5-0.6-18.5-0.6c-9,0-16.5,0.1-16.6,0.3c-0.2,0.3-0.7,71.1-0.5,73c0,0.2,0.3,0.5,0.7,0.6
	C126.5,287.4,143.3,287.1,143.9,286.9L143.9,286.9z M144.8,238.5l0.1-7.1h3c4.6,0,6.1,1.5,6.4,6.4c0.2,3.1-0.4,5.4-1.7,6.6
	c-0.9,0.8-1.4,1-4.5,1.1l-3.5,0.1L144.8,238.5L144.8,238.5z M217.7,286.2c9.1-3,14.4-9.7,17.1-21.8c1-4.4,1.4-19.1,0.7-24.5
	c-2-15.6-8.6-24.1-20.1-26.1c-3-0.5-33.4-0.7-33.9-0.2c-0.2,0.2-0.4,16.4-0.5,36.9l-0.1,36.5l2.5,0.2c1.4,0.1,9.2,0.1,17.3,0
	C213.6,286.9,215.9,286.8,217.7,286.2L217.7,286.2z M200.6,265.5c-0.1-2.1,0.1-30.6,0.3-30.8c0.1-0.1,1.8-0.2,3.8-0.2
	c3.1,0,3.9,0.2,5.5,1c2.3,1.2,4,3.4,5.2,6.5c0.7,1.7,0.9,3.3,1.1,7c0.3,8.2-1.4,12.9-5.5,15.5c-1.8,1.1-2.2,1.2-6.1,1.3
	C202.5,265.8,200.6,265.7,200.6,265.5L200.6,265.5z M52.3,285.8c0.2-0.7,1.5-6.2,3-12.1l8.3-35.3l5.5-24.8
	c-0.5-0.5-19.9-0.4-20.3,0.1c-0.2,0.2-1.1,4.6-1.9,9.6l-5.6,34.6c-0.4,0.4-0.8-2-3.7-22.5l-3.4-21.8c-0.5-0.5-19.8-0.6-20.3-0.1
	c-0.2,0.2,0.9,5.9,2.9,15.3l8,36.1l4.8,21.6c0.1,0.4,2.7,0.5,11.2,0.5h11L52.3,285.8L52.3,285.8z M285.8,277.2v-9.7l-24.5-0.4
	l-0.2-7.2l11.9,0c6.9,0,12.2-0.2,12.5-0.4c0.5-0.3,0.6-1.8,0.6-9.6v-9.2l-12-0.1c-8.3-0.1-12.2-0.2-12.5-0.5
	c-0.4-0.3-0.5-1.3-0.4-3.6l0.1-3.1l24.6-0.2l0.2-0.9c0.1-0.5,0.2-4.9,0.1-9.8l-0.1-8.9H242l-0.3,36.3l-0.1,36.8
	c0.2,0.5,3.7,0.5,22.2,0.4l22-0.1L285.8,277.2L285.8,277.2z M171.6,182c17.6-35.7,19-38.6,18.4-38.8c-0.3-0.1-3.1,0.8-6.3,2
	c-7.6,2.9-18,6.4-25.4,8.6c-3.3,1-6.2,1.9-6.4,2.1s-1.1,2-1.9,4s-1.7,3.5-1.9,3.5s-3.3-7-7-15.5c-4.8-11.2-6.5-15.5-6.1-15.7
	c0.3-0.2,2.5-0.6,5-1c28.2-4.3,58.3-9.9,73.4-13.7c14.1-3.5,35.7-10,36.9-11.2c0.9-0.9-0.2-0.7-5.3,0.8
	c-22.8,6.9-58.1,14.1-109.1,22.2c-1.4,0.2-2.2,0.2-2.4-0.1c-0.2-0.2-2.1-4.5-4.3-9.6l-5.8-13c-1-2.1-4.2-9.4-7.1-16.1L101.8,57
	l-1.7,0.1c-2,0.1-32.1,7.3-32.6,7.8c-0.3,0.3,4.4,10.3,17.2,36l6.5,13.6c0.5,1.3,2.8,6.1,5.1,10.8c2.3,4.7,4.2,8.7,4.2,8.9
	s-0.4,0.5-0.9,0.6c-2.3,0.5-43.7,5.8-59.9,7.6c-2.1,0.2-4.1,0.6-4.4,0.8c-0.7,0.5-0.6,1.7,0.1,2.2c0.6,0.5,11.7-0.8,46.6-5.7
	l19.2-2.6c0.9-0.1,1.9,1.7,15.6,29.2l15.2,30.4l0.6,1.1h31.1L171.6,182L171.6,182z M213.3,97.2l10.5-21.1c4.8-9.7,5.3-10.8,4.7-11.3
	c-0.7-0.5-31.8-8-33.2-8c-0.9,0-0.1-1.8-16.8,37c-3,7-5.4,12.9-5.2,13.1c0.6,0.6,2.8,0.6,19,0.6l15.9,0L213.3,97.2L213.3,97.2z
	 M159,71.4c5-2.1,6.9-8.6,4.7-15.6c-1.3-4-1.2-7.6,0.4-11.6c0.7-1.7,1.2-3.4,1.2-3.7s-0.5-1.3-1.2-2.3c-1-1.4-1.2-2.1-1.2-4.1
	c0-1.3,0.4-4,0.8-5.9c0.7-2.8,0.8-4.1,0.6-6.9c-0.3-4-0.8-6.4-1.6-6.7c-0.9-0.3-3.4,1.1-5.5,3.1c-5.9,5.9-15.6,26.7-17.3,37.2
	c-1.3,8.3,3,15.7,10.1,17C152.6,72.5,157.3,72.1,159,71.4L159,71.4z M156.7,29.1c-3.9-2.1-1.2-8.5,3-7.2c1.7,0.6,2.5,1.6,2.8,3.5
	c0.2,1.4,0.1,1.7-1.2,2.9C159.8,29.8,158.5,30,156.7,29.1L156.7,29.1z M205.6,25.7c1.6-1.7,4-5.7,3.7-6.3
	c-0.6-1.5-10.9-4.8-18.5-5.8c-9.5-1.3-21.5-1.1-24.4,0.3c-1.1,0.5-1.1,0.3-0.3,6.5l0.5,3.7l1.7-0.1c0.9,0,5.6-0.1,10.3-0.1
	c9.2-0.1,13.3,0.3,20.4,2.1C204,27.1,204.2,27.1,205.6,25.7L205.6,25.7z"/>
<path fill="#50B747" d="M22.5,299.3c-0.5-0.1-1.3-0.3-1.7-0.5s-1.6-0.5-2.5-0.8c-7.3-2-14.7-9.3-16.7-16.7c-0.3-1-0.7-2.2-0.9-2.7
	C0,277.3,0,22.8,0.6,21.5c0.2-0.5,0.7-1.7,0.9-2.7c2-7.5,9.2-14.7,16.7-16.7c1-0.3,2.2-0.7,2.7-0.9c1.3-0.6,256.8-0.6,258.2,0
	c0.5,0.2,1.7,0.7,2.7,0.9C285,3,289.4,5.5,292,8.2c3,3,4.9,6,6.5,10.8l1.2,3.5v255.1l-0.9,2.7c-2,5.9-4.7,10.1-8.5,13.1
	c-2.2,1.8-7.4,4.4-9.4,4.8c-0.8,0.1-1.6,0.4-1.9,0.7c-0.4,0.3-34.6,0.4-128.1,0.5C80.9,299.4,23,299.4,22.5,299.3L22.5,299.3z
	 M52.4,286.6c0.3-0.7,14.6-60.9,16.6-69.9c0.3-1.4,0.5-2.9,0.3-3.2c-0.2-0.5-1.5-0.6-10.5-0.6c-9.3,0-10.3,0.1-10.5,0.7
	c-0.1,0.4-0.9,4.9-1.8,10.2l-3.4,21.3c-1,6.5-2,11.6-2.1,11.5s-1.6-9.8-3.2-21.4l-3.4-21.7c-0.3-0.4-2.6-0.5-10.6-0.4
	c-10.1,0.1-10.1,0.1-10.3,0.9c-0.1,0.9,15.2,71.1,15.8,72.6l0.4,0.9H52L52.4,286.6L52.4,286.6z M117.7,277.8
	c0.2-5.9,0.1-9.8-0.1-10.2c-0.3-0.6-1.2-0.7-12.6-0.7H92.8v-3.3c0-2.6,0.1-3.3,0.6-3.5c0.3-0.1,5.8-0.2,12.2-0.2
	c11.1,0,11.6,0,12-0.8c0.6-1.2,0.5-18.1-0.1-18.6c-0.3-0.3-4.5-0.5-12.5-0.5l-12-0.1v-6.2l12-0.1c8.2-0.1,12.2-0.2,12.5-0.5
	c0.4-0.4,0.5-2.4,0.4-10.2l-0.1-9.8L95.7,213c-12.2-0.1-22.2,0-22.4,0.2c-0.4,0.4-0.9,72.7-0.6,73.6c0.2,0.6,2.1,0.6,22.5,0.5
	l22.2-0.1L117.7,277.8L117.7,277.8z M144.2,287.1c0.1-0.2,0.4-5.5,0.5-11.7l0.2-11.2l1.7,0.1c1.3,0.1,1.9,0.3,2.5,1.1
	c0.4,0.5,1.9,5.5,3.3,11.1s2.8,10.3,2.9,10.6c0.2,0.4,2.9,0.5,11,0.5c9.4,0,10.7-0.1,10.9-0.6c0.3-0.7-1.3-6.5-3.8-14.4
	c-3.2-10-5.4-14.6-8.1-16.9c-0.7-0.6-1.2-1.1-1.1-1.2s0.9-0.5,1.7-0.9c3.1-1.6,6-5.8,7.4-11c0.9-3.3,0.9-11.1,0-14.8
	c-1.8-7.6-6.5-12.4-13.6-14.1c-2.1-0.5-5.3-0.6-18.6-0.5l-16,0.1l-0.2,3.7c-0.3,5-0.4,70.1-0.1,70.4
	C125.3,287.7,143.9,287.5,144.2,287.1L144.2,287.1z M145.6,245.1l-0.9-0.3l0.2-6.3l0.2-6.6c0-0.2,1.4-0.3,3.1-0.2
	c2.4,0.1,3.3,0.3,3.9,0.9c1.4,1.2,1.9,3,1.9,6.3c0,3.2-0.7,5.1-2.2,5.9C150.8,245.2,146.6,245.5,145.6,245.1L145.6,245.1z
	 M218.3,286.2c4.1-1.5,6.2-2.7,9-5.5c2.9-3,4.6-5.8,6.3-10.6c1.9-5.6,2.5-9.8,2.8-18c0.6-22.3-5.3-34.5-18.7-38.3
	c-2-0.6-4.8-0.7-19.1-0.8c-15.9-0.1-16.8-0.1-17.1,0.6c-0.5,0.9-0.8,72.7-0.3,73.4c0.3,0.4,3.6,0.5,17.3,0.4l16.9-0.1L218.3,286.2
	L218.3,286.2z M200.9,265.5c-0.4-0.4-0.4-8.5,0-21.3l0.3-9.7l3.7,0.1c3.2,0.1,4,0.3,5.6,1.2c2,1.2,3.9,3.6,4.8,6.1
	c1.6,4.7,1.5,13.2-0.4,17.2c-2,4.4-4.6,6-10.1,6.3C202.8,265.7,201.1,265.7,200.9,265.5L200.9,265.5z M285.9,287
	c0.7-0.7,0.7-19.1-0.1-19.7c-0.3-0.3-4.5-0.5-12.5-0.5l-12-0.1l-0.1-3c-0.1-2.1,0-3.1,0.4-3.4c0.4-0.3,4.3-0.5,12.5-0.5l12-0.1
	v-19.4l-24.6-0.2v-6.6l11.9,0c6.8,0,12.2-0.2,12.5-0.4c0.5-0.3,0.6-1.9,0.7-9.4c0.1-5,0-9.4-0.1-9.9l-0.2-0.9h-22.1
	c-20.6,0-22.1,0-22.5,0.7c-0.4,0.8-0.8,72.7-0.3,73.4S285.3,287.7,285.9,287L285.9,287z M163.7,197.9c0.6-0.4,26.9-53.5,26.9-54.3
	c0-0.9-1.2-0.6-6.4,1.4c-6.1,2.4-20.3,7.2-26.9,9.1c-2.7,0.8-5.1,1.7-5.5,2s-1.2,2-2,3.7s-1.4,3.1-1.6,3.1c-0.4,0-3.2-6.2-8.8-18.9
	c-3.7-8.5-4.8-11.5-4.4-11.7c0.3-0.2,2-0.5,3.9-0.8c16.8-2.4,52.5-8.8,66.1-11.9c17.6-3.9,42.1-11.1,46.3-13.6
	c0.9-0.5,3.4-1.6,5.5-2.3c3.7-1.3,5.3-2.2,4-2.2c-0.3,0-2.8,0.4-5.6,1c-8.8,1.7-18.9,3-31.8,3.9c-9.2,0.7-14.2,0.7-14.2,0.2
	c0-0.2,4.6-9.6,10.1-20.8c8.5-17.3,10.1-20.6,9.6-21c-0.7-0.7-32.9-8.4-33.9-8.2c-0.6,0.2-3,5.4-11.2,24.4l-11,25l-0.5,0.9l-9.6-0.3
	c-12-0.3-20.1-0.3-30.7,0l-8.3,0.3l-0.6-1.1c-0.3-0.6-4.2-9.6-8.8-20.1l-10.4-24c-1.2-2.7-2.4-5.1-2.7-5.2
	c-0.5-0.2-33.2,7.4-33.9,7.9c-0.2,0.1-0.3,0.5-0.3,0.9s5.2,11.1,11.5,23.9L90,113c-0.1,0.3-2.6,1.4-6.3,2.6
	c-18.2,6-33.9,14.5-45.8,24.6c-3.4,2.9-4,4.1-2.7,5.1c0.5,0.4,1.3,0.4,4.4,0l51.9-7c5.8-0.8,10.6-1.4,10.8-1.3
	c0.4,0.2,12.1,23.6,12.5,24.9c0.4,1.3,17.1,34.9,17.7,35.6c0.4,0.5,2.3,0.6,15.7,0.6C156.4,198.2,163.4,198,163.7,197.9L163.7,197.9
	z M158.1,71.8c3.9-1.2,6.2-4.3,6.7-9c0.2-1.8,0-3.2-0.8-6.5c-1.4-5.4-1.2-8,0.6-12.8l1.3-3.4l-0.8-0.9c-1.1-1.2-2-3.5-2-5.1
	c0-0.8,0.4-3,0.8-5c0.7-2.9,0.8-4.4,0.6-7.9c-0.2-4.8-0.8-6.8-1.8-6.8c-3.7,0-8.6,6.1-14.5,17.9c-3.5,7.1-5.9,13.3-7.4,19.2
	c-2.5,9.7,0.5,17.6,7.7,20.1C150.8,72.5,155.6,72.6,158.1,71.8L158.1,71.8z M157.3,29.3c-0.4-0.2-1.2-0.8-1.7-1.4
	c-1.8-2.3-0.1-6,2.9-6c4,0,5.2,5.7,1.5,7.2C158.6,29.7,158.5,29.7,157.3,29.3L157.3,29.3z M205.7,25.8c2.3-2.5,4.1-5.8,3.7-6.6
	c-1-1.6-10-4.6-17.7-5.8c-5.8-0.9-21.7-1-24.4-0.1c-1.6,0.5-1.7,0.7-1.7,1.9c0.1,1.8,0.5,7,0.7,7.9c0.1,0.8,0.4,0.8,11.5,0.8
	c12.1,0,14.8,0.3,22.4,2.3l3.6,0.9C204.1,27.3,204.9,26.6,205.7,25.8z"/>
<path fill="#D2402F" d="M92.2,162.2c-14.9-0.7-31.1-4-43-8.7c-4.4-1.7-11.7-5.5-12.8-6.5c-0.7-0.7-0.7-0.7,0.6-0.9
	c0.7-0.1,3.5-0.5,6.2-0.8l49-6.6c5.3-0.8,9.8-1.3,10.1-1.1c0.4,0.3,11.9,23.6,11.9,24.2C114.1,162.3,101.7,162.6,92.2,162.2
	L92.2,162.2z M145.5,156.7c-0.6-0.8-10.4-23.3-10.4-24c0-0.2,1.4-0.6,3-0.9c59-9.2,89.2-16.1,118-27c2.6-1,5-1.8,5.2-1.7
	c0.5,0.2-3,2.9-9.4,7.1c-11.6,7.7-22.9,14.3-35.5,20.7c-10.6,5.4-22,10.5-25.1,11.3c-0.9,0.2-4.6,1.5-8.2,2.9
	c-9.4,3.5-16,5.8-24.2,8.2c-3.9,1.2-7.5,2.3-8,2.6s-1.5,0.7-2.4,0.8s-1.7,0.3-2,0.4S145.8,157.1,145.5,156.7L145.5,156.7z
	 M158.3,106.1c-2.9-0.2-10.4-0.3-16.7-0.2l-11.4,0.1l-1.1-2.9c-2.9-7.4-4.6-16.8-4.6-24.9c0-4.4,0.1-5.7,0.9-8
	c1.1-3.3,2.9-7,5.5-11.1c1-1.7,1.9-3.5,1.9-4.1c0-2.1,1.2-9.3,2.2-12.5c3.4-11.7,7.5-19.7,12.3-23.9c3.9-3.4,9.3-5.5,13.7-5.2l2,0.1
	l-2,1c-1.1,0.6-3,2.2-4.3,3.5c-6.5,7-16.1,28.4-17.1,38.1c-0.5,4.9,1.5,10.6,4.7,13.4c2.5,2.2,5,3,9.5,3c3.2,0,4-0.1,5.9-1
	c5-2.3,6.7-8.3,4.6-15.7c-1.3-4.6-1.2-7.3,0.6-11.9l1.4-3.8l-1.3-1.6c-1.7-2.1-1.9-4.8-0.8-9.6c1.2-5,0.9-12.1-0.6-14.4
	c-0.3-0.5-0.5-1-0.5-1c0.4-0.2,3.1-1.2,4.4-1.5c2.1-0.6,15.9-0.5,21.5,0.1c5.7,0.6,11.8,1.9,15.7,3.5c3.5,1.4,9.1,4.9,12.1,7.6
	c6,5.4,9.9,13.3,9.9,20.2c0,3,0,3.1-0.9,3.3c-0.5,0.1-1.3-0.2-1.7-0.6c-1.2-1.1-2.8-1.8-5.9-2.7c-9.6-2.8-19.7-4-33.4-4
	c-7.6,0-9.7,0.1-11.4,0.6c-1.4,0.4-2.8,0.7-4.3,0.9l-2.1,0.2l-1.3,3.3c-1.9,4.8-2,6.7-0.3,12c0.8,2.6,2,5.4,2.9,6.8
	c2.6,4.2,3,5.9,3,15c0,5.1-0.2,8.9-0.5,10.7c-1.3,6.5-3.9,16.2-4.8,17.2c-0.2,0.3-0.9,0.5-1.4,0.4L158.3,106.1L158.3,106.1z
	 M205.2,26.7c1.1-0.8,4.8-6.3,4.8-7.2c0-1.9-10.8-5.5-20.7-6.7c-9-1.2-22.2-0.5-23.9,1.1c-0.4,0.4-0.4,1.1,0.1,4.1
	c0.3,2,0.6,4.2,0.6,4.9c0,0.7,0.2,1.4,0.5,1.5c0.3,0.1,3.3,0,6.7-0.1c9.5-0.5,19.3,0.3,26.5,2.2C203.1,27.4,204.1,27.5,205.2,26.7
	L205.2,26.7z M156.4,28.1c-2.3-2.3-0.9-5.9,2.3-5.9c1.2,0,1.7,0.2,2.5,1.2c1.2,1.4,1.2,2.3,0.4,3.9
	C160.5,29.5,158.1,29.9,156.4,28.1L156.4,28.1z"/>
<path fill="#1FB058" d="M92.2,162.2c-14.9-0.7-31.1-4-43-8.7c-4.4-1.7-11.7-5.5-12.8-6.5c-0.7-0.7-0.7-0.7,0.6-0.9
	c0.7-0.1,3.5-0.5,6.2-0.8l49-6.6c5.3-0.8,9.8-1.3,10.1-1.1c0.4,0.3,11.9,23.6,11.9,24.2C114.1,162.3,101.7,162.6,92.2,162.2
	L92.2,162.2z M145.5,156.7c-0.6-0.8-10.4-23.3-10.4-24c0-0.2,1.4-0.6,3-0.9c59-9.2,89.2-16.1,118-27c2.6-1,5-1.8,5.2-1.7
	c0.5,0.2-3,2.9-9.4,7.1c-11.6,7.7-22.9,14.3-35.5,20.7c-10.6,5.4-22,10.5-25.1,11.3c-0.9,0.2-4.6,1.5-8.2,2.9
	c-9.4,3.5-16,5.8-24.2,8.2c-3.9,1.2-7.5,2.3-8,2.6s-1.5,0.7-2.4,0.8s-1.7,0.3-2,0.4S145.8,157.1,145.5,156.7L145.5,156.7z
	 M158.3,106.1c-2.9-0.2-10.4-0.3-16.7-0.2l-11.4,0.1l-1.1-2.9c-2.9-7.4-4.6-16.8-4.6-24.9c0-4.4,0.1-5.7,0.9-8
	c1.1-3.3,2.9-7,5.5-11.1c1-1.7,1.9-3.5,1.9-4.1c0-2.1,1.2-9.3,2.2-12.5c3.4-11.7,7.5-19.7,12.3-23.9c3.9-3.4,9.3-5.5,13.7-5.2l2,0.1
	l-2,1c-1.1,0.6-3,2.2-4.3,3.5c-6.5,7-16.1,28.4-17.1,38.1c-0.5,4.9,1.5,10.6,4.7,13.4c2.5,2.2,5,3,9.5,3c3.2,0,4-0.1,5.9-1
	c5-2.3,6.7-8.3,4.6-15.7c-1.3-4.6-1.2-7.3,0.6-11.9l1.4-3.8l-1.3-1.6c-1.7-2.1-1.9-4.8-0.8-9.6c1.2-5,0.9-12.1-0.6-14.4
	c-0.3-0.5-0.5-1-0.5-1c0.4-0.2,3.1-1.2,4.4-1.5c2.1-0.6,15.9-0.5,21.5,0.1c5.7,0.6,11.8,1.9,15.7,3.5c3.5,1.4,9.1,4.9,12.1,7.6
	c6,5.4,9.9,13.3,9.9,20.2c0,3,0,3.1-0.9,3.3c-0.5,0.1-1.3-0.2-1.7-0.6c-1.2-1.1-2.8-1.8-5.9-2.7c-9.6-2.8-19.7-4-33.4-4
	c-7.6,0-9.7,0.1-11.4,0.6c-1.4,0.4-2.8,0.7-4.3,0.9l-2.1,0.2l-1.3,3.3c-1.9,4.8-2,6.7-0.3,12c0.8,2.6,2,5.4,2.9,6.8
	c2.6,4.2,3,5.9,3,15c0,5.1-0.2,8.9-0.5,10.7c-1.3,6.5-3.9,16.2-4.8,17.2c-0.2,0.3-0.9,0.5-1.4,0.4L158.3,106.1L158.3,106.1z
	 M225.4,40.2c-0.5-4.3-2.9-9.2-6.8-13.6c-2.1-2.4-6.4-6.2-7-6.2c-0.2,0-0.9,0.9-1.6,2s-1.9,2.8-2.6,3.7s-1.3,1.8-1.3,2
	s1.2,0.7,2.6,1.3c4.1,1.7,8.6,4.9,12.3,8.8c1.8,2,3.3,3.7,3.3,3.9s0.3,0.3,0.6,0.3C225.5,42.5,225.6,42.1,225.4,40.2L225.4,40.2z
	 M205.2,26.7c1.1-0.8,4.8-6.3,4.8-7.2c0-1.9-10.8-5.5-20.7-6.7c-9-1.2-22.2-0.5-23.9,1.1c-0.4,0.4-0.4,1.1,0.1,4.1
	c0.3,2,0.6,4.2,0.6,4.9c0,0.7,0.2,1.4,0.5,1.5c0.3,0.1,3.3,0,6.7-0.1c9.5-0.5,19.3,0.3,26.5,2.2C203.1,27.4,204.1,27.5,205.2,26.7
	L205.2,26.7z M156.4,28.1c-2.3-2.3-0.9-5.9,2.3-5.9c1.2,0,1.7,0.2,2.5,1.2c1.2,1.4,1.2,2.3,0.4,3.9
	C160.5,29.5,158.1,29.9,156.4,28.1L156.4,28.1z"/>
<path fill="#262B1E" d="M158.3,106.1c-2.9-0.2-10.4-0.3-16.7-0.2l-11.4,0.1l-1.1-2.9c-2.9-7.4-4.6-16.8-4.6-24.9
	c0-4.4,0.1-5.7,0.9-8c1.1-3.3,2.9-7,5.5-11.1c1-1.7,1.9-3.5,1.9-4.1c0-2.1,1.2-9.3,2.2-12.5c3.4-11.7,7.5-19.7,12.3-23.9
	c3.9-3.4,11.5-5.9,15.8-5.6l0.3,0.4l-2.5,1.1c-1.1,0.5-3,2.2-4.3,3.5c-6.5,7-16.1,28.4-17.1,38.1c-0.5,4.9,1.5,10.6,4.7,13.4
	c2.5,2.2,5,3,9.5,3c3.2,0,4-0.1,5.9-1c5-2.3,6.7-8.3,4.6-15.7c-1.3-4.6-1.2-7.3,0.6-11.9l1.4-3.8l-1.3-1.6c-1.7-2.1-1.9-4.8-0.8-9.6
	c1.2-5,0.9-12.1-0.6-14.4c-0.3-0.5-3.4-0.1-3.4-0.1c0.2-1.4,6-2,7.3-2.4c2.1-0.6,15.9-0.5,21.5,0.1c5.7,0.6,11.8,1.9,15.7,3.5
	c3.5,1.4,9.1,4.9,12.1,7.6c6,5.4,9.9,13.3,9.9,20.2c0,3,0,3.1-0.9,3.3c-0.5,0.1-1.3-0.2-1.7-0.6c-2.2-2-8.6-3.9-18.1-5.3
	c-7.2-1.1-12-1.4-21.2-1.4c-7.6,0-9.7,0.1-11.4,0.6c-1.4,0.4-2.8,0.7-4.3,0.9l-2.1,0.2l-1.3,3.3c-1.9,4.8-2,6.7-0.3,12
	c0.8,2.6,2,5.4,2.9,6.8c2.6,4.2,3,5.9,3,15c0,5.1-0.2,8.9-0.5,10.7c-1.3,6.5-3.9,16.2-4.8,17.2c-0.2,0.3-0.9,0.5-1.4,0.4
	L158.3,106.1L158.3,106.1z M223.5,42.9c0-1.9-8.2-9-13.4-11.6c-6.8-3.4-15.8-5.4-26-5.9c-7.4-0.4-17,0-17.7,0.7
	c-0.5,0.5-1.9,5.8-1.9,7.4c0,1.6,0.9,3.8,2,5c1,1.1,3,1.2,6.1,0.2c3.2-1,20.9-1,28.4,0c6.8,0.9,13.8,2.3,18.3,3.7
	C223.8,43.8,223.6,43.8,223.5,42.9L223.5,42.9z M225.4,40.2c-0.5-4.3-2.9-9.2-6.8-13.6c-2.1-2.4-6.4-6.2-7-6.2c-0.2,0-0.9,0.9-1.6,2
	s-1.9,2.8-2.6,3.7s-1.3,1.8-1.3,2s1.2,0.7,2.6,1.3c4.1,1.7,8.6,4.9,12.3,8.8c1.8,2,3.3,3.7,3.3,3.9s0.3,0.3,0.6,0.3
	C225.5,42.5,225.6,42.1,225.4,40.2L225.4,40.2z M205.2,26.7c1.1-0.8,4.8-6.3,4.8-7.2c0-1.9-10.9-5.2-20.8-6.5
	c-9-1.2-22-0.8-23.7,0.9c-0.4,0.4-0.4,1.1,0.1,4.1c0.3,2,0.6,4.2,0.6,4.9c0,0.7,0.2,1.4,0.5,1.5c0.3,0.1,3.3,0,6.7-0.1
	c9.5-0.5,19.3,0.3,26.5,2.2C203.1,27.4,204.1,27.5,205.2,26.7L205.2,26.7z M156.4,28.1c-2.3-2.3-0.9-5.9,2.3-5.9
	c1.2,0,1.7,0.2,2.5,1.2c1.2,1.4,1.2,2.3,0.4,3.9C160.5,29.5,158.1,29.9,156.4,28.1L156.4,28.1z"/>
</svg>
