<?xml version="1.0" encoding="utf-8"?>
<!-- Generator: Adobe Illustrator 21.0.0, SVG Export Plug-In . SVG Version: 6.00 Build 0)  -->
<svg version="1.2" baseProfile="tiny" id="Capa_1" xmlns="http://www.w3.org/2000/svg" xmlns:xlink="http://www.w3.org/1999/xlink"
	 x="0px" y="0px" width="474px" height="157px" viewBox="0 0 474 157" xml:space="preserve">
<g transform="matrix(3.543307 0 0 3.543307 .00035 -1315.6684)">
	<path fill="#DA251D" d="M50.9,371.4h34.3c2.4,0,4.3,1.9,4.3,4.3v34.4c0,2.4-1.9,4.3-4.3,4.3H50.9c-2.4,0-4.3-1.9-4.3-4.3v-34.4
		C46.6,373.3,48.5,371.4,50.9,371.4z"/>
	<g>
		<path fill="#EEE500" d="M61.4,389.1H51.3v21.4h5.5v-8h4.3c3.1-0.2,5.6-2.9,5.5-6.7C66.5,392.1,64.9,389.6,61.4,389.1L61.4,389.1z
			 M58.6,398.2h-1.8v-4.8h1.8c2.1,0.1,2.5,1.5,2.5,2.5C61.1,397,60.5,398.1,58.6,398.2z M67.9,389.1v5.2h5.6v16.1h5.6v-16.1h5.7
			v-5.2H67.9z"/>
		<path fill="#EEE500" d="M67.5,375.3"/>
		<path fill="#EEE500" d="M69.6,382.1l3.4-2.6h-4.2l-1.3-4.2l-1.5,4.2h-4.1l3.4,2.7l-1.4,4.2l3.5-2.5l3.5,2.5L69.6,382.1z"/>
	</g>
</g>
<path fill="#FBFCFB" d="M5.6,76.6v-76H158v152H5.6C5.6,152.6,5.6,76.6,5.6,76.6z"/>
<path fill="#A3D79D" d="M15.2,152.3c-0.6-0.1-1.8-0.6-2.7-1c-2.1-1-4.6-3.5-5.6-5.6c-1.4-2.9-1.3,2.7-1.3-69.1
	c0-71.9-0.1-66.4,1.3-69.1c1.8-3.4,5-5.9,8.5-6.6c2.1-0.4,130.9-0.4,132.9,0c3.5,0.7,6.7,3.3,8.5,6.6c1.4,2.7,1.3-2.9,1.3,69.1
	c0,72.1,0.1,66.4-1.3,69.2c-1,2-3.6,4.5-5.6,5.5c-2.9,1.4,2.8,1.3-69.5,1.3L15.2,152.3L15.2,152.3z M31.9,145.5l0.5-2l8.1-34.3
	c0-0.3-9.8-0.3-9.9,0c-0.1,0.1-0.9,5-1.8,10.8L27,131.5c-0.1,0.6-0.3,0.9-0.4,0.9c-0.2,0-0.6-2.2-1.9-11.4L23,109.3
	c-0.1-0.4-10-0.4-10,0c0,0.2,0.9,4.3,2,9.1l6.1,27.3c0.1,0.3,0.5,0.3,5.5,0.3H32C32,146,31.9,145.5,31.9,145.5z M64.8,141.2v-4.7
	l-12.4-0.2l-0.1-1.8c0-1.2,0-1.9,0.2-2.1s1.3-0.3,6.3-0.3h6.1l0.1-1.2c0.1-0.7,0.1-2.7,0.1-4.6l-0.1-3.4l-6.1-0.1
	c-4.1,0-6.2-0.1-6.4-0.3c-0.3-0.2-0.4-3.2-0.1-3.7c0.1-0.2,1.7-0.3,6.4-0.3l6.2-0.1l0.1-9.6l-22,0.1l-0.2,36.9
	c0.1,0.3,1.4,0.3,11,0.3l10.9-0.1L64.8,141.2L64.8,141.2z M78.6,140.4c0.1-3.1,0.2-5.8,0.3-6c0.2-0.4,1.4-0.5,2-0.1
	c0.8,0.4,1.3,1.5,2.6,6.7l1.3,5l5.3,0.1c2.9,0,5.3,0,5.3-0.1s-0.5-2-1.2-4.3c-2.3-7.8-3.5-10.5-5.3-11.4c-0.8-0.4-0.7-0.8,0.2-1
	c1.1-0.3,2.6-1.8,3.3-3.2c1-2,1.3-3.5,1.3-6.2c0-3.7-0.8-6.1-2.6-8c-1.2-1.3-2.2-1.8-4.1-2.3c-1.4-0.4-2.2-0.4-9.5-0.4h-7.9
	l-0.1,7.1l-0.1,18.6v11.4h9.2L78.6,140.4L78.6,140.4z M79.1,125.3c-0.3-0.2-0.3-0.6-0.3-3.6c0-2.5,0.1-3.5,0.3-3.8s0.5-0.3,2-0.3
	c1.6,0.1,1.7,0.1,2.3,0.7c0.8,0.7,1,1.6,1,3.5c0,1.6-0.3,2.6-1.2,3.2C82.5,125.4,79.6,125.7,79.1,125.3z M115,145.8
	c3.5-0.7,6.3-2.8,7.9-6c1.5-3,2.2-6.1,2.3-11c0.3-9.8-2-16.1-6.9-18.5c-2.6-1.2-3.9-1.4-12.6-1.4h-7.5l-0.1,1.2
	c-0.1,0.7-0.1,9-0.1,18.6V146h7.8C112,146.1,113.8,146,115,145.8L115,145.8z M107.4,135.5c-0.2-0.2-0.2-1.9-0.2-7.9
	c0-4.2,0.1-7.8,0.2-8c0.1-0.4,0.3-0.4,1.9-0.4c1,0,2.1,0.1,2.5,0.2c1.8,0.5,3.4,2.5,3.9,5c0.1,0.7,0.3,2.2,0.3,3.4
	c0,3.9-1.1,6.1-3.3,7.3c-1,0.5-1.4,0.6-3.1,0.7C108,135.8,107.6,135.8,107.4,135.5L107.4,135.5z M150.7,145.6
	c0.1-0.2,0.1-2.4,0.1-4.8l-0.1-4.3l-6.2-0.1c-4.7,0-6.2-0.1-6.4-0.3c-0.1-0.1-0.2-1-0.2-1.9c0-1.2,0.1-1.7,0.3-1.9
	c0.3-0.3,1.1-0.3,6.4-0.3h6.1l-0.1-9.2l-12.4-0.2v-3.9l12.4-0.2l0.1-2.2c0.1-1.2,0.1-3.3,0.1-4.7l-0.1-2.6l-21.9-0.1l-0.1,1
	c-0.1,0.6-0.1,8.9-0.1,18.6V146h21.9L150.7,145.6L150.7,145.6z M88.7,100.3c0.2-0.2,1-1.8,1.9-3.6L97,83.6c4.4-8.9,5-10.2,4.8-10.2
	l-3,1.1c-3.9,1.5-7.9,2.8-12.2,4.1c-1.9,0.6-3.6,1.1-3.7,1.2s-0.5,1-0.9,1.9c-0.9,2.1-1,2.2-1.4,1.9c-0.3-0.3-7-15.7-7-16.1
	c0-0.1,0.1-0.3,0.2-0.3c0.1-0.1,2.7-0.5,5.9-1c18.8-3,31.4-5.5,39.5-7.8c2.7-0.8,1.3-0.6-4,0.6l-9.3,2c-10.2,2.1-31,5.6-32.1,5.5
	c-0.5-0.1-0.7-0.5-3.1-5.9L57.9,31.5c-0.8-1.9-0.9-2-1.4-1.9c-0.7,0.1-16.3,3.8-16.4,3.9s0.4,1.1,1.1,2.4l13.7,27.9
	c1.2,2.5,2.2,4.8,2.2,4.9c0,0.2-0.5,0.4-1.4,0.5c-2.1,0.4-17.6,2.3-25,3.2c-3.7,0.4-6.8,0.9-6.9,1c-0.3,0.3,0,0.6,0.7,0.6
	c0.6,0,18.8-2.4,27.5-3.6l5.5-0.7c0.6,0,0.1-1,12.2,23.7l3.6,7.1c0.2,0.2,1.7,0.3,7.8,0.3C87.8,100.7,88.4,100.6,88.7,100.3
	L88.7,100.3z M116.4,44.3c4.5-9.2,5.3-10.9,5.1-10.9l-8.3-2c-6.6-1.6-8.3-1.9-8.5-1.7c-0.1,0.1-1.3,2.8-2.7,6l-5.3,12.2L94,54.6
	c0.1,0.1,3.2,0.2,8.7,0.2h8.6C111.3,54.8,116.4,44.3,116.4,44.3z"/>
<path fill="#FCEF01" d="M16.3,152.4c-2.6-0.5-5-1.8-6.9-3.7c-1.5-1.6-2.5-3.1-3.2-5.2l-0.6-1.6V11.4l0.5-1.6C6.9,7.7,8,6,9.5,4.5
	s2.9-2.4,5.1-3.2l1.7-0.6h131l1.6,0.5c4.2,1.4,7.1,4.4,8.5,8.5l0.5,1.6v130.5l-0.6,1.6c-0.7,2.1-1.7,3.7-3.2,5.3
	c-1.5,1.5-2.9,2.4-5.1,3.2l-1.6,0.6H82.2C46.4,152.5,16.8,152.5,16.3,152.4L16.3,152.4z M65.2,145.6c0.1-0.3,0.1-2.6,0.1-5l-0.1-4.3
	l-12.6-0.2v-3.6l6.1-0.1c4.1,0,6.2-0.1,6.4-0.3s0.3-1.2,0.2-4.9l-0.1-4.7l-12.4-0.2v-3.6l12.4-0.2l0.2-4.8c0.1-3.3,0.1-4.9,0-5
	c-0.2-0.2-22.3-0.3-22.5,0c-0.1,0.1-0.1,8.5-0.2,18.7L42.6,146l10.9,0.1h11.2C65,146.2,65.2,146,65.2,145.6z M78.7,146.2
	c0.2-0.1,0.3-1.5,0.3-5.9l0.1-5.8l0.9-0.1c1-0.1,1.4,0.2,1.8,1.2c0.1,0.3,0.8,2.8,1.5,5.6l1.3,4.9l10.9,0.1v-0.5
	c0-0.6-1.1-4.4-2.3-8.1c-1.2-3.8-2.4-6.2-3.5-7.2c-0.5-0.4-0.9-0.8-0.8-0.9l1-0.6c1.9-1.1,3.2-3.3,3.9-6.2c0.4-1.8,0.3-5.4-0.2-7.1
	c-1-3.5-3.2-5.8-6.3-6.7c-0.9-0.2-2.8-0.3-9.4-0.3l-8.5,0.1c-0.1,0.1-0.3,36.2-0.2,37.1c0,0.1,0.2,0.3,0.4,0.3
	C69.9,146.4,78.4,146.3,78.7,146.2z M79.2,121.6l0.1-3.6h1.5c2.3,0,3.1,0.8,3.3,3.2c0.1,1.6-0.2,2.7-0.9,3.4
	c-0.4,0.4-0.7,0.5-2.3,0.5l-1.8,0.1C79.1,125.2,79.2,121.6,79.2,121.6z M116.2,145.8c4.6-1.5,7.3-4.9,8.7-11.1
	c0.5-2.2,0.7-9.7,0.4-12.5c-1-7.9-4.4-12.3-10.2-13.3c-1.5-0.3-17-0.4-17.2-0.1c-0.1,0.1-0.2,8.3-0.2,18.7l-0.1,18.6l1.3,0.1
	c0.7,0.1,4.7,0,8.8,0C114.1,146.2,115.3,146.1,116.2,145.8L116.2,145.8z M107.5,135.3c-0.1-1,0.1-15.6,0.1-15.7
	c0.1-0.1,0.9-0.1,1.9-0.1c1.6,0,2,0.1,2.8,0.5c1.1,0.6,2.1,1.7,2.7,3.3c0.3,0.9,0.5,1.7,0.5,3.5c0.2,4.2-0.7,6.6-2.8,7.9
	c-0.9,0.6-1.1,0.6-3.1,0.7C108.5,135.4,107.5,135.4,107.5,135.3z M32.2,145.6l1.5-6.2l4.2-18l2.8-12.6c-0.2-0.2-10.1-0.2-10.3,0
	c-0.1,0.1-0.5,2.3-0.9,4.9l-2.8,17.6c-0.2,0.2-0.4-1-1.9-11.4l-1.8-11c-0.3-0.3-10-0.3-10.3,0c-0.1,0.1,0.4,3,1.5,7.8l4,18.3l2.5,11
	c0.1,0.2,1.4,0.2,5.7,0.2H32C32,146.2,32.2,145.6,32.2,145.6z M150.8,141.2v-4.9l-12.4-0.2l-0.1-3.7h6.1c3.5,0,6.2-0.1,6.4-0.2
	c0.2-0.2,0.3-0.9,0.3-4.9v-4.7l-6.1-0.1c-4.2,0-6.2-0.1-6.4-0.3s-0.3-0.7-0.2-1.8l0.1-1.6l12.5-0.1l0.1-0.4c0.1-0.2,0.1-2.5,0.1-5
	l-0.1-4.5h-22.5l-0.2,18.4l-0.1,18.7c0.1,0.2,1.9,0.3,11.3,0.2l11.2-0.1L150.8,141.2L150.8,141.2z M92.8,92.8l9.4-19.7
	c-0.2-0.1-1.6,0.4-3.2,1c-4.2,1.6-8.5,3.1-12.9,4.4c-1.7,0.5-3.2,1-3.3,1.1s-0.6,1-1,2s-0.9,1.8-1,1.8s-1.7-3.6-3.5-7.9
	c-2.4-5.7-3.3-7.9-3.1-8c0.1-0.1,1.3-0.3,2.6-0.5c14.3-2.2,29.6-5.1,37.3-7c7.2-1.8,18.1-5.1,18.7-5.7c0.5-0.5-0.1-0.4-2.7,0.4
	c-11.6,3.5-29.5,7.2-55.4,11.3c-0.7,0.1-1.1,0.1-1.2-0.1c-0.1-0.1-1.1-2.3-2.2-4.9l-6.5-14.8l-7.4-17.1h-0.9c-1,0-16.3,3.7-16.6,4
	c-0.2,0.2,2.2,5.3,8.7,18.3l3.3,6.9c0.3,0.6,1.4,3.1,2.6,5.5c1.2,2.4,2.1,4.4,2.1,4.5s-0.2,0.2-0.4,0.3C55.1,69,34,71.7,25.8,72.7
	c-1.1,0.1-2.1,0.3-2.2,0.4c-0.3,0.3-0.3,0.8,0,1.1s5.9-0.4,23.7-2.9l9.8-1.3c0.5,0,0.9,0.9,7.9,14.9l8,16h15.8
	C88.8,100.9,92.8,92.8,92.8,92.8z M114,49.7l5.3-10.7c2.5-4.9,2.7-5.5,2.4-5.7c-0.3-0.3-16.1-4.1-16.9-4.1c-0.4,0,0-0.9-8.6,18.8
	c-1.5,3.6-2.7,6.6-2.6,6.6C94,55,95.1,55,103.3,55h8.1L114,49.7z"/>
<path fill="#9DCD67" d="M16.3,152.4c-2.6-0.5-5-1.8-6.9-3.7c-1.5-1.6-2.5-3.1-3.2-5.2l-0.6-1.6V11.4l0.5-1.6C6.9,7.7,8,6,9.5,4.5
	s2.9-2.4,5.1-3.2l1.7-0.6h131l1.6,0.5c4.2,1.4,7.1,4.4,8.5,8.5l0.5,1.6v130.5l-0.6,1.6c-0.7,2.1-1.7,3.7-3.2,5.3
	c-1.5,1.5-2.9,2.4-5.1,3.2l-1.6,0.6H82.2C46.4,152.5,16.8,152.5,16.3,152.4L16.3,152.4z M65.2,145.6c0.1-0.3,0.1-2.6,0.1-5l-0.1-4.3
	l-12.6-0.2v-3.6l6.1-0.1c4.1,0,6.2-0.1,6.4-0.3s0.3-1.2,0.2-4.9l-0.1-4.7l-12.4-0.2v-3.6l12.4-0.2l0.2-4.8c0.1-3.3,0.1-4.9,0-5
	c-0.2-0.2-22.3-0.3-22.5,0c-0.1,0.1-0.1,8.5-0.2,18.7L42.6,146l10.9,0.1h11.2C65,146.2,65.2,146,65.2,145.6z M78.7,146.2
	c0.2-0.1,0.3-1.5,0.3-5.9l0.1-5.8l0.9-0.1c1-0.1,1.4,0.2,1.8,1.2c0.1,0.3,0.8,2.8,1.5,5.6l1.3,4.9l10.9,0.1v-0.5
	c0-0.6-1.1-4.4-2.3-8.1c-1.2-3.8-2.4-6.2-3.5-7.2c-0.5-0.4-0.9-0.8-0.8-0.9l1-0.6c1.9-1.1,3.2-3.3,3.9-6.2c0.4-1.8,0.3-5.4-0.2-7.1
	c-1-3.5-3.2-5.8-6.3-6.7c-0.9-0.2-2.8-0.3-9.4-0.3l-8.5,0.1c-0.1,0.1-0.3,36.2-0.2,37.1c0,0.1,0.2,0.3,0.4,0.3
	C69.9,146.4,78.4,146.3,78.7,146.2z M79.2,121.6l0.1-3.6h1.5c2.3,0,3.1,0.8,3.3,3.2c0.1,1.6-0.2,2.7-0.9,3.4
	c-0.4,0.4-0.7,0.5-2.3,0.5l-1.8,0.1C79.1,125.2,79.2,121.6,79.2,121.6z M116.2,145.8c4.6-1.5,7.3-4.9,8.7-11.1
	c0.5-2.2,0.7-9.7,0.4-12.5c-1-7.9-4.4-12.3-10.2-13.3c-1.5-0.3-17-0.4-17.2-0.1c-0.1,0.1-0.2,8.3-0.2,18.7l-0.1,18.6l1.3,0.1
	c0.7,0.1,4.7,0,8.8,0C114.1,146.2,115.3,146.1,116.2,145.8L116.2,145.8z M107.5,135.3c-0.1-1,0.1-15.6,0.1-15.7
	c0.1-0.1,0.9-0.1,1.9-0.1c1.6,0,2,0.1,2.8,0.5c1.1,0.6,2.1,1.7,2.7,3.3c0.3,0.9,0.5,1.7,0.5,3.5c0.2,4.2-0.7,6.6-2.8,7.9
	c-0.9,0.6-1.1,0.6-3.1,0.7C108.5,135.4,107.5,135.4,107.5,135.3z M32.2,145.6l1.5-6.2l4.2-18l2.8-12.6c-0.2-0.2-10.1-0.2-10.3,0
	c-0.1,0.1-0.5,2.3-0.9,4.9l-2.8,17.6c-0.2,0.2-0.4-1-1.9-11.4l-1.8-11c-0.3-0.3-10-0.3-10.3,0c-0.1,0.1,0.4,3,1.5,7.8l4,18.3l2.5,11
	c0.1,0.2,1.4,0.2,5.7,0.2H32C32,146.2,32.2,145.6,32.2,145.6z M150.8,141.2v-4.9l-12.4-0.2l-0.1-3.7h6.1c3.5,0,6.2-0.1,6.4-0.2
	c0.2-0.2,0.3-0.9,0.3-4.9v-4.7l-6.1-0.1c-4.2,0-6.2-0.1-6.4-0.3s-0.3-0.7-0.2-1.8l0.1-1.6l12.5-0.1l0.1-0.4c0.1-0.2,0.1-2.5,0.1-5
	l-0.1-4.5h-22.5l-0.2,18.4l-0.1,18.7c0.1,0.2,1.9,0.3,11.3,0.2l11.2-0.1L150.8,141.2L150.8,141.2z M92.8,92.8l9.4-19.7
	c-0.2-0.1-1.6,0.4-3.2,1c-4.2,1.6-8.5,3.1-12.9,4.4c-1.7,0.5-3.2,1-3.3,1.1s-0.6,1-1,2s-0.9,1.8-1,1.8s-1.7-3.6-3.5-7.9
	c-2.4-5.7-3.3-7.9-3.1-8c0.1-0.1,1.3-0.3,2.6-0.5c14.3-2.2,29.6-5.1,37.3-7c7.2-1.8,18.1-5.1,18.7-5.7c0.5-0.5-0.1-0.4-2.7,0.4
	c-11.6,3.5-29.5,7.2-55.4,11.3c-0.7,0.1-1.1,0.1-1.2-0.1c-0.1-0.1-1.1-2.3-2.2-4.9l-6.5-14.8l-7.4-17.1h-0.9c-1,0-16.3,3.7-16.6,4
	c-0.2,0.2,2.2,5.3,8.7,18.3l3.3,6.9c0.3,0.6,1.4,3.1,2.6,5.5c1.2,2.4,2.1,4.4,2.1,4.5s-0.2,0.2-0.4,0.3C55.1,69,34,71.7,25.8,72.7
	c-1.1,0.1-2.1,0.3-2.2,0.4c-0.3,0.3-0.3,0.8,0,1.1s5.9-0.4,23.7-2.9l9.8-1.3c0.5,0,0.9,0.9,7.9,14.9l8,16h15.8
	C88.8,100.9,92.8,92.8,92.8,92.8z M114,49.7l5.3-10.7c2.5-4.9,2.7-5.5,2.4-5.7c-0.3-0.3-16.1-4.1-16.9-4.1c-0.4,0,0-0.9-8.6,18.8
	c-1.5,3.6-2.7,6.6-2.6,6.6C94,55,95.1,55,103.3,55h8.1L114,49.7z M86.4,36.6c2.5-1.1,3.5-4.4,2.4-7.9c-0.7-2-0.6-3.9,0.2-5.9
	c0.3-0.9,0.6-1.7,0.6-1.9s-0.3-0.7-0.6-1.2c-0.5-0.7-0.6-1.1-0.6-2.1c0-0.7,0.2-2,0.4-3c0.3-1.4,0.4-2.1,0.3-3.5
	C89,9,88.7,7.9,88.3,7.7c-0.5-0.2-1.7,0.6-2.8,1.6c-3,3-7.9,13.6-8.8,18.9c-0.7,4.2,1.5,8,5.1,8.6C83.1,37.2,85.5,37,86.4,36.6z
	 M85.2,15.1c-2-1.1-0.6-4.3,1.5-3.6c0.9,0.3,1.3,0.8,1.4,1.8c0.1,0.7,0,0.9-0.6,1.5C86.8,15.5,86.1,15.6,85.2,15.1z M110.1,13.4
	c0.8-0.8,2-2.9,1.9-3.2c-0.3-0.8-5.5-2.4-9.4-3c-4.8-0.7-10.9-0.6-12.4,0.2c-0.5,0.3-0.5,0.2-0.1,3.3l0.2,1.9h0.9
	c0.5,0,2.8-0.1,5.2-0.1c4.7,0,6.8,0.2,10.4,1.1C109.2,14.1,109.3,14.1,110.1,13.4z"/>
<path fill="#50B747" d="M17,152.4c-0.3,0-0.7-0.2-0.9-0.2c-0.2-0.1-0.8-0.3-1.3-0.4c-3.7-1-7.5-4.8-8.5-8.5
	c-0.1-0.5-0.3-1.1-0.5-1.4c-0.3-0.7-0.3-130,0-130.7C6,11,6.2,10.4,6.4,9.9c1-3.8,4.7-7.4,8.5-8.5c0.5-0.1,1.1-0.3,1.4-0.5
	c0.7-0.3,130.5-0.3,131.2,0c0.5,0.2,0.9,0.3,1.4,0.5c1.7,0.4,3.9,1.8,5.2,3.1c1.5,1.5,2.5,3.1,3.3,5.5l0.6,1.8v129.7l-0.5,1.4
	c-1,3-2.4,5.1-4.3,6.7c-1.1,0.9-3.8,2.3-4.8,2.4c-0.4,0.1-0.8,0.2-1,0.3c-0.2,0.2-17.6,0.2-65.1,0.2C46.7,152.5,17.3,152.5,17,152.4
	z M32.2,146c0.2-0.4,7.4-31,8.4-35.5c0.2-0.7,0.2-1.5,0.2-1.6c-0.1-0.3-0.8-0.3-5.3-0.3c-4.7,0-5.2,0-5.3,0.3
	c-0.1,0.2-0.5,2.5-0.9,5.2l-1.7,10.8c-0.5,3.3-1,5.9-1.1,5.8s-0.8-5-1.6-10.9l-1.7-11c-0.2-0.2-1.3-0.2-5.4-0.2
	c-5.1,0.1-5.2,0.1-5.2,0.5c-0.1,0.4,7.7,36.1,8.1,36.9l0.2,0.4H32L32.2,146z M65.4,141.5c0.1-3,0.1-5-0.1-5.2
	c-0.2-0.3-0.6-0.4-6.4-0.4h-6.2v-1.7c0-1.3,0.1-1.7,0.3-1.8s3-0.1,6.2-0.1c5.6,0,5.9,0,6.1-0.4c0.3-0.6,0.3-9.2-0.1-9.5
	c-0.2-0.1-2.3-0.2-6.4-0.3l-6.1-0.1v-3.2l6.1-0.1c4.1,0,6.2-0.1,6.4-0.3s0.3-1.2,0.2-5.2l-0.1-5l-11.2-0.1l-11.4,0.1
	c-0.2,0.2-0.5,36.9-0.3,37.4c0.1,0.3,1.1,0.3,11.4,0.3l11.3-0.1C65.1,145.8,65.4,141.5,65.4,141.5z M78.9,146.2
	c0.1-0.1,0.2-2.8,0.2-5.9l0.1-5.7l0.9,0.1c0.7,0,1,0.2,1.3,0.6c0.2,0.3,1,2.8,1.7,5.6s1.4,5.2,1.5,5.4s1.5,0.2,5.6,0.2
	c4.8,0,5.4,0,5.5-0.3s-0.7-3.3-1.9-7.3c-1.6-5.1-2.7-7.4-4.1-8.6c-0.4-0.3-0.6-0.6-0.6-0.6s0.4-0.2,0.9-0.5c1.6-0.8,3-3,3.8-5.6
	c0.5-1.7,0.5-5.7,0-7.5c-0.9-3.8-3.3-6.3-6.9-7.1c-1.1-0.3-2.7-0.3-9.4-0.3l-8.1,0.1l-0.1,1.9c-0.2,2.5-0.2,35.6,0,35.8
	C69.3,146.6,78.7,146.5,78.9,146.2z M79.6,124.9l-0.5-0.2l0.1-3.2l0.1-3.4c0-0.1,0.7-0.1,1.6-0.1c1.2,0.1,1.7,0.2,2,0.5
	c0.7,0.6,1,1.5,1,3.2c0,1.6-0.4,2.6-1.1,3C82.2,125,80.1,125.1,79.6,124.9z M116.5,145.8c2.1-0.7,3.2-1.4,4.6-2.8
	c1.5-1.5,2.4-3,3.2-5.4c1-2.8,1.3-5,1.4-9.1c0.3-11.4-2.7-17.5-9.5-19.4c-1-0.3-2.4-0.3-9.7-0.4c-8.1-0.1-8.5-0.1-8.7,0.3
	s-0.4,37-0.2,37.3c0.1,0.2,1.8,0.2,8.8,0.2l8.6-0.1L116.5,145.8L116.5,145.8z M107.7,135.3c-0.2-0.2-0.2-4.3,0-10.8l0.1-4.9l1.9,0.1
	c1.6,0.1,2,0.2,2.8,0.6c1.1,0.7,2,1.8,2.4,3.1c0.8,2.4,0.7,6.7-0.2,8.8c-1,2.2-2.3,3.1-5.2,3.2C108.6,135.4,107.8,135.4,107.7,135.3
	L107.7,135.3z M150.9,146.2c0.4-0.4,0.3-9.7,0-10c-0.2-0.1-2.3-0.2-6.4-0.3l-6.1-0.1l-0.1-1.5c0-1.1,0-1.6,0.2-1.7
	c0.2-0.2,2.2-0.2,6.4-0.3l6.1-0.1v-9.9l-12.5-0.1V119h6.1c3.5,0,6.2-0.1,6.4-0.2c0.2-0.2,0.3-1,0.4-4.8c0-2.5,0-4.8-0.1-5l-0.1-0.5
	H140c-10.5,0-11.2,0-11.4,0.3c-0.2,0.4-0.4,36.9-0.2,37.3S150.6,146.6,150.9,146.2L150.9,146.2z M88.8,100.9
	c0.3-0.2,13.7-27.2,13.7-27.6c0-0.5-0.6-0.3-3.3,0.7c-3.1,1.2-10.3,3.7-13.7,4.6c-1.4,0.4-2.6,0.8-2.8,1s-0.6,1-1,1.9
	s-0.7,1.6-0.8,1.6c-0.2,0-1.6-3.1-4.5-9.6c-1.9-4.3-2.4-5.8-2.2-5.9c0.1-0.1,1-0.3,2-0.4c8.5-1.2,26.7-4.5,33.6-6
	c8.9-2,21.4-5.6,23.5-6.9c0.5-0.3,1.7-0.8,2.8-1.2c1.9-0.7,2.7-1.1,2.1-1.1c-0.2,0-1.4,0.2-2.9,0.5c-4.5,0.9-9.6,1.5-16.2,2
	c-4.7,0.3-7.2,0.4-7.2,0.1c0-0.1,2.3-4.9,5.2-10.6c4.3-8.8,5.1-10.5,4.9-10.7c-0.3-0.3-16.7-4.3-17.2-4.1c-0.3,0.1-1.5,2.8-5.7,12.4
	l-5.6,12.7l-0.3,0.4l-4.9-0.1c-6.1-0.2-10.2-0.2-15.6,0l-4.2,0.1l-0.3-0.5C68,53.9,66,49.3,63.7,44l-5.3-12.2
	c-0.6-1.4-1.2-2.6-1.4-2.6c-0.2-0.1-16.9,3.8-17.3,4c-0.1,0.1-0.2,0.3-0.2,0.5s2.6,5.7,5.8,12.2L51.1,58c0,0.2-1.3,0.7-3.2,1.3
	c-9.2,3.1-17.2,7.4-23.3,12.5c-1.7,1.5-2,2.1-1.4,2.6c0.2,0.2,0.7,0.2,2.2,0L52,70.7l5.5-0.7c0.2,0.1,6.1,12,6.3,12.6
	c0.2,0.7,8.7,17.7,9,18.1c0.2,0.3,1.2,0.3,8,0.3C85,101.1,88.6,101,88.8,100.9L88.8,100.9z M85.9,36.8c2-0.6,3.1-2.2,3.4-4.6
	c0.1-0.9,0-1.6-0.4-3.3c-0.7-2.7-0.6-4.1,0.3-6.5l0.7-1.7l-0.4-0.4c-0.6-0.6-1-1.8-1-2.6c0-0.4,0.2-1.5,0.4-2.5
	c0.3-1.5,0.4-2.2,0.3-4c-0.1-2.5-0.4-3.5-0.9-3.5c-1.9,0-4.4,3.1-7.4,9.1c-1.8,3.6-3,6.8-3.8,9.8c-1.3,4.9,0.3,8.9,3.9,10.2
	C82.2,37.2,84.6,37.2,85.9,36.8z M85.5,15.2c-0.2-0.1-0.6-0.4-0.9-0.7c-0.9-1.2,0-3,1.5-3c2.1,0,2.7,2.9,0.8,3.7
	C86.2,15.4,86.1,15.4,85.5,15.2z M110.1,13.5c1.1-1.2,2.1-3,1.9-3.3c-0.5-0.8-5.1-2.3-9-2.9c-3-0.5-11-0.5-12.4,0
	c-0.8,0.3-0.9,0.3-0.9,1c0,0.9,0.3,3.6,0.4,4s0.2,0.4,5.9,0.4c6.2,0,7.5,0.1,11.4,1.2l1.9,0.5C109.3,14.2,109.7,13.9,110.1,13.5z"/>
<path fill="#D2402F" d="M52.4,82.8c-7.6-0.4-15.8-2-21.9-4.4c-2.2-0.9-5.9-2.8-6.5-3.3c-0.4-0.3-0.3-0.4,0.3-0.5
	c0.4-0.1,1.8-0.3,3.1-0.4l24.9-3.4c2.7-0.4,5-0.6,5.1-0.6c0.2,0.1,6.1,12,6.1,12.3C63.6,82.8,57.2,83,52.4,82.8z M79.5,80
	c-0.3-0.4-5.3-11.9-5.3-12.2c0-0.1,0.7-0.3,1.5-0.5c30-4.7,45.4-8.2,60-13.7c1.3-0.5,2.5-0.9,2.6-0.9c0.3,0.1-1.5,1.5-4.8,3.6
	c-5.9,3.9-11.7,7.3-18,10.5c-5.4,2.7-11.2,5.3-12.8,5.7c-0.5,0.1-2.3,0.8-4.2,1.5c-4.8,1.8-8.1,2.9-12.3,4.2c-2,0.6-3.8,1.2-4,1.3
	C82,79.8,81.5,80,81.1,80c-0.4,0.1-0.9,0.2-1,0.2C79.9,80.3,79.7,80.2,79.5,80z M86.1,54.3c-1.5-0.1-5.3-0.1-8.5-0.1h-5.8l-0.6-1.5
	c-1.5-3.8-2.3-8.5-2.4-12.6c0-2.2,0.1-2.9,0.4-4c0.5-1.7,1.5-3.6,2.8-5.7c0.5-0.9,1-1.8,1-2.1c0-1.1,0.6-4.7,1.1-6.4
	c1.7-5.9,3.8-10,6.2-12.2c2-1.7,4.7-2.8,6.9-2.6l1,0.1l-1,0.5C86.7,8,85.7,8.8,85,9.5c-3.2,3.6-8,14.5-8.5,19.4
	c-0.3,2.5,0.8,5.4,2.4,6.8c1.3,1.1,2.5,1.5,4.8,1.5c1.6,0,2-0.1,3-0.5c2.5-1.2,3.4-4.2,2.3-8c-0.7-2.3-0.6-3.7,0.3-6l0.7-1.9
	L89.4,20c-0.9-1.1-1-2.4-0.4-4.9c0.6-2.6,0.5-6.2-0.3-7.3c-0.2-0.3-0.3-0.5-0.2-0.5c0.2-0.1,1.6-0.6,2.2-0.8c1.1-0.3,8.1-0.3,10.9,0
	c2.9,0.3,6,1,8,1.8c1.8,0.7,4.6,2.5,6.2,3.9c3.1,2.8,5,6.7,5.1,10.3c0,1.5,0,1.6-0.4,1.7c-0.3,0-0.6-0.1-0.9-0.3
	c-0.6-0.6-1.4-0.9-3-1.4c-4.9-1.4-10-2-17-2c-3.8,0-4.9,0.1-5.8,0.3c-0.7,0.2-1.4,0.4-2.2,0.4l-1.1,0.1L89.8,23
	c-1,2.4-1,3.4-0.2,6.1c0.4,1.3,1,2.7,1.5,3.5c1.3,2.1,1.5,3,1.5,7.6c0,2.6-0.1,4.5-0.3,5.4c-0.6,3.3-2,8.2-2.4,8.7
	c-0.1,0.1-0.4,0.2-0.7,0.2C89.2,54.5,86.1,54.3,86.1,54.3z M109.9,13.9c0.5-0.4,2.4-3.2,2.4-3.7c0-1-5.5-2.8-10.5-3.4
	c-4.6-0.6-11.3-0.3-12.1,0.6c-0.2,0.2-0.2,0.6,0,2.1c0.2,1,0.3,2.1,0.3,2.5s0.1,0.7,0.3,0.8c0.1,0.1,1.7,0,3.4-0.1
	c4.8-0.3,9.8,0.1,13.5,1.1C108.8,14.3,109.3,14.3,109.9,13.9z M85.1,14.6c-1.2-1.2-0.5-3,1.2-3c0.6,0,0.9,0.1,1.3,0.6
	c0.6,0.7,0.6,1.1,0.2,2C87.2,15.3,85.9,15.5,85.1,14.6z"/>
<path fill="#1FB058" d="M52.4,82.8c-7.6-0.4-15.8-2-21.9-4.4c-2.2-0.9-5.9-2.8-6.5-3.3c-0.4-0.3-0.3-0.4,0.3-0.5
	c0.4-0.1,1.8-0.3,3.1-0.4l24.9-3.4c2.7-0.4,5-0.6,5.1-0.6c0.2,0.1,6.1,12,6.1,12.3C63.6,82.8,57.2,83,52.4,82.8z M79.5,80
	c-0.3-0.4-5.3-11.9-5.3-12.2c0-0.1,0.7-0.3,1.5-0.5c30-4.7,45.4-8.2,60-13.7c1.3-0.5,2.5-0.9,2.6-0.9c0.3,0.1-1.5,1.5-4.8,3.6
	c-5.9,3.9-11.7,7.3-18,10.5c-5.4,2.7-11.2,5.3-12.8,5.7c-0.5,0.1-2.3,0.8-4.2,1.5c-4.8,1.8-8.1,2.9-12.3,4.2c-2,0.6-3.8,1.2-4,1.3
	C82,79.8,81.5,80,81.1,80c-0.4,0.1-0.9,0.2-1,0.2C79.9,80.3,79.7,80.2,79.5,80z M86.1,54.3c-1.5-0.1-5.3-0.1-8.5-0.1h-5.8l-0.6-1.5
	c-1.5-3.8-2.3-8.5-2.4-12.6c0-2.2,0.1-2.9,0.4-4c0.5-1.7,1.5-3.6,2.8-5.7c0.5-0.9,1-1.8,1-2.1c0-1.1,0.6-4.7,1.1-6.4
	c1.7-5.9,3.8-10,6.2-12.2c2-1.7,4.7-2.8,6.9-2.6l1,0.1l-1,0.5C86.7,8,85.7,8.8,85,9.5c-3.2,3.6-8,14.5-8.5,19.4
	c-0.3,2.5,0.8,5.4,2.4,6.8c1.3,1.1,2.5,1.5,4.8,1.5c1.6,0,2-0.1,3-0.5c2.5-1.2,3.4-4.2,2.3-8c-0.7-2.3-0.6-3.7,0.3-6l0.7-1.9
	L89.4,20c-0.9-1.1-1-2.4-0.4-4.9c0.6-2.6,0.5-6.2-0.3-7.3c-0.2-0.3-0.3-0.5-0.2-0.5c0.2-0.1,1.6-0.6,2.2-0.8c1.1-0.3,8.1-0.3,10.9,0
	c2.9,0.3,6,1,8,1.8c1.8,0.7,4.6,2.5,6.2,3.9c3.1,2.8,5,6.7,5.1,10.3c0,1.5,0,1.6-0.4,1.7c-0.3,0-0.6-0.1-0.9-0.3
	c-0.6-0.6-1.4-0.9-3-1.4c-4.9-1.4-10-2-17-2c-3.8,0-4.9,0.1-5.8,0.3c-0.7,0.2-1.4,0.4-2.2,0.4l-1.1,0.1L89.8,23
	c-1,2.4-1,3.4-0.2,6.1c0.4,1.3,1,2.7,1.5,3.5c1.3,2.1,1.5,3,1.5,7.6c0,2.6-0.1,4.5-0.3,5.4c-0.6,3.3-2,8.2-2.4,8.7
	c-0.1,0.1-0.4,0.2-0.7,0.2C89.2,54.5,86.1,54.3,86.1,54.3z M120.1,20.8c-0.2-2.2-1.5-4.7-3.5-6.9c-1.1-1.2-3.3-3.2-3.6-3.2
	c-0.1,0-0.5,0.5-0.8,1c-0.4,0.6-0.9,1.4-1.3,1.9s-0.6,0.9-0.6,1s0.6,0.4,1.3,0.7c2.1,0.9,4.4,2.5,6.2,4.5c0.9,1,1.7,1.9,1.7,2
	s0.1,0.2,0.3,0.2C120.2,21.9,120.2,21.8,120.1,20.8z M109.9,13.9c0.5-0.4,2.4-3.2,2.4-3.7c0-1-5.5-2.8-10.5-3.4
	c-4.6-0.6-11.3-0.3-12.1,0.6c-0.2,0.2-0.2,0.6,0,2.1c0.2,1,0.3,2.1,0.3,2.5s0.1,0.7,0.3,0.8c0.1,0.1,1.7,0,3.4-0.1
	c4.8-0.3,9.8,0.1,13.5,1.1C108.8,14.3,109.3,14.3,109.9,13.9z M85.1,14.6c-1.2-1.2-0.5-3,1.2-3c0.6,0,0.9,0.1,1.3,0.6
	c0.6,0.7,0.6,1.1,0.2,2C87.2,15.3,85.9,15.5,85.1,14.6z"/>
<path fill="#262B1E" d="M86.1,54.3c-1.5-0.1-5.3-0.1-8.5-0.1h-5.8l-0.6-1.5c-1.5-3.8-2.3-8.5-2.4-12.6c0-2.2,0.1-2.9,0.4-4
	c0.5-1.7,1.5-3.6,2.8-5.7c0.5-0.9,1-1.8,1-2.1c0-1.1,0.6-4.7,1.1-6.4c1.7-5.9,3.8-10,6.2-12.2c2-1.7,5.8-3,8-2.8l0.2,0.2l-1.2,0.6
	c-0.6,0.3-1.5,1.1-2.2,1.8C81.8,13.1,77,24,76.5,28.9c-0.3,2.5,0.8,5.4,2.4,6.8c1.3,1.1,2.5,1.5,4.8,1.5c1.6,0,2-0.1,3-0.5
	c2.5-1.2,3.4-4.2,2.3-8c-0.7-2.3-0.6-3.7,0.3-6l0.7-1.9L89.4,20c-0.9-1.1-1-2.4-0.4-4.9c0.6-2.6,0.5-6.2-0.3-7.3
	C88.5,7.5,87,7.7,87,7.7c0-0.7,3-1,3.7-1.2c1.1-0.3,8.1-0.3,10.9,0c2.9,0.3,6,1,8,1.8c1.8,0.7,4.6,2.5,6.2,3.9
	c3.1,2.8,5,6.7,5.1,10.3c0,1.5,0,1.6-0.4,1.7c-0.3,0-0.6-0.1-0.9-0.3c-1.1-1-4.4-2-9.2-2.7c-3.7-0.5-6.1-0.7-10.8-0.7
	c-3.8,0-4.9,0.1-5.8,0.3c-0.7,0.2-1.4,0.4-2.2,0.4l-1.1,0.1L89.8,23c-1,2.4-1,3.4-0.2,6.1c0.4,1.3,1,2.7,1.5,3.5
	c1.3,2.1,1.5,3,1.5,7.6c0,2.6-0.1,4.5-0.3,5.4c-0.6,3.3-2,8.2-2.4,8.7c-0.1,0.1-0.4,0.2-0.7,0.2C89.2,54.5,86.1,54.3,86.1,54.3z
	 M119.2,22.1c0-1-4.1-4.6-6.8-5.9c-3.5-1.7-8-2.8-13.2-3c-3.8-0.2-8.6,0-9,0.3c-0.3,0.3-1,3-1,3.8s0.5,2,1,2.6s1.5,0.6,3.1,0.1
	s10.6-0.5,14.4,0c3.5,0.5,7,1.2,9.3,1.9S119.2,22.6,119.2,22.1z M120.1,20.8c-0.2-2.2-1.5-4.7-3.5-6.9c-1.1-1.2-3.3-3.2-3.6-3.2
	c-0.1,0-0.5,0.5-0.8,1c-0.4,0.6-0.9,1.4-1.3,1.9s-0.6,0.9-0.6,1s0.6,0.4,1.3,0.7c2.1,0.9,4.4,2.5,6.2,4.5c0.9,1,1.7,1.9,1.7,2
	s0.1,0.2,0.3,0.2C120.2,21.9,120.2,21.8,120.1,20.8z M109.9,13.9c0.5-0.4,2.4-3.2,2.4-3.7c0-1-5.5-2.6-10.6-3.3
	c-4.6-0.6-11.2-0.4-12.1,0.4c-0.2,0.2-0.2,0.6,0,2.1c0.2,1,0.3,2.1,0.3,2.5s0.1,0.7,0.3,0.8c0.1,0.1,1.7,0,3.4-0.1
	c4.8-0.3,9.8,0.1,13.5,1.1C108.8,14.3,109.3,14.3,109.9,13.9L109.9,13.9z M85.1,14.6c-1.2-1.2-0.5-3,1.2-3c0.6,0,0.9,0.1,1.3,0.6
	c0.6,0.7,0.6,1.1,0.2,2C87.2,15.3,85.9,15.5,85.1,14.6z"/>
<path fill="#B5261E" d="M341.5,92.6v-15c0-2.3-0.9-3.1-3.2-2.9l-2.2,0.4v17.4h-6.7V70.2l4.5-0.6l1.3,1.4c1.8-0.8,3.6-1.5,5.6-1.4
	s3.8,0.5,5.4,1.6c3.1-1.4,6.1-1.9,9.3-1.3c2.7,0.5,4.2,2.3,4.7,5l0.2,2.4v15.4h-6.5V77.8c0-0.6,0-1.2-0.1-1.7
	c-0.2-1-0.7-1.3-1.7-1.3c-1.2,0-2.2,0.2-3.5,0.3v17.5L341.5,92.6L341.5,92.6z M424.3,70.1l4.6-0.6l1.1,1.2l4.4-1.2
	c2.7-0.4,5.4,0.1,7.4,2c1.6,1.3,2.4,3.2,2.6,5.2c0,0.6,0.1,1.2,0.1,1.7v13.9h-6.8V78.2c0-1.5-0.3-3.2-2-3.5c-1.6-0.3-3.1,0-4.8,0.3
	v17.5h-6.7L424.3,70.1L424.3,70.1z M450.8,75.9l-1.6-3.9c0.1-0.1,0.2-0.2,0.3-0.2c2.2-0.9,4.5-1.6,6.8-2c2.8-0.5,5.4,0.3,7.5,2.1
	c1.6,1.3,2.2,3.1,2.2,5v10.8c0.7,0,1.3,0,1.9,0.1l0.9,3.6c-1.3,0.7-2.5,1.1-3.9,1.4c-2.3,0.5-3.6-0.4-4.9-1.5
	c-1.5,0.8-3,1.4-4.7,1.6c-2.7,0.4-5.2-0.4-6.9-2.5c-1.8-2-2-4.3-1.2-6.8c1.1-2.7,3.2-4.1,6.1-4.4c1.5-0.1,2.9,0,4.4,0.1
	c0.5,0,1,0.1,1.7,0.1c0.1-1.1,0.2-2.1-0.1-3.1c-0.3-1.2-1.7-1.9-3-1.7C454.3,74.8,452.4,75.6,450.8,75.9L450.8,75.9z M459.4,83.6
	h-3.5c-1.3,0-2,0.9-2.1,2c0,1.2,0.9,2.3,2,2.5c1.3,0.1,2.4-0.1,3.7-0.4L459.4,83.6L459.4,83.6z M374.7,93c-5.7,0-9.9-3.5-10.7-9
	c-0.4-2.3-0.4-4.7,0.4-7c1.7-5.5,6.4-8,11.8-7.4c6.1,0.7,9,5.2,9.6,9.7c0.3,1.8,0.2,3.6-0.3,5.5C384.2,90,380.2,93.1,374.7,93
	L374.7,93z M379,81.3c-0.1-1.7-0.1-3.5-1-5c-1.5-2.6-5-2.6-6.4-0.1c-0.3,0.5-0.5,1-0.6,1.4c-0.6,1.9-0.6,3.9-0.3,5.9
	c0.2,1,0.5,1.9,1,2.9c0.6,1.2,1.8,1.7,3.1,1.7c1.7,0,2.7-0.9,3.4-2.3S379,82.9,379,81.3L379,81.3z M421,83.1l-12.6-0.3
	c0,3.3,2.1,5.4,5.3,5.2c2.3-0.2,4.6-0.7,6.5-1.1l0.5,4c-2,1.1-4,1.6-6.1,1.9c-1.7,0.3-3.2,0.4-4.9,0.1c-3.3-0.6-5.6-2.6-6.8-5.6
	c-1.7-3.9-1.7-8-0.1-11.9c1.8-4.6,6-6.2,10.4-5.8c0.7,0.1,1.4,0.2,2,0.4c3.4,1,5.4,3.3,6.1,6.5C421.8,78.8,422,81.3,421,83.1
	L421,83.1z M415,78.6c0-1.2-0.4-2.4-1.1-3.2c-1.2-1.3-3.6-1.2-4.6,0.1c-0.7,0.9-0.9,1.9-0.9,3.1L415,78.6L415,78.6z M395.2,92.6
	h-6.6V70.1l4.6-0.6l1.3,1.9c2.5-1.5,4.7-2.1,7.2-2.5l-0.9,6.1l-5.6,0.8L395.2,92.6L395.2,92.6z"/>
</svg>
