<svg xmlns="http://www.w3.org/2000/svg" width="1581.861" height="438.584" viewBox="0 0 1581.861 438.584">
  <g id="Grupo_12068" data-name="Grupo 12068" transform="translate(-6441.947 -2048.988)">
    <g id="Grupo_12064" data-name="Grupo 12064" transform="translate(6958.281 2048.988)">
      <path id="Trazado_10636" data-name="Trazado 10636" d="M6886.609,2249.257v118.063h-55.315V2048.988h121.78q53.347,0,84.721,27.8t31.374,73.541q0,46.84-30.718,72.888t-86.032,26.044Zm0-44.6h66.465q29.515,0,45.038-13.884t15.524-40.119q0-25.794-15.743-41.213t-43.29-15.851h-67.994Z" transform="translate(-6831.294 -2048.988)"/>
      <path id="Trazado_10637" data-name="Trazado 10637" d="M7164.274,2244.885h-61.655v122.436h-55.313V2048.988h111.939q55.1,0,85.05,24.728t29.954,71.554q0,31.951-15.414,53.5t-42.962,33.151l71.492,132.56v2.841h-59.25Zm-61.655-44.6h56.846q27.981,0,43.727-14.1t15.742-38.588q0-25.582-14.539-39.574t-43.4-14.43h-58.376Z" transform="translate(-6760.842 -2048.988)"/>
      <path id="Trazado_10638" data-name="Trazado 10638" d="M7448.008,2225.207H7317.265v97.948H7470.09v44.165H7261.949V2048.988h206.611v44.6h-151.3v87.891h130.743Z" transform="translate(-6690.834 -2048.988)" fill="#d3097f"/>
      <path id="Trazado_10639" data-name="Trazado 10639" d="M7510.709,2249.257v118.063h-55.314V2048.988h121.779q53.347,0,84.721,27.8t31.375,73.541q0,46.84-30.718,72.888t-86.033,26.044Zm0-44.6h66.465q29.517,0,45.039-13.884t15.523-40.119q0-25.794-15.742-41.213t-43.29-15.851h-68Z" transform="translate(-6627.742 -2048.988)"/>
    </g>
    <circle id="Elipse_669" data-name="Elipse 669" cx="19.832" cy="19.832" r="19.832" transform="translate(7275.346 2426.762)" fill="#d3097f"/>
    <g id="Grupo_12065" data-name="Grupo 12065" transform="translate(6955.444 2405.803)">
      <path id="Trazado_10640" data-name="Trazado 10640" d="M6882.83,2398.723h-52.145v-7.269l27.548-30.609a65.57,65.57,0,0,0,8.445-11.287,18.841,18.841,0,0,0,2.323-8.991,14.277,14.277,0,0,0-3.771-10.222,13.192,13.192,0,0,0-10.058-3.989q-7.544,0-11.725,4.29t-4.182,11.943h-10.112q0-10.987,7.08-17.764t18.938-6.778q11.1,0,17.545,5.82t6.451,15.5q0,11.752-14.977,27.986l-21.318,23.12h39.956Z" transform="translate(-6829.154 -2318.048)"/>
      <path id="Trazado_10641" data-name="Trazado 10641" d="M6928.215,2364.781q0,17.764-6.067,26.4t-18.967,8.636q-12.737,0-18.856-8.445t-6.341-25.225v-13.5q0-17.545,6.068-26.072t19.021-8.526q12.842,0,18.912,8.226t6.23,25.389Zm-10.112-13.828q0-12.844-3.606-18.721t-11.424-5.875q-7.761,0-11.314,5.848t-3.662,17.983v16.179q0,12.9,3.744,19.048t11.341,6.149q7.49,0,11.124-5.794t3.8-18.256Z" transform="translate(-6813.229 -2318.048)"/>
      <path id="Trazado_10642" data-name="Trazado 10642" d="M6979.822,2398.723h-52.145v-7.269l27.548-30.609a65.5,65.5,0,0,0,8.444-11.287,18.863,18.863,0,0,0,2.323-8.991,14.277,14.277,0,0,0-3.771-10.222,13.191,13.191,0,0,0-10.058-3.989q-7.542,0-11.724,4.29t-4.181,11.943h-10.112q0-10.987,7.078-17.764t18.938-6.778q11.093,0,17.547,5.82t6.448,15.5q0,11.752-14.976,27.986l-21.316,23.12h39.955Z" transform="translate(-6797.521 -2318.048)"/>
      <path id="Trazado_10643" data-name="Trazado 10643" d="M7006.878,2398.549H6996.71v-67.394l-20.386,7.489v-9.182l28.968-10.877h1.586Z" transform="translate(-6781.156 -2317.873)"/>
    </g>
    <g id="Grupo_12066" data-name="Grupo 12066" transform="translate(7394.788 2406.896)">
      <path id="Trazado_10644" data-name="Trazado 10644" d="M7174,2318.872l26.018,64.935,26.018-64.935h13.61v79.583h-10.5v-30.991l.984-33.451-26.127,64.442h-8.035l-26.071-64.277,1.038,33.286v30.991h-10.494v-79.583Z" transform="translate(-7160.447 -2318.872)"/>
      <path id="Trazado_10645" data-name="Trazado 10645" d="M7263.09,2349.372l19.076-30.5h12.352l-25.143,39.463,25.745,40.119h-12.464l-19.566-31.045-19.679,31.045H7231l25.8-40.119-25.2-39.463h12.3Z" transform="translate(-7137.434 -2318.872)"/>
    </g>
    <g id="Grupo_12067" data-name="Grupo 12067" transform="translate(6441.947 2050.158)">
      <path id="Trazado_10646" data-name="Trazado 10646" d="M6512.292,2213.305l52.109,52.108,16.4,16.4,6.488,6.486a8.32,8.32,0,0,1,.564-12.264c12.462-10.4,23.069-20.311,31.834-29.074,10.657-10.658,20.319-21.344,29.118-31.894a8.288,8.288,0,0,1,12.221-.508l32.637,32.638,18.2,18.2,16.413,16.412,5.23,5.232a8.342,8.342,0,0,1-.638-11.037,483.913,483.913,0,0,0,47.624-74.213,8.3,8.3,0,0,1,13.234-2.008L6646.25,2052.3a8.323,8.323,0,0,0-13.28,2.087A481.318,481.318,0,0,1,6501.2,2212.7l.14-.106A8.283,8.283,0,0,1,6512.292,2213.305Z" transform="translate(-6422.621 -2049.871)" fill="#d8d8d8"/>
      <path id="Trazado_10647" data-name="Trazado 10647" d="M6672.835,2439.124c2.817-1.507,5.686-3.067,8.639-4.726l.131-.073q4.9-2.757,10.036-5.8l.134-.081a485.1,485.1,0,0,0,55.824-38.75l-34.616-34.617-39.118-39.116-34.621-34.624-32.63-32.63-6.488-6.486-16.4-16.4-52.109-52.108a8.283,8.283,0,0,0-10.947-.708l-.14.106q-3.554,2.769-7.284,5.559l-.775.581q-3.489,2.6-7.138,5.217c-.425.3-.842.607-1.268.911-2.282,1.627-4.62,3.254-6.988,4.88-.591.4-1.17.809-1.765,1.213-2.246,1.528-4.549,3.053-6.872,4.575-.738.484-1.464.97-2.212,1.454-2.245,1.455-4.548,2.9-6.866,4.348-.854.532-1.686,1.065-2.548,1.6-2.3,1.412-4.653,2.815-7.02,4.216-.919.544-1.815,1.093-2.746,1.637-2.515,1.465-5.094,2.916-7.687,4.364-.813.454-1.6.915-2.419,1.367q-5.155,2.841-10.5,5.623a8.327,8.327,0,0,0-2.057,13.292l65.583,65.6,12.015,12.015,15.094,15.093,12.015,12.015,34.616,34.616,12.015,12.015,15.094,15.093,12.015,12.015,30.385,30.385c.137.137.291.244.434.37.192.167.378.347.582.5.081.059.17.1.254.154a8.3,8.3,0,0,0,8.377.518l.011-.005c2.669-1.349,5.445-2.793,8.273-4.293Q6671.988,2439.58,6672.835,2439.124Z" transform="translate(-6441.947 -2010.277)" fill="#79134c"/>
      <path id="Trazado_10648" data-name="Trazado 10648" d="M6723.953,2165.519a483.9,483.9,0,0,1-47.624,74.213,8.343,8.343,0,0,0,.638,11.038l33.9,33.9,30.372,30.371,4.245,4.246.046-.06q3.376-4.2,6.8-8.656l.02-.025c6.756-8.81,13.608-18.387,20.4-28.721.466-.711.931-1.44,1.4-2.158q2.511-3.865,5-7.871,1-1.61,2-3.245,2.222-3.634,4.422-7.39c.713-1.214,1.427-2.427,2.137-3.66,1.482-2.578,2.951-5.213,4.413-7.869.634-1.151,1.273-2.278,1.9-3.444,2.062-3.816,4.1-7.7,6.113-11.676a8.335,8.335,0,0,0-1.564-9.624l-30.377-30.376-31-31h0A8.3,8.3,0,0,0,6723.953,2165.519Z" transform="translate(-6366.085 -2013.603)" fill="#d971a9"/>
      <path id="Trazado_10649" data-name="Trazado 10649" d="M6777.2,2311.4l-30.372-30.371-33.9-33.9-5.23-5.232-16.413-16.412-18.2-18.2-32.637-32.638a8.288,8.288,0,0,0-12.221.508c-8.8,10.55-18.461,21.236-29.118,31.894-8.765,8.763-19.372,18.671-31.834,29.074a8.321,8.321,0,0,0-.564,12.265l32.63,32.63,34.621,34.624,39.118,39.116,34.616,34.617q4.63-3.721,9.3-7.67c.226-.189.449-.381.674-.57,2.767-2.345,5.543-4.767,8.323-7.233.555-.492,1.108-.977,1.664-1.476,2.5-2.242,5.012-4.558,7.521-6.9.7-.654,1.4-1.286,2.1-1.948q4.655-4.406,9.31-9.045c1.426-1.426,2.888-2.91,4.371-4.433.65-.667,1.314-1.362,1.975-2.049.807-.838,1.614-1.677,2.435-2.543q1.346-1.422,2.72-2.9.8-.859,1.612-1.737c1.13-1.224,2.264-2.456,3.414-3.73.13-.143.262-.293.394-.437,5.74-6.367,11.731-13.349,17.854-20.961.026-.034.053-.065.081-.1h0Z" transform="translate(-6402.046 -2009.969)" fill="#d3097f"/>
    </g>
  </g>
</svg>
