<?xml version="1.0" encoding="utf-8"?>
<!-- Generator: Adobe Illustrator 25.0.0, SVG Export Plug-In . SVG Version: 6.00 Build 0)  -->
<svg version="1.1" id="Capa_1" xmlns="http://www.w3.org/2000/svg" xmlns:xlink="http://www.w3.org/1999/xlink" x="0px" y="0px"
	 viewBox="0 0 236 98.6" style="enable-background:new 0 0 236 98.6;" xml:space="preserve">
<style type="text/css">
	.st0{fill:#D2006B;}
	.st1{fill:#CFD0CF;}
	.st2{fill:#6B003B;}
	.st3{fill:#D8489A;}
</style>
<g>
	<path d="M90.2,44.7v15.1h-7.1V19.2h15.6c4.5,0,8.1,1.2,10.8,3.6c2.7,2.4,4,5.5,4,9.4c0,4-1.3,7.1-3.9,9.3c-2.6,2.2-6.3,3.3-11,3.3
		H90.2z M90.2,39h8.5c2.5,0,4.4-0.6,5.8-1.8c1.3-1.2,2-2.9,2-5.1c0-2.2-0.7-4-2-5.3c-1.3-1.3-3.2-2-5.5-2h-8.7V39z"/>
	<path d="M135.8,44.2h-7.9v15.6h-7.1V19.2h14.3c4.7,0,8.3,1.1,10.9,3.2c2.6,2.1,3.8,5.2,3.8,9.1c0,2.7-0.7,5-2,6.8s-3.1,3.2-5.5,4.2
		l9.1,16.9v0.4H144L135.8,44.2z M127.9,38.5h7.3c2.4,0,4.2-0.6,5.6-1.8c1.3-1.2,2-2.8,2-4.9c0-2.2-0.6-3.9-1.9-5.1
		c-1.2-1.2-3.1-1.8-5.5-1.8h-7.5V38.5z"/>
	<path class="st0" d="M181.5,41.7h-16.7v12.5h19.5v5.6h-26.6V19.2h26.4v5.7h-19.3v11.2h16.7V41.7z"/>
	<path d="M198.3,44.7v15.1h-7.1V19.2h15.6c4.5,0,8.2,1.2,10.8,3.6c2.7,2.4,4,5.5,4,9.4c0,4-1.3,7.1-3.9,9.3c-2.6,2.2-6.3,3.3-11,3.3
		H198.3z M198.3,39h8.5c2.5,0,4.4-0.6,5.8-1.8c1.3-1.2,2-2.9,2-5.1c0-2.2-0.7-4-2-5.3s-3.2-2-5.5-2h-8.7V39z"/>
</g>
<g>
	<path d="M87.7,76.6h-6v-0.8l3.2-3.5c0.5-0.5,0.8-1,1-1.3s0.3-0.7,0.3-1c0-0.5-0.1-0.9-0.4-1.2c-0.3-0.3-0.7-0.5-1.2-0.5
		c-0.6,0-1,0.2-1.4,0.5c-0.3,0.3-0.5,0.8-0.5,1.4h-1.2c0-0.8,0.3-1.5,0.8-2.1c0.5-0.5,1.3-0.8,2.2-0.8c0.9,0,1.5,0.2,2,0.7
		c0.5,0.5,0.7,1,0.7,1.8c0,0.9-0.6,2-1.7,3.2l-2.5,2.7h4.6V76.6z"/>
	<path d="M95,72.6c0,1.4-0.2,2.4-0.7,3.1c-0.5,0.7-1.2,1-2.2,1c-1,0-1.7-0.3-2.2-1c-0.5-0.7-0.7-1.6-0.7-2.9v-1.6
		c0-1.4,0.2-2.4,0.7-3c0.5-0.7,1.2-1,2.2-1c1,0,1.7,0.3,2.2,1c0.5,0.6,0.7,1.6,0.7,2.9V72.6z M93.9,71c0-1-0.1-1.7-0.4-2.2
		c-0.3-0.5-0.7-0.7-1.3-0.7c-0.6,0-1,0.2-1.3,0.7c-0.3,0.5-0.4,1.1-0.4,2.1v1.9c0,1,0.1,1.7,0.4,2.2c0.3,0.5,0.7,0.7,1.3,0.7
		c0.6,0,1-0.2,1.3-0.7c0.3-0.4,0.4-1.2,0.4-2.1V71z"/>
	<path d="M102.8,76.6h-6v-0.8l3.2-3.5c0.5-0.5,0.8-1,1-1.3s0.3-0.7,0.3-1c0-0.5-0.1-0.9-0.4-1.2c-0.3-0.3-0.7-0.5-1.2-0.5
		c-0.6,0-1,0.2-1.4,0.5c-0.3,0.3-0.5,0.8-0.5,1.4h-1.2c0-0.8,0.3-1.5,0.8-2.1c0.5-0.5,1.3-0.8,2.2-0.8c0.9,0,1.5,0.2,2,0.7
		c0.5,0.5,0.7,1,0.7,1.8c0,0.9-0.6,2-1.7,3.2l-2.5,2.7h4.6V76.6z"/>
	<path d="M108.2,76.6H107v-7.8l-2.4,0.9v-1.1l3.4-1.3h0.2V76.6z"/>
</g>
<g>
	<path d="M149.2,72.1c0,0.9-0.1,1.7-0.4,2.3c-0.3,0.6-0.7,1.1-1.2,1.5l1.6,1.3l-0.8,0.8l-1.9-1.5c-0.3,0.1-0.6,0.1-1,0.1
		c-0.7,0-1.4-0.2-1.9-0.5c-0.6-0.4-1-0.9-1.3-1.5c-0.3-0.7-0.5-1.4-0.5-2.3v-0.7c0-0.9,0.2-1.7,0.5-2.4s0.7-1.2,1.3-1.6
		c0.6-0.4,1.2-0.5,1.9-0.5c0.7,0,1.4,0.2,2,0.5c0.6,0.4,1,0.9,1.3,1.5c0.3,0.7,0.5,1.5,0.5,2.4V72.1z M148,71.5
		c0-1.1-0.2-1.9-0.6-2.5c-0.4-0.6-1.1-0.9-1.9-0.9c-0.8,0-1.4,0.3-1.8,0.9s-0.7,1.4-0.7,2.4v0.7c0,1.1,0.2,1.9,0.7,2.5
		s1.1,0.9,1.8,0.9s1.4-0.3,1.8-0.9c0.4-0.6,0.7-1.4,0.7-2.5V71.5z"/>
	<path d="M154.8,72.7h-2.2v3.7h-1.2v-9.2h3.1c1,0,1.8,0.2,2.4,0.7c0.6,0.5,0.8,1.2,0.8,2.1c0,0.6-0.2,1.1-0.5,1.5s-0.7,0.7-1.3,1
		l2.2,3.9v0.1h-1.3L154.8,72.7z M152.6,71.7h1.9c0.6,0,1.1-0.2,1.4-0.5c0.4-0.3,0.5-0.7,0.5-1.3c0-0.6-0.2-1-0.5-1.3
		c-0.3-0.3-0.8-0.5-1.5-0.5h-1.9V71.7z"/>
	<path d="M166.7,72.1c0,0.9-0.2,1.7-0.5,2.4c-0.3,0.7-0.7,1.2-1.3,1.5c-0.6,0.4-1.2,0.5-2,0.5c-0.7,0-1.4-0.2-1.9-0.5
		c-0.6-0.4-1-0.9-1.3-1.5c-0.3-0.7-0.5-1.4-0.5-2.3v-0.7c0-0.9,0.2-1.7,0.5-2.4s0.7-1.2,1.3-1.6c0.6-0.4,1.2-0.5,1.9-0.5
		c0.7,0,1.4,0.2,2,0.5c0.6,0.4,1,0.9,1.3,1.6c0.3,0.7,0.5,1.5,0.5,2.4V72.1z M165.5,71.5c0-1.1-0.2-1.9-0.7-2.5s-1.1-0.9-1.8-0.9
		c-0.8,0-1.4,0.3-1.8,0.9s-0.7,1.4-0.7,2.4v0.7c0,1.1,0.2,1.9,0.7,2.5c0.4,0.6,1.1,0.9,1.8,0.9c0.8,0,1.4-0.3,1.8-0.9
		c0.4-0.6,0.7-1.4,0.7-2.5V71.5z"/>
	<path d="M175.9,72.1c0,0.9-0.2,1.7-0.5,2.4c-0.3,0.7-0.7,1.2-1.3,1.5c-0.6,0.4-1.2,0.5-2,0.5c-0.7,0-1.4-0.2-1.9-0.5
		c-0.6-0.4-1-0.9-1.3-1.5c-0.3-0.7-0.5-1.4-0.5-2.3v-0.7c0-0.9,0.2-1.7,0.5-2.4s0.7-1.2,1.3-1.6c0.6-0.4,1.2-0.5,1.9-0.5
		c0.7,0,1.4,0.2,2,0.5c0.6,0.4,1,0.9,1.3,1.6c0.3,0.7,0.5,1.5,0.5,2.4V72.1z M174.7,71.5c0-1.1-0.2-1.9-0.7-2.5s-1.1-0.9-1.8-0.9
		c-0.8,0-1.4,0.3-1.8,0.9s-0.7,1.4-0.7,2.4v0.7c0,1.1,0.2,1.9,0.7,2.5c0.4,0.6,1.1,0.9,1.8,0.9c0.8,0,1.4-0.3,1.8-0.9
		c0.4-0.6,0.7-1.4,0.7-2.5V71.5z"/>
</g>
<circle class="st0" cx="125.7" cy="73.1" r="2.9"/>
<g>
	<g>
		<path class="st1" d="M71.1,53.6c-7,11.2-16.3,20.2-27.8,25.9c-1.2,0.6-3.2,0-4.3-1.3c-10.2-11.9-18.8-20.5-25.7-27
			c-0.7-0.7-0.3-1.8,0.8-2.4C25,42.7,33.7,33.7,39.8,22.9c0.7-1.2,1.8-1.6,2.6-0.8c7.5,6.9,16.8,15.5,27.8,27
			C71.5,50.4,71.9,52.4,71.1,53.6z"/>
		<g>
			<path class="st2" d="M13,49.5c-0.6,0.3-0.7,0.8-0.4,1.1c2.1,2,4.4,4.1,6.8,6.5c0.5,0.5,1.2,1.2,1.7,1.7c2.5,2.5,5.1,5.2,7.9,8.2
				c0.5,0.6,1.4,1.5,2,2.1c2.9,3.2,5.9,6.6,9.1,10.4c0.5,0.6,1.4,0.9,2,0.6c4-1.9,7.7-4.1,11.2-6.8c0.1,0,0.1-0.2,0-0.2
				c-3.6-4.1-7-7.9-10.2-11.4c-0.6-0.6-1.5-1.6-2-2.2c-2.8-3-5.5-5.7-8.1-8.3c-0.5-0.5-1.3-1.3-1.8-1.7c-2.5-2.5-4.8-4.7-7-6.7
				c-0.3-0.3-1-0.3-1.5,0.1C19.8,45.4,16.5,47.6,13,49.5z"/>
		</g>
		<g>
			<path class="st0" d="M33,49.7c-0.5,0.4-0.6,1.1-0.1,1.5c2.6,2.6,5.3,5.3,8.2,8.4c0.5,0.6,1.5,1.6,2,2.2
				c3.2,3.5,6.7,7.3,10.2,11.4c0,0,0.1,0.1,0.1,0c3.8-2.9,7.3-6.1,10.4-9.8c0,0,0,0,0-0.1c-3.7-4.1-7.2-7.9-10.6-11.4
				c-0.6-0.6-1.5-1.6-2.1-2.1c-3-3-5.8-5.8-8.4-8.4c-0.4-0.4-1.1-0.4-1.5,0.1C38.8,44.6,36,47.3,33,49.7z"/>
		</g>
		<g>
			<path class="st3" d="M52.9,50.2c2.6-3.2,5-6.6,7.1-10.2c0.3-0.5,0.8-0.5,1.2-0.1c3.3,3.3,6.9,6.9,10.6,10.8
				c0.3,0.4,0.5,1,0.3,1.3c-2.4,4.1-5.1,7.9-8.1,11.4c0,0,0,0-0.1,0c-3.8-4.3-7.5-8.1-10.9-11.7C52.6,51.3,52.6,50.6,52.9,50.2z"/>
		</g>
	</g>
</g>
</svg>
