<?xml version="1.0" encoding="utf-8"?>
<!-- Generator: Adobe Illustrator 25.0.1, SVG Export Plug-In . SVG Version: 6.00 Build 0)  -->
<svg version="1.1" id="Capa_1" xmlns="http://www.w3.org/2000/svg" xmlns:xlink="http://www.w3.org/1999/xlink" x="0px" y="0px"
	 viewBox="0 0 150 150" style="enable-background:new 0 0 150 150;" xml:space="preserve">
<style type="text/css">
	.st0{fill:#D8D8D8;}
	.st1{fill:#79134C;}
	.st2{fill:#D971A9;}
	.st3{fill:#D3097F;}
</style>
<g id="Grupo_12068" transform="translate(-6441.947 -2048.988)">
	<g id="Grupo_12067" transform="translate(6441.947 2050.158)">
		<path id="Trazado_10646" class="st0" d="M50.2,63.3l10.1,10.1l3.2,3.2l1.3,1.3c-0.6-0.6-0.6-1.7,0-2.3c0,0,0.1-0.1,0.1-0.1
			c2.4-2,4.5-3.9,6.2-5.6c2.1-2.1,3.9-4.1,5.7-6.2c0.6-0.7,1.6-0.8,2.3-0.2c0,0,0.1,0.1,0.1,0.1l6.3,6.3l3.5,3.5l3.2,3.2l1,1
			c-0.6-0.6-0.6-1.5-0.1-2.1c3.5-4.5,6.6-9.3,9.2-14.4c0.4-0.8,1.4-1.1,2.2-0.7c0.1,0.1,0.3,0.2,0.4,0.3L76.2,32.1
			c-0.6-0.6-1.7-0.6-2.3,0c-0.1,0.1-0.2,0.3-0.3,0.4c-6.2,12-14.9,22.5-25.6,30.7l0,0C48.7,62.7,49.6,62.8,50.2,63.3z"/>
		<path id="Trazado_10647" class="st1" d="M77.6,114.9c0.5-0.3,1.1-0.6,1.7-0.9l0,0c0.6-0.4,1.3-0.7,1.9-1.1l0,0
			c3.8-2.3,7.4-4.8,10.8-7.5l-6.7-6.7L77.8,91l-6.7-6.7l-6.3-6.3l-1.3-1.3l-3.2-3.2L50.2,63.3c-0.6-0.6-1.5-0.6-2.1-0.1l0,0
			c-0.5,0.4-0.9,0.7-1.4,1.1l-0.2,0.1c-0.5,0.3-0.9,0.7-1.4,1c-0.1,0.1-0.2,0.1-0.2,0.2c-0.4,0.3-0.9,0.6-1.4,0.9
			c-0.1,0.1-0.2,0.2-0.3,0.2c-0.4,0.3-0.9,0.6-1.3,0.9c-0.1,0.1-0.3,0.2-0.4,0.3c-0.4,0.3-0.9,0.6-1.3,0.8c-0.2,0.1-0.3,0.2-0.5,0.3
			c-0.4,0.3-0.9,0.5-1.4,0.8c-0.2,0.1-0.4,0.2-0.5,0.3c-0.5,0.3-1,0.6-1.5,0.8c-0.2,0.1-0.3,0.2-0.5,0.3c-0.7,0.4-1.3,0.7-2,1.1
			c-0.8,0.4-1.1,1.4-0.7,2.2c0.1,0.1,0.2,0.3,0.3,0.4L46,87.8l2.3,2.3l2.9,2.9l2.3,2.3l6.7,6.7l2.3,2.3l2.9,2.9l2.3,2.3l5.9,5.9
			c0,0,0.1,0,0.1,0.1c0,0,0.1,0.1,0.1,0.1c0,0,0,0,0,0c0.5,0.3,1.1,0.4,1.6,0.1l0,0c0.5-0.3,1.1-0.5,1.6-0.8
			C77.4,115,77.5,114.9,77.6,114.9z"/>
		<path id="Trazado_10648" class="st2" d="M102.3,61.1c-2.6,5.1-5.7,9.9-9.2,14.4c-0.5,0.6-0.5,1.6,0.1,2.1l6.6,6.6l5.9,5.9l0.8,0.8
			l0,0c0.4-0.5,0.9-1.1,1.3-1.7l0,0c1.3-1.7,2.6-3.6,4-5.6c0.1-0.1,0.2-0.3,0.3-0.4c0.3-0.5,0.6-1,1-1.5c0.1-0.2,0.3-0.4,0.4-0.6
			c0.3-0.5,0.6-0.9,0.9-1.4c0.1-0.2,0.3-0.5,0.4-0.7c0.3-0.5,0.6-1,0.9-1.5c0.1-0.2,0.2-0.4,0.4-0.7c0.4-0.7,0.8-1.5,1.2-2.3
			c0.3-0.6,0.2-1.4-0.3-1.9l-5.9-5.9l-6-6l0,0c-0.6-0.6-1.6-0.6-2.3,0C102.4,60.8,102.3,61,102.3,61.1z"/>
		<path id="Trazado_10649" class="st3" d="M105.6,90.1l-5.9-5.9l-6.6-6.6l-1-1l-3.2-3.2l-3.5-3.5l-6.3-6.3c-0.6-0.6-1.6-0.6-2.3,0
			c0,0-0.1,0.1-0.1,0.1c-1.7,2-3.6,4.1-5.7,6.2c-1.7,1.7-3.8,3.6-6.2,5.6c-0.7,0.6-0.8,1.6-0.2,2.3c0,0,0.1,0.1,0.1,0.1l6.3,6.3
			l6.7,6.7l7.6,7.6l6.7,6.7c0.6-0.5,1.2-1,1.8-1.5c0,0,0.1-0.1,0.1-0.1c0.5-0.5,1.1-0.9,1.6-1.4c0.1-0.1,0.2-0.2,0.3-0.3
			c0.5-0.4,1-0.9,1.5-1.3c0.1-0.1,0.3-0.2,0.4-0.4c0.6-0.6,1.2-1.2,1.8-1.8c0.3-0.3,0.6-0.6,0.8-0.9c0.1-0.1,0.3-0.3,0.4-0.4
			c0.2-0.2,0.3-0.3,0.5-0.5c0.2-0.2,0.4-0.4,0.5-0.6c0.1-0.1,0.2-0.2,0.3-0.3c0.2-0.2,0.4-0.5,0.7-0.7c0,0,0.1-0.1,0.1-0.1
			c1.1-1.2,2.3-2.6,3.5-4.1c0,0,0,0,0,0l0,0L105.6,90.1z"/>
	</g>
</g>
</svg>
