<svg xmlns="http://www.w3.org/2000/svg" viewBox="0 0 460 200"><style><![CDATA[.A{fill:#751242}.B{fill:#010104}.C{fill:#a70940}]]></style><path class="A" d="M389.2 41.8c.3.4.7.1.9.2 4.3.8 7.6 4.2 7.9 8.4.4 4.4-2.1 8.4-6.3 10-.2.1-.4.1-.7.3l6.5 1.7c16.3 4.5 31.6 11.3 46 20.2.2.1.4.4.7.5l-.1.1c-6.9-2.5-13.7-4.9-20.8-7-6-1.8-12.1-3.3-18.3-4.7-.1 0-.3 0-.6-.1l3.5 3.2c4.9 4.7 8.9 10 12 16.1 4.1 7.9 6.7 16.4 7.9 25.2 1.7 12.3.9 24.4-1.6 36.5 0 0 0 .1-.1.2v-2.4c0-.7-.1-1.5-.1-2.3-.9-16.9-5.1-32.6-14.5-46.8-7.2-10.7-16.6-19.1-27.5-25.7-11-6.7-22.9-11.2-35.2-14.5-2.4-.7-4.8-1.2-7.2-1.7-.2-.1-.4-.1-.7-.2 13.9-3.1 27.8-2.1 41.8-.1-.5-.4-1-.8-1.5-1.3-2.3-2.9-2.9-6.1-1.6-9.6 1.3-3.4 3.9-5.4 7.5-6 .2 0 .5.1.6-.2h1.5z"/><path class="B" d="M278.1 158.2c-8.8 0-17.2-1.8-24.8-6.4-8.8-5.3-14.8-13-18.1-22.7-4.4-12.9-3.9-25.7 2-37.9 5.7-12.1 15.4-19.8 28.4-22.8 11-2.5 21.9-2 32.3 2.5 11.3 4.9 18.8 13.6 23 25.1 1.8 5 2.7 10.2 2.8 15.6.1 10.8-2.7 20.9-9.2 29.6-6.4 8.6-15 13.7-25.5 15.8-3.6.9-7.3 1.2-10.9 1.2zm-.9-73c-.9 0-2.6.1-4.3.4-6.3 1.1-11.6 3.9-15.3 8.9-6.3 8.4-7.6 17.7-4.5 27.5 2.1 6.9 6.5 12.1 13.1 15.3 5.2 2.5 10.7 3 16.4 2.2 7.9-1.2 14-5.1 18.1-12 3.6-6.2 4.7-12.8 3.6-19.8-.9-6.3-3.6-11.7-8.2-16-5.2-4.6-11.3-6.5-18.9-6.5zm-108.4 68.4h-17.4c-.4 0-.6-.2-.9-.5l-3.2-3.7c-.2-.3-.4-.4-.9-.2-5.7 2.8-11.8 4-18.2 4.1-7 .2-13.7-.8-20-3.7-9.2-4.3-15.8-11.2-19.3-20.7-5.5-14.5-4.3-28.5 4.4-41.4 5.8-8.6 14.2-13.6 24.3-15.5 8.6-1.6 17.1-1.2 25.3 2 11 4.2 18.4 12 22.2 23 4.8 13.7 3.5 26.8-4.1 39.2-.7 1.1-1.5 2.1-2.3 3.1-.4.4-.4.7 0 1.1 3.3 4.1 6.5 8.4 9.8 12.6.1.2.3.3.3.6zm-21.5-27.8c3.4-6.5 4.3-13.2 2.5-20.1-1.6-6.5-5.1-11.7-11-15-4.5-2.5-9.4-3.3-14.5-2.8-7.5.7-13.4 4-17.4 10.5-3.6 5.7-4.6 12.1-3.5 18.7.8 5.1 2.8 9.7 6.6 13.4 7.3 7 16 7.9 25.4 5.2.8-.2.4-.5.1-.8l-9-11-4.1-5.1h18.7c.4 0 .7.1.9.4l2 2.6c1.1 1.2 2.2 2.6 3.3 4zm225.4 32.3c-10.3-.1-19.9-2.7-28.1-9.2-7.8-6.2-12.8-14.2-15.1-23.8-3.1-12.6-1.8-24.7 4.4-36.2 4.9-9 12.4-15.3 22-19 .6-.2 1.1-.2 1.7-.1 11.8 4.1 22.9 9.4 32.8 17.3 13.1 10.3 21.8 23.5 26.4 39.6.1.4.2.9.1 1.5-3.6 10.8-10.2 19.2-20.3 24.6-6.1 3.3-12.6 4.9-19.5 5.2-1.6.2-3 .1-4.4.1zM347 112.5c.1 2.9.4 5.7 1.2 8.5 2.2 7.3 6.5 13 13.4 16.3 5.2 2.4 10.6 2.9 16.1 2.2 7.3-1 13.2-4.4 17.4-10.6 4.8-7.3 6-15.3 4-23.7-1.7-7.1-5.5-12.9-11.9-16.6-4.6-2.7-9.6-3.6-14.8-3.4-8.6.3-15.7 3.7-20.6 11-3.4 4.9-4.8 10.4-4.8 16.3zm-114.6 41.8h-17.8c-.6 0-.9-.1-1.2-.7l-15.6-29.7c-.3-.5-.5-.7-1.1-.7h-6.3c-.7 0-.9.2-.9.9v29.3c0 .7-.1.9-.9.9-4.9-.1-9.7 0-14.5 0-.7 0-.8-.1-.8-.8V73.6c0-.7.2-.9.9-.9h31c6.2 0 11.8 1.7 16.5 5.9 4.1 3.7 6.4 8.4 7.4 13.8 1.1 6.2.4 12.1-2.6 17.7-2.8 5.1-6.8 8.6-12.4 10.4-.2.1-.4.1-.6.2l18.9 33.6zm-42.8-55.9v8.3c0 .6.1.8.8.8h13.7c2 0 3.7-.6 5.2-1.9 2.8-2.6 3.5-5.8 2.8-9.4-.8-4.1-3.5-6.6-7.3-6.8-4.9-.2-9.7-.1-14.5-.1-.6 0-.4.4-.4.7-.3 2.7-.3 5.5-.3 8.4zM39.2 112.5V72.7c0-.7.1-.9.9-.9h39.1c.7 0 .9.1.9.9v14.5c0 .8-.2.9-.9.9H56.5c-.7 0-.9.1-.9.9v14.4c0 .7.1.9.9.9 6.5-.1 13.1 0 19.6 0 .7 0 .9.1.9.9V120c0 .7-.2.8-.8.8H56.5c-.7 0-.9.2-.9.9v14.4c0 .7.1.9.9.9l24-.1c.8 0 1 .2 1 1-.1 4.9 0 9.7 0 14.5 0 .7-.2.9-.9.9H40c-.7 0-.8-.2-.8-.9v-39.9zm-11.4.1v39.8c0 .7-.1.9-.9.9-4.8-.1-9.7 0-14.5 0-.7 0-.9-.1-.9-.9V72.6c0-.7.2-.9.9-.9h14.5c.7 0 .9.1.9.9v40z"/><path class="C" d="M427.1 87c3.1 1.7 5.9 3.7 8.6 5.9.4.4.8.7 1.4 1.2-.7-2.4-.4-4.4 1.2-6.2 1.2-1.3 2.7-2 4.5-2 3.4 0 6.2 3.1 5.9 6.3-.4 4.1-3.4 6-8.3 5.2 1.2 1.6 2.4 3.2 3.3 4.9 2.3 4.6 3 9.5 2.7 14.6-.5 7.8-2.8 15.3-5.2 22.7-.7 2.3-1.5 4.5-2.3 6.8-.1.2-.1.6-.4.7 3.9-21.5.9-41.6-11.4-60.1-.1.1-.1 0 0 0z"/><path d="M322.1 46.2c.2.1.4.3.7.5l11.4 10 3.1 2.8c.3.3.4.4.1.8l-12.9 14.8c-.4.5-.7.2-.9-.1l-11.5-10-3.1-2.8c-.4-.3-.4-.5-.1-.8l12.9-14.8c.1-.1.2-.2.3-.4z" fill="#470b42"/><path class="A" d="M444.4 83.1c0 .1.1.1.1.1h-.2c-.1 0 0 0 .1-.1z"/><path class="C" d="M426.9 86.8c.1.1.1.1.1.2l-.1.1c-.1-.1-.1-.2 0-.3z"/><path class="C" d="M426.9 86.8z"/></svg>